{"glyphs":{"0":{"ha":875,"x_min":69,"x_max":806,"o":"m 709 120 q 661 52 709 120 q 438 -17 613 -17 q 166 120 263 -17 q 69 486 69 257 q 166 852 69 715 q 438 989 263 989 q 709 852 613 989 q 806 486 806 715 q 709 120 806 257 m 238 185 q 274 131 238 185 q 438 78 310 78 q 637 185 565 78 q 708 486 708 292 q 637 788 708 681 q 438 894 565 894 q 238 788 310 894 q 167 486 167 681 q 238 185 167 292 z "},"1":{"ha":472,"x_min":21,"x_max":361,"o":"m 278 972 l 361 972 l 361 0 l 264 0 l 264 865 l 46 800 l 21 883 l 278 972 z "},"2":{"ha":729,"x_min":56,"x_max":674,"o":"m 56 0 l 56 88 l 406 440 q 556 697 556 590 q 498 842 556 790 q 360 894 440 894 q 142 757 210 894 l 60 806 q 185 942 106 896 q 360 989 264 989 q 565 910 476 989 q 653 697 653 832 q 606 535 653 613 q 472 371 558 457 l 194 94 l 674 94 l 674 0 l 56 0 z "},"3":{"ha":736,"x_min":42,"x_max":681,"o":"m 413 568 q 605 478 529 553 q 681 282 681 404 q 585 63 681 143 q 354 -17 490 -17 q 161 33 246 -17 q 42 176 76 83 l 122 224 q 207 115 146 151 q 354 78 268 78 q 519 131 454 78 q 583 282 583 185 q 519 433 583 379 q 354 486 454 486 l 354 488 l 353 486 l 326 486 l 285 550 l 526 881 l 69 881 l 69 972 l 639 972 l 639 881 l 413 568 z "},"4":{"ha":806,"x_min":35,"x_max":771,"o":"m 771 286 l 771 194 l 646 194 l 646 0 l 549 0 l 549 194 l 35 194 l 35 286 l 396 972 l 503 972 l 142 286 l 549 286 l 549 583 l 646 583 l 646 286 l 771 286 z "},"5":{"ha":750,"x_min":56,"x_max":694,"o":"m 368 581 q 599 501 504 581 q 694 282 694 421 q 599 63 694 143 q 368 -17 504 -17 q 172 37 258 -17 q 56 190 86 90 l 138 238 q 220 119 158 160 q 368 78 282 78 q 533 131 468 78 q 597 282 597 185 q 533 433 597 379 q 368 486 468 486 l 104 486 l 139 972 l 660 972 l 660 881 l 225 881 l 204 581 l 368 581 z "},"6":{"ha":736,"x_min":42,"x_max":694,"o":"m 368 625 q 603 535 511 625 q 694 304 694 446 q 603 73 694 163 q 368 -17 511 -17 q 133 73 225 -17 q 42 304 42 163 q 101 499 42 414 l 419 972 l 529 972 l 290 617 q 368 625 328 625 m 202 140 q 234 109 202 140 q 368 78 265 78 q 534 140 471 78 q 597 304 597 203 q 534 468 597 406 q 368 531 471 531 q 202 468 265 531 q 139 304 139 406 q 202 140 139 203 z "},"7":{"ha":681,"x_min":28,"x_max":625,"o":"m 28 972 l 625 972 l 625 881 l 258 0 l 157 0 l 524 881 l 28 881 l 28 972 z "},"8":{"ha":761,"x_min":56,"x_max":706,"o":"m 544 501 q 662 405 618 467 q 706 264 706 343 q 613 58 706 132 q 381 -17 519 -17 q 149 58 242 -17 q 56 264 56 132 q 99 405 56 343 q 217 501 143 467 q 88 719 88 575 q 174 919 88 850 q 381 989 261 989 q 587 919 500 989 q 674 719 674 850 q 544 501 674 575 m 520 851 q 492 873 520 851 q 381 894 464 894 q 241 851 297 894 q 185 719 185 808 q 242 590 185 636 q 381 544 300 544 q 519 590 461 544 q 576 719 576 636 q 520 851 576 808 m 215 126 q 247 102 215 126 q 381 78 278 78 q 546 126 483 78 q 608 264 608 174 q 546 402 608 354 q 381 450 483 450 q 215 402 278 450 q 153 264 153 354 q 215 126 153 174 z "},"9":{"ha":736,"x_min":42,"x_max":694,"o":"m 694 668 q 635 474 694 558 l 317 0 l 207 0 l 446 356 q 368 347 408 347 q 133 437 225 347 q 42 668 42 526 q 133 899 42 810 q 368 989 225 989 q 603 899 511 989 q 694 668 694 810 m 202 832 q 170 801 202 832 q 139 668 139 769 q 202 504 139 567 q 368 442 265 442 q 534 504 471 442 q 597 668 597 567 q 534 832 597 769 q 368 894 471 894 q 202 832 265 894 z "}," ":{"ha":347,"x_min":0,"x_max":0,"o":""},"!":{"ha":319,"x_min":83,"x_max":236,"o":"m 125 264 l 104 694 l 104 972 l 215 972 l 215 694 l 194 264 l 125 264 m 214 8 q 203 -3 214 8 q 160 -14 192 -14 q 106 8 128 -14 q 83 63 83 31 q 106 117 83 94 q 160 139 128 139 q 214 117 192 139 q 236 63 236 94 q 214 8 236 31 z "},"\"":{"ha":431,"x_min":69,"x_max":361,"o":"m 83 694 l 69 972 l 167 972 l 153 694 l 83 694 m 278 694 l 264 972 l 361 972 l 347 694 l 278 694 z "},"#":{"ha":832,"x_min":42,"x_max":790,"o":"m 776 569 l 611 569 l 583 403 l 750 403 l 736 319 l 569 319 l 528 69 l 439 69 l 481 319 l 297 319 l 256 69 l 167 69 l 208 319 l 42 319 l 56 403 l 222 403 l 250 569 l 82 569 l 96 653 l 264 653 l 306 903 l 394 903 l 353 653 l 536 653 l 578 903 l 667 903 l 625 653 l 790 653 l 776 569 m 494 403 l 522 569 l 339 569 l 311 403 l 494 403 z "},"$":{"ha":764,"x_min":56,"x_max":708,"o":"m 708 253 q 635 72 708 144 q 444 -14 561 -1 l 444 -139 l 361 -139 l 361 -15 q 169 44 249 -8 q 56 186 90 97 l 139 235 q 361 79 190 93 l 361 463 q 260 503 299 485 q 182 551 222 521 q 123 626 142 582 q 104 731 104 671 q 177 908 104 839 q 361 988 250 976 l 361 1111 l 444 1111 l 444 986 q 590 931 526 976 q 688 807 654 885 l 606 761 q 444 890 561 872 l 444 529 q 546 489 506 508 q 627 438 586 469 q 688 360 668 406 q 708 253 708 314 m 201 731 q 240 629 201 667 q 361 560 279 592 l 361 892 q 245 841 289 883 q 201 731 201 799 m 444 81 q 567 138 522 92 q 611 253 611 183 q 569 360 611 321 q 444 433 528 400 l 444 81 z "},"%":{"ha":985,"x_min":83,"x_max":901,"o":"m 296 572 q 144 633 206 572 q 83 781 83 693 q 144 928 83 868 q 296 989 206 989 q 447 928 386 989 q 508 781 508 868 q 449 633 508 693 q 296 572 389 572 m 207 692 q 224 674 207 692 q 296 656 242 656 q 385 692 350 656 q 419 781 419 728 q 385 869 419 833 q 296 906 350 906 q 207 869 242 906 q 172 781 172 833 q 207 692 172 728 m 132 132 l 783 864 l 843 831 l 190 99 l 132 132 m 840 44 q 810 14 840 44 q 689 -17 779 -17 q 538 44 599 -17 q 476 192 476 104 q 538 340 476 279 q 689 400 599 400 q 840 340 779 400 q 901 192 901 279 q 840 44 901 104 m 600 103 q 617 85 600 103 q 689 67 635 67 q 778 103 743 67 q 813 192 813 139 q 778 281 813 244 q 689 317 743 317 q 600 281 635 317 q 565 192 565 244 q 600 103 565 139 z "},"&":{"ha":913,"x_min":83,"x_max":878,"o":"m 878 32 l 792 -17 l 689 93 q 403 -17 579 -17 q 172 58 260 -17 q 83 258 83 132 q 131 424 83 350 q 271 540 178 497 q 199 724 199 622 q 282 917 199 844 q 476 989 365 989 q 647 937 569 989 q 757 796 724 885 l 675 749 q 601 856 654 817 q 478 894 547 894 q 349 849 403 894 q 296 729 296 803 q 319 642 296 681 q 386 556 342 603 l 679 243 q 732 428 719 322 l 818 378 q 747 171 800 257 l 878 32 m 400 78 q 622 164 539 78 l 336 468 q 217 381 254 438 q 181 261 181 325 q 240 127 181 176 q 400 78 299 78 z "},"'":{"ha":236,"x_min":69,"x_max":167,"o":"m 83 694 l 69 972 l 167 972 l 153 694 l 83 694 z "},"(":{"ha":369,"x_min":83,"x_max":328,"o":"m 236 -139 q 83 486 83 167 q 236 1111 83 806 l 328 1111 q 175 486 175 806 q 328 -139 175 167 l 236 -139 z "},")":{"ha":369,"x_min":42,"x_max":286,"o":"m 133 -139 l 42 -139 q 194 486 194 167 q 42 1111 194 806 l 133 1111 q 286 486 286 806 q 133 -139 286 167 z "},"*":{"ha":544,"x_min":83,"x_max":461,"o":"m 461 847 l 461 769 l 335 774 l 407 669 l 336 628 l 272 740 l 208 628 l 138 669 l 210 774 l 83 769 l 83 847 l 210 843 l 138 947 l 208 989 l 272 876 l 336 989 l 407 947 l 335 843 l 461 847 z "},"+":{"ha":750,"x_min":83,"x_max":667,"o":"m 667 531 l 667 442 l 419 442 l 419 194 l 331 194 l 331 442 l 83 442 l 83 531 l 331 531 l 331 778 l 419 778 l 419 531 l 667 531 z "},",":{"ha":333,"x_min":83,"x_max":250,"o":"m 250 118 l 167 -194 l 83 -194 l 139 118 l 250 118 z "},"-":{"ha":722,"x_min":111,"x_max":611,"o":"m 111 385 l 111 474 l 611 474 l 611 385 l 111 385 z "},".":{"ha":319,"x_min":83,"x_max":236,"o":"m 214 8 q 203 -3 214 8 q 160 -14 192 -14 q 106 8 128 -14 q 83 63 83 31 q 106 117 83 94 q 160 139 128 139 q 214 117 192 139 q 236 63 236 94 q 214 8 236 31 z "},"/":{"ha":736,"x_min":56,"x_max":681,"o":"m 125 -139 l 56 -139 l 611 1111 l 681 1111 l 125 -139 z "},":":{"ha":319,"x_min":83,"x_max":236,"o":"m 214 578 q 203 567 214 578 q 160 556 192 556 q 106 578 128 556 q 83 632 83 600 q 106 686 83 664 q 160 708 128 708 q 214 686 192 708 q 236 632 236 664 q 214 578 236 600 m 214 8 q 203 -3 214 8 q 160 -14 192 -14 q 106 8 128 -14 q 83 63 83 31 q 106 117 83 94 q 160 139 128 139 q 214 117 192 139 q 236 63 236 94 q 214 8 236 31 z "},";":{"ha":340,"x_min":83,"x_max":257,"o":"m 235 578 q 224 567 235 578 q 181 556 213 556 q 126 578 149 556 q 104 632 104 600 q 126 686 104 664 q 181 708 149 708 q 235 686 213 708 q 257 632 257 664 q 235 578 257 600 m 250 118 l 167 -194 l 83 -194 l 139 118 l 250 118 z "},"<":{"ha":722,"x_min":83,"x_max":639,"o":"m 639 778 l 639 675 l 188 486 l 639 297 l 639 194 l 83 438 l 83 535 l 639 778 z "},"=":{"ha":750,"x_min":83,"x_max":667,"o":"m 83 581 l 83 669 l 667 669 l 667 581 l 83 581 m 83 303 l 83 392 l 667 392 l 667 303 l 83 303 z "},">":{"ha":722,"x_min":83,"x_max":639,"o":"m 83 778 l 639 535 l 639 438 l 83 194 l 83 297 l 535 486 l 83 675 l 83 778 z "},"?":{"ha":739,"x_min":69,"x_max":656,"o":"m 292 264 q 319 388 292 332 q 386 483 347 444 q 464 558 425 522 q 531 638 503 594 q 558 732 558 682 q 503 853 558 813 q 363 894 449 894 q 151 754 192 894 l 69 800 q 181 941 101 893 q 363 989 261 989 q 570 922 485 989 q 656 732 656 854 q 628 621 656 672 q 561 531 600 569 q 483 456 522 493 q 417 369 444 418 q 389 264 389 319 l 292 264 m 394 8 q 383 -3 394 8 q 340 -14 372 -14 q 286 8 308 -14 q 264 63 264 31 q 286 117 264 94 q 340 139 308 139 q 394 117 372 139 q 417 63 417 94 q 394 8 417 31 z "},"@":{"ha":1103,"x_min":56,"x_max":1047,"o":"m 561 850 q 822 778 708 850 q 992 600 936 707 q 1047 375 1047 493 q 988 154 1047 228 q 847 81 928 81 q 747 110 789 81 q 692 200 706 140 q 538 125 632 125 q 377 189 442 125 q 313 347 313 253 q 377 506 313 442 q 538 569 442 569 q 685 503 626 569 l 685 560 l 771 560 l 771 260 q 861 126 771 126 q 964 187 922 126 q 1006 375 1006 247 q 877 686 1006 561 q 561 811 749 811 q 233 678 368 811 q 97 347 97 544 q 236 15 97 146 q 586 -117 375 -117 q 828 -76 726 -117 l 828 -118 q 586 -156 724 -156 q 207 -13 358 -156 q 56 347 56 129 q 201 703 56 557 q 561 850 346 850 m 441 247 q 462 227 441 247 q 543 208 483 208 q 644 247 603 208 q 685 347 685 285 q 644 448 685 410 q 543 486 603 486 q 441 448 483 486 q 399 347 399 410 q 441 247 399 285 z "},"A":{"ha":875,"x_min":14,"x_max":861,"o":"m 758 0 l 668 239 l 207 239 l 117 0 l 14 0 l 388 972 l 488 972 l 861 0 l 758 0 m 242 331 l 633 331 l 438 851 l 242 331 z "},"B":{"ha":861,"x_min":111,"x_max":806,"o":"m 650 504 q 763 412 721 474 q 806 271 806 350 q 726 79 806 158 q 535 0 647 0 l 111 0 l 111 972 l 503 972 q 688 895 611 972 q 764 711 764 818 q 650 504 764 575 m 503 881 l 208 881 l 208 542 l 503 542 q 619 591 571 542 q 667 711 667 640 q 619 831 667 781 q 503 881 571 881 m 535 92 q 658 144 607 92 q 708 271 708 196 q 658 397 708 344 q 535 450 607 450 l 208 450 l 208 92 l 535 92 z "},"C":{"ha":1035,"x_min":56,"x_max":986,"o":"m 565 -17 q 200 129 344 -17 q 56 486 56 275 q 200 843 56 697 q 565 989 344 989 q 813 924 700 989 q 986 750 925 860 l 900 700 q 764 842 854 789 q 565 894 674 894 q 268 776 383 894 q 153 486 153 658 q 268 196 153 314 q 565 78 383 78 q 764 131 674 78 q 900 272 854 183 l 986 224 q 813 49 926 114 q 565 -17 700 -17 z "},"D":{"ha":1000,"x_min":111,"x_max":944,"o":"m 486 972 q 815 831 685 972 q 944 486 944 690 q 815 141 944 282 q 486 0 685 0 l 111 0 l 111 972 l 486 972 m 486 92 q 748 206 646 92 q 850 486 850 319 q 748 767 850 653 q 486 881 646 881 l 208 881 l 208 92 l 486 92 z "},"E":{"ha":736,"x_min":111,"x_max":681,"o":"m 208 92 l 681 92 l 681 0 l 111 0 l 111 972 l 674 972 l 674 881 l 208 881 l 208 536 l 639 536 l 639 444 l 208 444 l 208 92 z "},"F":{"ha":715,"x_min":111,"x_max":660,"o":"m 660 881 l 208 881 l 208 522 l 639 522 l 639 431 l 208 431 l 208 0 l 111 0 l 111 972 l 660 972 l 660 881 z "},"G":{"ha":1096,"x_min":56,"x_max":1040,"o":"m 1040 463 l 1040 413 q 911 108 1040 232 q 565 -17 782 -17 q 200 129 344 -17 q 56 486 56 275 q 200 843 56 697 q 565 989 344 989 q 813 924 700 989 q 986 750 925 858 l 900 700 q 764 842 854 789 q 565 894 674 894 q 268 776 383 894 q 153 486 153 658 q 268 196 153 314 q 565 78 383 78 q 828 160 729 78 q 940 371 926 243 l 554 371 l 554 463 l 1040 463 z "},"H":{"ha":944,"x_min":111,"x_max":833,"o":"m 736 972 l 833 972 l 833 0 l 736 0 l 736 454 l 208 454 l 208 0 l 111 0 l 111 972 l 208 972 l 208 546 l 736 546 l 736 972 z "},"I":{"ha":319,"x_min":111,"x_max":208,"o":"m 111 972 l 208 972 l 208 0 l 111 0 l 111 972 z "},"J":{"ha":768,"x_min":56,"x_max":671,"o":"m 351 -17 q 170 26 250 -17 q 56 150 90 68 l 138 199 q 351 78 183 78 q 513 126 453 78 q 574 275 574 175 l 574 972 l 671 972 l 671 275 q 580 58 671 133 q 351 -17 489 -17 z "},"K":{"ha":806,"x_min":111,"x_max":792,"o":"m 792 0 l 664 0 l 208 471 l 208 0 l 111 0 l 111 972 l 208 972 l 208 528 l 650 972 l 778 972 l 311 500 l 792 0 z "},"L":{"ha":681,"x_min":111,"x_max":653,"o":"m 208 92 l 653 92 l 653 0 l 111 0 l 111 972 l 208 972 l 208 92 z "},"M":{"ha":1111,"x_min":111,"x_max":1000,"o":"m 1000 972 l 1000 0 l 903 0 l 903 825 l 563 256 l 549 256 l 208 825 l 208 0 l 111 0 l 111 972 l 232 972 l 556 431 l 879 972 l 1000 972 z "},"N":{"ha":944,"x_min":111,"x_max":833,"o":"m 736 972 l 833 972 l 833 0 l 750 0 l 208 792 l 208 0 l 111 0 l 111 972 l 194 972 l 736 181 l 736 972 z "},"O":{"ha":1117,"x_min":56,"x_max":1061,"o":"m 915 130 q 842 57 915 130 q 558 -17 769 -17 q 201 130 347 -17 q 56 486 56 276 q 201 842 56 696 q 558 989 347 989 q 915 842 769 989 q 1061 486 1061 696 q 915 130 1061 276 m 269 197 q 328 137 269 197 q 558 78 386 78 q 847 197 731 78 q 964 486 964 315 q 847 776 964 657 q 558 894 731 894 q 269 776 386 894 q 153 486 153 657 q 269 197 153 315 z "},"P":{"ha":819,"x_min":111,"x_max":764,"o":"m 458 972 q 676 885 589 972 q 764 667 764 797 q 676 449 764 536 q 458 361 589 361 l 208 361 l 208 0 l 111 0 l 111 972 l 458 972 m 458 453 q 608 513 549 453 q 667 667 667 574 q 608 820 667 760 q 458 881 549 881 l 208 881 l 208 453 l 458 453 z "},"Q":{"ha":1124,"x_min":56,"x_max":1061,"o":"m 914 842 q 988 768 914 842 q 1061 486 1061 694 q 914 131 1061 278 l 1025 22 l 960 -37 l 847 74 q 558 -17 717 -17 q 203 131 350 -17 q 56 486 56 278 q 203 842 56 694 q 558 989 350 989 q 914 842 767 989 m 558 78 q 778 142 676 78 l 567 350 l 632 410 l 847 199 q 964 486 964 318 q 845 775 964 656 q 558 894 726 894 q 272 775 390 894 q 153 486 153 656 q 272 197 153 317 q 558 78 390 78 z "},"R":{"ha":847,"x_min":111,"x_max":819,"o":"m 708 0 l 481 389 l 208 389 l 208 0 l 111 0 l 111 972 l 500 972 q 706 887 621 972 q 792 681 792 801 q 733 505 792 582 q 582 401 674 428 l 819 0 l 708 0 m 208 881 l 208 481 l 500 481 q 638 540 581 481 q 694 681 694 599 q 638 822 694 764 q 500 881 581 881 l 208 881 z "},"S":{"ha":800,"x_min":56,"x_max":744,"o":"m 417 -17 q 188 47 283 -17 q 56 221 93 110 l 139 269 q 236 128 165 179 q 418 78 307 78 q 587 126 526 78 q 647 253 647 174 q 592 368 647 329 q 408 449 536 407 q 208 529 257 499 q 97 722 97 596 q 183 917 97 846 q 396 989 269 989 q 593 930 510 989 q 717 779 676 871 l 635 733 q 396 894 568 894 q 250 850 306 894 q 194 726 194 806 q 244 618 194 654 q 410 544 294 582 q 485 519 463 526 q 552 494 508 511 q 617 463 596 476 q 667 427 638 450 q 710 381 697 404 q 734 326 724 358 q 744 256 744 293 q 654 58 744 132 q 417 -17 564 -17 z "},"T":{"ha":750,"x_min":28,"x_max":722,"o":"m 722 972 l 722 881 l 424 881 l 424 0 l 326 0 l 326 881 l 28 881 l 28 972 l 722 972 z "},"U":{"ha":917,"x_min":97,"x_max":819,"o":"m 719 78 q 669 31 719 78 q 458 -17 619 -17 q 197 78 297 -17 q 97 331 97 172 l 97 972 l 194 972 l 194 331 q 264 146 194 214 q 458 78 333 78 q 653 146 583 78 q 722 331 722 214 l 722 972 l 819 972 l 819 331 q 719 78 819 172 z "},"V":{"ha":844,"x_min":14,"x_max":831,"o":"m 372 0 l 14 972 l 119 972 l 422 129 l 725 972 l 831 972 l 472 0 l 372 0 z "},"W":{"ha":1389,"x_min":42,"x_max":1347,"o":"m 324 0 l 42 972 l 144 972 l 385 132 l 638 972 l 751 972 l 1004 132 l 1244 972 l 1347 972 l 1065 0 l 949 0 l 694 844 l 440 0 l 324 0 z "},"X":{"ha":806,"x_min":28,"x_max":778,"o":"m 778 0 l 667 0 l 403 415 l 139 0 l 28 0 l 347 501 l 49 972 l 158 972 l 403 589 l 647 972 l 757 972 l 458 501 l 778 0 z "},"Y":{"ha":826,"x_min":14,"x_max":813,"o":"m 813 972 l 461 399 l 461 0 l 364 0 l 364 401 l 14 972 l 124 972 l 414 496 l 703 972 l 813 972 z "},"Z":{"ha":722,"x_min":56,"x_max":681,"o":"m 164 92 l 681 92 l 681 0 l 56 0 l 56 92 l 558 881 l 69 881 l 69 972 l 667 972 l 667 881 l 164 92 z "},"[":{"ha":389,"x_min":83,"x_max":361,"o":"m 361 1022 l 175 1022 l 175 -50 l 361 -50 l 361 -139 l 83 -139 l 83 1111 l 361 1111 l 361 1022 z "},"\\":{"ha":736,"x_min":56,"x_max":681,"o":"m 611 -139 l 56 1111 l 125 1111 l 681 -139 l 611 -139 z "},"]":{"ha":389,"x_min":28,"x_max":306,"o":"m 306 1111 l 306 -139 l 28 -139 l 28 -50 l 214 -50 l 214 1022 l 28 1022 l 28 1111 l 306 1111 z "},"^":{"ha":694,"x_min":56,"x_max":639,"o":"m 394 972 l 639 556 l 532 556 l 347 871 l 163 556 l 56 556 l 300 972 l 394 972 z "},"_":{"ha":722,"x_min":56,"x_max":667,"o":"m 56 -196 l 56 -107 l 667 -107 l 667 -196 l 56 -196 z "},"`":{"ha":278,"x_min":28,"x_max":250,"o":"m 250 792 l 139 972 l 28 972 l 161 792 l 250 792 z "},"a":{"ha":883,"x_min":56,"x_max":786,"o":"m 694 694 l 786 694 l 786 0 l 694 0 l 694 136 q 414 -17 599 -17 q 160 89 265 -17 q 56 347 56 194 q 160 606 56 500 q 414 711 265 711 q 694 558 599 711 l 694 694 m 226 152 q 266 112 226 152 q 421 72 306 72 q 615 152 536 72 q 694 347 694 232 q 615 542 694 463 q 421 622 536 622 q 226 542 306 622 q 147 347 147 463 q 226 152 147 232 z "},"b":{"ha":883,"x_min":97,"x_max":828,"o":"m 469 711 q 723 606 618 711 q 828 347 828 500 q 723 89 828 194 q 469 -17 618 -17 q 189 136 285 -17 l 189 0 l 97 0 l 97 972 l 189 972 l 189 558 q 469 711 285 711 m 268 152 q 308 112 268 152 q 463 72 347 72 q 657 152 578 72 q 736 347 736 232 q 657 542 736 463 q 463 622 578 622 q 268 542 347 622 q 189 347 189 463 q 268 152 189 232 z "},"c":{"ha":767,"x_min":56,"x_max":732,"o":"m 421 -17 q 160 88 264 -17 q 56 347 56 193 q 160 606 56 501 q 421 711 264 711 q 606 662 524 711 q 725 529 688 613 l 650 486 q 560 585 622 549 q 421 622 499 622 q 226 542 306 622 q 147 347 147 463 q 226 152 147 232 q 421 72 306 72 q 560 109 499 72 q 656 208 621 146 l 732 164 q 606 32 689 81 q 421 -17 522 -17 z "},"d":{"ha":883,"x_min":56,"x_max":786,"o":"m 694 972 l 786 972 l 786 0 l 694 0 l 694 136 q 414 -17 599 -17 q 160 89 265 -17 q 56 347 56 194 q 160 606 56 500 q 414 711 265 711 q 694 558 599 711 l 694 972 m 226 152 q 266 112 226 152 q 421 72 306 72 q 615 152 536 72 q 694 347 694 232 q 615 542 694 463 q 421 622 536 622 q 226 542 306 622 q 147 347 147 463 q 226 152 147 232 z "},"e":{"ha":811,"x_min":56,"x_max":763,"o":"m 418 711 q 667 602 572 711 q 763 344 763 493 q 760 301 763 329 l 150 301 q 240 134 164 196 q 426 72 315 72 q 563 105 506 72 q 650 190 621 138 l 731 143 q 606 26 685 69 q 425 -17 526 -17 q 158 86 261 -17 q 56 347 56 189 q 157 607 56 503 q 418 711 258 711 m 418 622 q 237 558 310 622 q 150 390 164 493 l 668 390 q 583 561 654 500 q 418 622 513 622 z "},"f":{"ha":444,"x_min":35,"x_max":444,"o":"m 444 900 q 294 865 343 908 q 244 722 244 822 l 244 694 l 444 694 l 444 606 l 244 606 l 244 0 l 153 0 l 153 606 l 35 606 l 35 694 l 153 694 l 153 722 q 228 928 153 858 q 444 989 304 999 l 444 900 z "},"g":{"ha":883,"x_min":56,"x_max":786,"o":"m 694 694 l 786 694 l 786 28 q 683 -208 786 -122 q 438 -294 581 -294 q 108 -125 193 -294 l 189 -79 q 438 -206 251 -206 q 626 -142 557 -206 q 694 28 694 -79 l 694 136 q 414 -17 599 -17 q 160 89 265 -17 q 56 347 56 194 q 160 606 56 500 q 414 711 265 711 q 694 558 599 711 l 694 694 m 226 152 q 266 112 226 152 q 421 72 306 72 q 615 152 536 72 q 694 347 694 232 q 615 542 694 463 q 421 622 536 622 q 226 542 306 622 q 147 347 147 463 q 226 152 147 232 z "},"h":{"ha":775,"x_min":97,"x_max":694,"o":"m 422 711 q 622 634 549 711 q 694 426 694 557 l 694 0 l 603 0 l 603 426 q 553 571 603 519 q 414 622 504 622 q 251 559 314 622 q 189 364 189 496 l 189 0 l 97 0 l 97 972 l 189 972 l 189 586 q 422 711 267 711 z "},"i":{"ha":286,"x_min":76,"x_max":210,"o":"m 190 861 q 181 851 190 861 q 143 842 171 842 q 96 861 115 842 q 76 908 76 881 q 96 956 76 936 q 143 975 115 975 q 190 956 171 975 q 210 908 210 936 q 190 861 210 881 m 97 0 l 97 694 l 189 694 l 189 0 l 97 0 z "},"j":{"ha":319,"x_min":-28,"x_max":243,"o":"m 129 956 q 139 965 129 956 q 176 975 149 975 q 224 956 204 975 q 243 908 243 936 q 224 861 243 881 q 176 842 204 842 q 129 861 149 842 q 110 908 110 881 q 129 956 110 936 m 131 -56 l 131 694 l 222 694 l 222 -56 q 157 -243 222 -181 q -28 -294 92 -306 l -28 -206 q 92 -179 54 -214 q 131 -56 131 -144 z "},"k":{"ha":686,"x_min":97,"x_max":658,"o":"m 658 0 l 536 0 l 189 335 l 189 0 l 97 0 l 97 972 l 189 972 l 189 388 l 519 694 l 644 694 l 286 361 l 658 0 z "},"l":{"ha":286,"x_min":97,"x_max":189,"o":"m 97 0 l 97 1014 l 189 1014 l 189 0 l 97 0 z "},"m":{"ha":1178,"x_min":97,"x_max":1097,"o":"m 838 711 q 1026 636 954 711 q 1097 433 1097 561 l 1097 0 l 1006 0 l 1006 433 q 959 573 1006 524 q 836 622 913 622 q 697 565 750 622 q 643 385 643 507 l 643 0 l 551 0 l 551 433 q 508 574 551 525 q 389 622 464 622 q 247 564 306 622 q 189 385 189 506 l 189 0 l 97 0 l 97 694 l 189 694 l 189 593 q 401 711 264 711 q 613 585 551 711 q 838 711 688 711 z "},"n":{"ha":775,"x_min":97,"x_max":694,"o":"m 422 711 q 622 634 549 711 q 694 426 694 557 l 694 0 l 603 0 l 603 426 q 553 571 603 519 q 414 622 504 622 q 251 559 314 622 q 189 364 189 496 l 189 0 l 97 0 l 97 694 l 189 694 l 189 586 q 422 711 267 711 z "},"o":{"ha":842,"x_min":56,"x_max":786,"o":"m 680 88 q 627 36 680 88 q 421 -17 574 -17 q 162 88 268 -17 q 56 347 56 193 q 162 606 56 501 q 421 711 268 711 q 680 606 574 711 q 786 347 786 501 q 680 88 786 193 m 226 152 q 266 112 226 152 q 421 72 306 72 q 615 152 536 72 q 694 347 694 232 q 615 542 694 463 q 421 622 536 622 q 226 542 306 622 q 147 347 147 463 q 226 152 147 232 z "},"p":{"ha":883,"x_min":97,"x_max":828,"o":"m 469 711 q 723 606 618 711 q 828 347 828 500 q 723 89 828 194 q 469 -17 618 -17 q 189 136 285 -17 l 189 -278 l 97 -278 l 97 694 l 189 694 l 189 558 q 469 711 285 711 m 268 152 q 308 112 268 152 q 463 72 347 72 q 657 152 578 72 q 736 347 736 232 q 657 542 736 463 q 463 622 578 622 q 268 542 347 622 q 189 347 189 463 q 268 152 189 232 z "},"q":{"ha":883,"x_min":56,"x_max":786,"o":"m 694 694 l 786 694 l 786 -278 l 694 -278 l 694 136 q 414 -17 599 -17 q 160 89 265 -17 q 56 347 56 194 q 160 606 56 500 q 414 711 265 711 q 694 558 599 711 l 694 694 m 226 152 q 266 112 226 152 q 421 72 306 72 q 615 152 536 72 q 694 347 694 232 q 615 542 694 463 q 421 622 536 622 q 226 542 306 622 q 147 347 147 463 q 226 152 147 232 z "},"r":{"ha":436,"x_min":97,"x_max":408,"o":"m 189 579 q 408 706 253 706 l 408 617 q 251 561 314 617 q 189 386 189 506 l 189 0 l 97 0 l 97 694 l 189 694 l 189 579 z "},"s":{"ha":631,"x_min":56,"x_max":575,"o":"m 169 513 q 211 438 169 465 q 313 394 253 410 q 432 360 372 379 q 533 298 492 342 q 575 183 575 254 q 505 39 575 94 q 324 -17 435 -17 q 153 28 224 -17 q 56 143 83 72 l 133 189 q 203 103 153 135 q 324 72 254 72 q 438 99 392 72 q 483 183 483 126 q 442 258 483 231 q 340 301 400 286 q 221 335 281 317 q 119 398 161 354 q 78 513 78 442 q 145 654 78 597 q 315 711 213 711 q 464 673 400 711 q 558 569 528 635 l 482 525 q 315 622 442 622 q 213 594 256 622 q 169 513 169 565 z "},"t":{"ha":521,"x_min":28,"x_max":465,"o":"m 465 606 l 265 606 l 265 185 q 288 103 265 128 q 354 78 310 79 q 465 81 399 78 l 465 0 q 247 21 319 -22 q 174 185 174 64 l 174 606 l 28 606 l 28 694 l 174 694 l 174 861 l 265 889 l 265 694 l 465 694 l 465 606 z "},"u":{"ha":775,"x_min":81,"x_max":678,"o":"m 586 694 l 678 694 l 678 0 l 586 0 l 586 108 q 353 -17 508 -17 q 153 60 226 -17 q 81 268 81 138 l 81 694 l 172 694 l 172 268 q 222 124 172 175 q 361 72 271 72 q 524 135 461 72 q 586 331 586 199 l 586 694 z "},"v":{"ha":708,"x_min":14,"x_max":694,"o":"m 597 694 l 694 694 l 410 0 l 299 0 l 14 694 l 111 694 l 354 96 l 597 694 z "},"w":{"ha":1069,"x_min":42,"x_max":1028,"o":"m 933 694 l 1028 694 l 814 0 l 714 0 l 535 560 l 356 0 l 256 0 l 42 694 l 136 694 l 307 118 l 489 694 l 581 694 l 763 118 l 933 694 z "},"x":{"ha":708,"x_min":28,"x_max":681,"o":"m 681 0 l 571 0 l 354 286 l 138 0 l 28 0 l 300 360 l 46 694 l 156 694 l 354 432 l 553 694 l 663 694 l 410 360 l 681 0 z "},"y":{"ha":708,"x_min":14,"x_max":694,"o":"m 597 694 l 694 694 l 397 -64 q 283 -226 357 -167 q 117 -278 208 -285 l 117 -192 q 307 -47 242 -206 l 325 -4 l 14 694 l 111 694 l 372 113 l 597 694 z "},"z":{"ha":653,"x_min":69,"x_max":597,"o":"m 197 89 l 597 89 l 597 0 l 69 0 l 69 61 l 456 606 l 83 606 l 83 694 l 583 694 l 583 633 l 197 89 z "},"{":{"ha":492,"x_min":69,"x_max":464,"o":"m 464 -150 q 278 -105 343 -161 q 214 75 214 -49 l 214 307 q 181 417 214 390 q 69 443 147 443 l 69 532 q 181 558 147 532 q 214 668 214 585 l 214 900 q 278 1080 214 1024 q 464 1125 343 1136 l 464 1036 q 343 1015 381 1044 q 306 900 306 986 l 306 668 q 197 488 306 519 q 306 307 306 456 l 306 75 q 343 -40 306 -11 q 464 -61 381 -69 l 464 -150 z "},"|":{"ha":314,"x_min":111,"x_max":203,"o":"m 111 -278 l 111 1000 l 203 1000 l 203 -278 l 111 -278 z "},"}":{"ha":492,"x_min":28,"x_max":422,"o":"m 28 -150 l 28 -61 q 149 -40 111 -69 q 186 75 186 -11 l 186 307 q 294 488 186 456 q 186 668 186 519 l 186 900 q 149 1015 186 986 q 28 1036 111 1044 l 28 1125 q 213 1080 149 1136 q 278 900 278 1024 l 278 668 q 311 558 278 585 q 422 532 344 532 l 422 443 q 311 417 344 443 q 278 307 278 390 l 278 75 q 213 -105 278 -49 q 28 -150 149 -161 z "},"~":{"ha":825,"x_min":83,"x_max":742,"o":"m 658 575 l 742 536 q 619 392 706 418 q 392 447 533 365 q 237 493 285 508 q 167 397 189 478 l 83 436 q 208 579 119 553 q 433 525 296 606 q 549 477 503 482 q 619 497 596 472 q 658 575 643 521 z "},"¡":{"ha":319,"x_min":83,"x_max":236,"o":"m 106 686 q 117 697 106 686 q 160 708 128 708 q 214 686 192 708 q 236 632 236 664 q 214 578 236 600 q 160 556 192 556 q 106 578 128 556 q 83 632 83 600 q 106 686 83 664 m 125 431 l 194 431 l 215 0 l 215 -278 l 104 -278 l 104 0 l 125 431 z "},"¢":{"ha":767,"x_min":56,"x_max":732,"o":"m 656 347 l 732 303 q 606 171 689 219 q 421 122 522 122 q 326 133 375 122 l 283 0 l 214 0 l 264 156 q 112 286 168 197 q 56 486 56 375 q 160 745 56 640 q 421 850 264 850 q 486 844 458 850 l 528 972 l 597 972 l 550 826 q 725 668 674 781 l 650 625 q 524 742 611 707 l 354 219 q 421 211 386 211 q 560 248 499 211 q 656 347 621 285 m 147 486 q 187 342 147 407 q 292 242 226 276 l 458 758 q 421 761 433 761 q 226 681 306 761 q 147 486 147 601 z "},"£":{"ha":813,"x_min":56,"x_max":792,"o":"m 283 94 l 792 94 l 792 0 l 56 0 l 56 94 l 186 94 l 186 401 l 83 401 l 83 488 l 186 488 l 186 697 q 271 913 186 838 q 471 989 356 989 q 736 803 661 989 l 657 758 q 471 894 607 894 q 338 845 392 894 q 283 697 283 796 l 283 488 l 604 488 l 604 401 l 283 401 l 283 94 z "},"¤":{"ha":767,"x_min":56,"x_max":711,"o":"m 614 672 q 679 486 679 594 q 614 300 679 378 l 711 203 l 667 158 l 569 256 q 383 192 488 192 q 197 256 279 192 l 100 158 l 56 203 l 153 300 q 88 486 88 381 q 153 672 88 592 l 56 769 l 100 814 l 197 717 q 383 781 279 781 q 569 717 488 781 l 667 814 l 711 769 l 614 672 m 238 632 q 209 602 238 632 q 179 486 179 572 q 238 340 179 400 q 383 281 297 281 q 528 340 469 281 q 588 486 588 400 q 528 632 588 572 q 383 692 469 692 q 238 632 297 692 z "},"¥":{"ha":799,"x_min":14,"x_max":813,"o":"m 813 972 l 513 482 l 699 482 l 699 401 l 463 401 l 461 399 l 461 318 l 699 318 l 699 238 l 461 238 l 461 0 l 364 0 l 364 238 l 101 238 l 101 318 l 364 318 l 364 401 l 101 401 l 101 482 l 314 482 l 14 972 l 124 972 l 414 496 l 703 972 l 813 972 z "},"¦":{"ha":314,"x_min":111,"x_max":203,"o":"m 111 486 l 111 1000 l 203 1000 l 203 486 l 111 486 m 111 -278 l 111 236 l 203 236 l 203 -278 l 111 -278 z "},"§":{"ha":708,"x_min":83,"x_max":653,"o":"m 564 193 q 625 50 625 135 q 556 -97 625 -37 q 375 -156 488 -156 q 192 -107 265 -156 q 85 29 118 -58 l 163 74 q 375 -67 206 -67 q 489 -36 444 -67 q 533 50 533 -6 q 500 124 533 90 q 428 176 467 157 q 322 224 390 196 q 301 232 308 229 q 220 271 254 251 q 152 319 186 290 q 101 385 118 347 q 83 471 83 424 q 182 644 83 574 q 125 783 125 701 q 192 929 125 869 q 363 989 258 989 q 517 945 453 989 q 614 822 582 901 l 539 779 q 363 900 492 900 q 260 869 303 900 q 217 783 217 839 q 248 712 217 744 q 313 662 279 679 q 413 615 346 644 q 435 606 428 608 q 594 506 536 560 q 653 363 653 451 q 564 193 653 261 m 175 471 q 217 377 175 414 q 336 311 260 340 q 493 243 443 272 q 561 363 561 292 q 518 458 561 421 q 396 526 475 494 q 250 593 299 564 q 175 471 175 547 z "},"¨":{"ha":444,"x_min":28,"x_max":417,"o":"m 135 817 q 126 808 135 817 q 90 799 117 799 q 46 817 64 799 q 28 861 28 835 q 46 906 28 888 q 90 924 64 924 q 135 906 117 924 q 153 861 153 888 q 135 817 153 835 m 399 817 q 390 808 399 817 q 354 799 381 799 q 310 817 328 799 q 292 861 292 835 q 310 906 292 888 q 354 924 328 924 q 399 906 381 924 q 417 861 417 888 q 399 817 417 835 z "},"©":{"ha":1117,"x_min":56,"x_max":1061,"o":"m 914 131 q 840 57 914 131 q 558 -17 767 -17 q 203 131 350 -17 q 56 486 56 278 q 203 842 56 694 q 558 989 350 989 q 914 842 767 989 q 1061 486 1061 694 q 914 131 1061 278 m 233 158 q 300 90 233 158 q 558 22 368 22 q 884 158 749 22 q 1019 486 1019 293 q 884 815 1019 679 q 558 950 749 950 q 233 815 368 950 q 97 486 97 679 q 233 158 97 293 m 563 219 q 371 297 449 219 q 293 486 293 375 q 371 675 293 597 q 563 753 449 753 q 697 718 636 753 q 790 624 757 683 l 714 579 q 653 644 694 622 q 563 667 611 667 q 433 613 482 667 q 383 486 383 560 q 433 359 383 413 q 563 306 482 306 q 654 328 613 306 q 715 394 696 351 l 792 349 q 697 254 758 289 q 563 219 636 219 z "},"«":{"ha":683,"x_min":97,"x_max":586,"o":"m 364 679 l 211 429 l 364 179 l 250 179 l 97 429 l 250 679 l 364 679 m 586 679 l 433 429 l 586 179 l 472 179 l 319 429 l 472 679 l 586 679 z "},"¬":{"ha":722,"x_min":83,"x_max":639,"o":"m 83 531 l 639 531 l 639 281 l 547 281 l 547 442 l 83 442 l 83 531 z "},"®":{"ha":1117,"x_min":56,"x_max":1061,"o":"m 203 842 q 276 915 203 842 q 558 989 350 989 q 914 842 767 989 q 1061 486 1061 694 q 914 131 1061 278 q 558 -17 767 -17 q 203 131 350 -17 q 56 486 56 278 q 203 842 56 694 m 233 158 q 300 90 233 158 q 558 22 368 22 q 884 158 749 22 q 1019 486 1019 293 q 884 815 1019 679 q 558 950 749 950 q 233 815 368 950 q 97 486 97 679 q 233 158 97 293 m 758 578 q 664 429 758 467 l 772 229 l 676 229 l 578 413 l 564 413 l 492 413 l 492 229 l 406 229 l 406 743 l 564 743 q 707 695 656 743 q 758 578 758 647 m 492 660 l 492 496 l 569 496 q 645 518 618 496 q 672 578 672 540 q 645 638 672 615 q 569 660 618 660 l 492 660 z "},"¯":{"ha":417,"x_min":28,"x_max":389,"o":"m 28 806 l 28 886 l 389 886 l 389 806 l 28 806 z "},"°":{"ha":536,"x_min":56,"x_max":481,"o":"m 268 708 q 117 769 178 708 q 56 917 56 829 q 117 1065 56 1004 q 268 1125 178 1125 q 419 1065 358 1125 q 481 917 481 1004 q 421 769 481 829 q 268 708 361 708 m 179 828 q 197 810 179 828 q 268 792 214 792 q 357 828 322 792 q 392 917 392 864 q 357 1006 392 969 q 268 1042 322 1042 q 179 1006 214 1042 q 144 917 144 969 q 179 828 144 864 z "},"±":{"ha":750,"x_min":83,"x_max":667,"o":"m 419 621 l 667 621 l 667 532 l 419 532 l 419 306 l 331 306 l 331 532 l 83 532 l 83 621 l 331 621 l 331 847 l 419 847 l 419 621 m 83 125 l 83 214 l 667 214 l 667 125 l 83 125 z "},"´":{"ha":278,"x_min":28,"x_max":250,"o":"m 28 792 l 117 792 l 250 972 l 139 972 l 28 792 z "},"µ":{"ha":842,"x_min":97,"x_max":800,"o":"m 746 89 l 800 89 l 800 0 l 735 0 q 647 31 682 0 q 604 113 613 61 q 369 -17 528 -17 q 189 54 251 -17 l 189 -278 l 97 -278 l 97 694 l 189 694 l 189 268 q 238 124 189 175 q 378 72 288 72 q 540 135 478 72 q 603 331 603 199 l 603 694 l 694 694 l 694 139 q 708 103 694 117 q 746 89 722 89 z "},"¶":{"ha":806,"x_min":56,"x_max":750,"o":"m 750 972 l 750 886 l 667 886 l 667 -278 l 578 -278 l 578 886 l 422 886 l 422 -278 l 333 -278 l 333 417 q 137 498 218 417 q 56 694 56 579 q 137 891 56 810 q 333 972 218 972 l 750 972 z "},"·":{"ha":319,"x_min":83,"x_max":236,"o":"m 214 432 q 203 421 214 432 q 160 410 192 410 q 106 432 128 410 q 83 486 83 454 q 106 540 83 518 q 160 563 128 563 q 214 540 192 563 q 236 486 236 518 q 214 432 236 454 z "},"¸":{"ha":340,"x_min":28,"x_max":313,"o":"m 183 -62 q 278 -103 243 -74 q 313 -175 313 -132 q 28 -300 313 -317 l 28 -225 q 232 -175 232 -242 q 103 -118 232 -122 l 103 0 l 183 0 l 183 -62 z "},"»":{"ha":683,"x_min":97,"x_max":586,"o":"m 211 679 l 364 429 l 211 179 l 97 179 l 250 429 l 97 679 l 211 679 m 433 679 l 586 429 l 433 179 l 319 179 l 472 429 l 319 679 l 433 679 z "},"¼":{"ha":1140,"x_min":14,"x_max":1113,"o":"m 249 417 l 163 417 l 163 878 l 36 840 l 14 914 l 175 972 l 249 972 l 249 417 m 732 972 l 815 972 l 260 0 l 176 0 l 732 972 m 1113 185 l 1113 104 l 1042 104 l 1042 0 l 956 0 l 956 104 l 669 104 l 669 185 l 876 556 l 969 556 l 764 185 l 956 185 l 956 318 l 1042 318 l 1042 185 l 1113 185 z "},"½":{"ha":1121,"x_min":14,"x_max":1081,"o":"m 249 417 l 163 417 l 163 878 l 36 840 l 14 914 l 175 972 l 249 972 l 249 417 m 732 972 l 815 972 l 260 0 l 176 0 l 732 972 m 819 83 l 1081 83 l 1081 0 l 692 0 l 692 71 l 925 285 q 983 403 983 336 q 956 465 983 442 q 883 489 929 489 q 763 403 797 489 l 690 443 q 883 572 743 572 q 1018 524 967 572 q 1069 403 1069 475 q 983 229 1069 307 l 819 83 z "},"¾":{"ha":1286,"x_min":35,"x_max":1258,"o":"m 435 579 q 379 449 435 499 q 232 400 324 400 q 35 517 90 400 l 107 558 q 232 483 142 483 q 318 509 288 483 q 349 579 349 535 q 317 649 349 622 q 232 675 286 675 l 226 675 l 183 740 l 308 889 l 53 889 l 53 972 l 411 972 l 411 889 l 288 742 q 396 685 357 728 q 435 579 435 643 m 878 972 l 961 972 l 406 0 l 322 0 l 878 972 m 1258 185 l 1258 104 l 1188 104 l 1188 0 l 1101 0 l 1101 104 l 815 104 l 815 185 l 1022 556 l 1115 556 l 910 185 l 1101 185 l 1101 318 l 1188 318 l 1188 185 l 1258 185 z "},"¿":{"ha":739,"x_min":83,"x_max":669,"o":"m 344 686 q 356 697 344 686 q 399 708 367 708 q 453 686 431 708 q 475 632 475 664 q 453 578 475 600 q 399 556 431 556 q 344 578 367 556 q 322 632 322 600 q 344 686 322 664 m 447 431 q 419 306 447 363 q 353 211 392 250 q 275 136 314 172 q 208 56 236 100 q 181 -37 181 13 q 235 -159 181 -118 q 376 -200 290 -200 q 588 -60 547 -200 l 669 -106 q 558 -247 638 -199 q 376 -294 478 -294 q 169 -227 254 -294 q 83 -37 83 -160 q 111 74 83 22 q 178 163 139 125 q 256 239 217 201 q 322 326 294 276 q 350 431 350 375 l 447 431 z "},"À":{"ha":875,"x_min":14,"x_max":861,"o":"m 521 1069 l 432 1069 l 299 1250 l 410 1250 l 521 1069 m 758 0 l 668 239 l 207 239 l 117 0 l 14 0 l 388 972 l 488 972 l 861 0 l 758 0 m 242 331 l 633 331 l 438 851 l 242 331 z "},"Á":{"ha":875,"x_min":14,"x_max":861,"o":"m 590 1250 l 457 1069 l 368 1069 l 479 1250 l 590 1250 m 758 0 l 668 239 l 207 239 l 117 0 l 14 0 l 388 972 l 488 972 l 861 0 l 758 0 m 242 331 l 633 331 l 438 851 l 242 331 z "},"Â":{"ha":875,"x_min":14,"x_max":861,"o":"m 438 1190 l 340 1069 l 236 1069 l 383 1250 l 492 1250 l 639 1069 l 535 1069 l 438 1190 m 758 0 l 668 239 l 207 239 l 117 0 l 14 0 l 388 972 l 488 972 l 861 0 l 758 0 m 242 331 l 633 331 l 438 851 l 242 331 z "},"Ã":{"ha":875,"x_min":14,"x_max":861,"o":"m 438 1115 q 388 1149 406 1139 q 354 1161 371 1160 q 331 1143 338 1163 q 324 1083 324 1124 l 243 1083 q 272 1206 243 1165 q 346 1244 301 1246 q 439 1204 390 1242 q 479 1175 464 1185 q 510 1160 494 1165 q 533 1161 525 1154 q 547 1186 542 1168 q 551 1236 551 1204 l 632 1236 q 603 1114 632 1154 q 530 1076 574 1074 q 438 1115 486 1078 m 758 0 l 668 239 l 207 239 l 117 0 l 14 0 l 388 972 l 488 972 l 861 0 l 758 0 m 242 331 l 633 331 l 438 851 l 242 331 z "},"Ä":{"ha":875,"x_min":14,"x_max":861,"o":"m 350 1094 q 341 1085 350 1094 q 306 1076 332 1076 q 261 1094 279 1076 q 243 1139 243 1113 q 261 1183 243 1165 q 306 1201 279 1201 q 350 1183 332 1201 q 368 1139 368 1165 q 350 1094 368 1113 m 614 1094 q 605 1085 614 1094 q 569 1076 596 1076 q 525 1094 543 1076 q 507 1139 507 1113 q 525 1183 507 1165 q 569 1201 543 1201 q 614 1183 596 1201 q 632 1139 632 1165 q 614 1094 632 1113 m 758 0 l 668 239 l 207 239 l 117 0 l 14 0 l 388 972 l 488 972 l 861 0 l 758 0 m 242 331 l 633 331 l 438 851 l 242 331 z "},"Å":{"ha":875,"x_min":14,"x_max":861,"o":"m 758 0 l 668 239 l 207 239 l 117 0 l 14 0 l 371 929 q 290 1056 290 965 q 331 1155 290 1115 q 438 1194 372 1194 q 544 1155 503 1194 q 585 1056 585 1115 q 504 929 585 965 l 861 0 l 758 0 m 438 1124 q 385 1105 404 1124 q 367 1056 367 1086 q 385 1006 367 1025 q 438 988 404 988 q 491 1006 472 988 q 510 1056 510 1025 q 491 1105 510 1086 q 438 1124 472 1124 m 242 331 l 633 331 l 438 851 l 242 331 z "},"Æ":{"ha":1222,"x_min":0,"x_max":1167,"o":"m 722 92 l 1167 92 l 1167 0 l 625 0 l 625 239 l 257 239 l 111 0 l 0 0 l 201 329 l 201 331 l 203 331 l 596 972 l 1160 972 l 1160 881 l 722 881 l 722 536 l 1139 536 l 1139 444 l 722 444 l 722 92 m 313 331 l 625 331 l 625 843 l 313 331 z "},"Ç":{"ha":1035,"x_min":56,"x_max":986,"o":"m 565 78 q 764 131 674 78 q 900 272 854 183 l 986 224 q 828 58 931 122 q 603 -15 726 -6 l 603 -62 q 697 -103 663 -74 q 732 -175 732 -132 q 447 -300 732 -317 l 447 -225 q 651 -175 651 -242 q 522 -118 651 -122 l 522 -15 q 187 143 318 0 q 56 486 56 286 q 200 843 56 697 q 565 989 344 989 q 813 924 700 989 q 986 750 925 860 l 900 700 q 764 842 854 789 q 565 894 674 894 q 268 776 383 894 q 153 486 153 658 q 268 196 153 314 q 565 78 383 78 z "},"È":{"ha":736,"x_min":111,"x_max":681,"o":"m 476 1069 l 388 1069 l 254 1250 l 365 1250 l 476 1069 m 208 92 l 681 92 l 681 0 l 111 0 l 111 972 l 674 972 l 674 881 l 208 881 l 208 536 l 639 536 l 639 444 l 208 444 l 208 92 z "},"É":{"ha":736,"x_min":111,"x_max":681,"o":"m 546 1250 l 413 1069 l 324 1069 l 435 1250 l 546 1250 m 208 92 l 681 92 l 681 0 l 111 0 l 111 972 l 674 972 l 674 881 l 208 881 l 208 536 l 639 536 l 639 444 l 208 444 l 208 92 z "},"Ê":{"ha":736,"x_min":111,"x_max":681,"o":"m 393 1190 l 296 1069 l 192 1069 l 339 1250 l 447 1250 l 594 1069 l 490 1069 l 393 1190 m 208 92 l 681 92 l 681 0 l 111 0 l 111 972 l 674 972 l 674 881 l 208 881 l 208 536 l 639 536 l 639 444 l 208 444 l 208 92 z "},"Ë":{"ha":736,"x_min":111,"x_max":681,"o":"m 306 1094 q 297 1085 306 1094 q 261 1076 288 1076 q 217 1094 235 1076 q 199 1139 199 1113 q 217 1183 199 1165 q 261 1201 235 1201 q 306 1183 288 1201 q 324 1139 324 1165 q 306 1094 324 1113 m 569 1094 q 560 1085 569 1094 q 525 1076 551 1076 q 481 1094 499 1076 q 463 1139 463 1113 q 481 1183 463 1165 q 525 1201 499 1201 q 569 1183 551 1201 q 588 1139 588 1165 q 569 1094 588 1113 m 208 92 l 681 92 l 681 0 l 111 0 l 111 972 l 674 972 l 674 881 l 208 881 l 208 536 l 639 536 l 639 444 l 208 444 l 208 92 z "},"Ì":{"ha":319,"x_min":21,"x_max":243,"o":"m 243 1069 l 132 1250 l 21 1250 l 154 1069 l 243 1069 m 111 972 l 208 972 l 208 0 l 111 0 l 111 972 z "},"Í":{"ha":319,"x_min":90,"x_max":313,"o":"m 90 1069 l 179 1069 l 313 1250 l 201 1250 l 90 1069 m 111 972 l 208 972 l 208 0 l 111 0 l 111 972 z "},"Î":{"ha":319,"x_min":-42,"x_max":361,"o":"m 214 1250 l 361 1069 l 257 1069 l 160 1190 l 63 1069 l -42 1069 l 106 1250 l 214 1250 m 111 0 l 111 972 l 208 972 l 208 0 l 111 0 z "},"Ï":{"ha":319,"x_min":-35,"x_max":354,"o":"m 72 1094 q 63 1085 72 1094 q 28 1076 54 1076 q -17 1094 1 1076 q -35 1139 -35 1113 q -17 1183 -35 1165 q 28 1201 1 1201 q 72 1183 54 1201 q 90 1139 90 1165 q 72 1094 90 1113 m 336 1094 q 327 1085 336 1094 q 292 1076 318 1076 q 247 1094 265 1076 q 229 1139 229 1113 q 247 1183 229 1165 q 292 1201 265 1201 q 336 1183 318 1201 q 354 1139 354 1165 q 336 1094 354 1113 m 111 972 l 208 972 l 208 0 l 111 0 l 111 972 z "},"Ð":{"ha":1028,"x_min":42,"x_max":972,"o":"m 514 972 q 842 831 713 972 q 972 486 972 690 q 842 141 972 282 q 514 0 713 0 l 139 0 l 139 442 l 42 442 l 42 531 l 139 531 l 139 972 l 514 972 m 514 92 q 776 206 674 92 q 878 486 878 319 q 776 767 878 653 q 514 881 674 881 l 236 881 l 236 531 l 542 531 l 542 442 l 236 442 l 236 92 l 514 92 z "},"Ñ":{"ha":944,"x_min":111,"x_max":833,"o":"m 278 1083 q 307 1206 278 1165 q 381 1244 336 1246 q 474 1204 425 1242 q 514 1175 499 1185 q 544 1160 529 1165 q 568 1161 560 1154 q 581 1186 576 1168 q 586 1236 586 1204 l 667 1236 q 638 1114 667 1154 q 565 1076 608 1074 q 472 1115 521 1078 q 423 1149 440 1139 q 389 1161 406 1160 q 365 1143 372 1163 q 358 1083 358 1124 l 278 1083 m 736 972 l 833 972 l 833 0 l 750 0 l 208 792 l 208 0 l 111 0 l 111 972 l 194 972 l 736 181 l 736 972 z "},"Ò":{"ha":1117,"x_min":56,"x_max":1061,"o":"m 642 1069 l 531 1250 l 419 1250 l 553 1069 l 642 1069 m 915 130 q 842 57 915 130 q 558 -17 769 -17 q 201 130 347 -17 q 56 486 56 276 q 201 842 56 696 q 558 989 347 989 q 915 842 769 989 q 1061 486 1061 696 q 915 130 1061 276 m 269 197 q 328 137 269 197 q 558 78 386 78 q 847 197 731 78 q 964 486 964 315 q 847 776 964 657 q 558 894 731 894 q 269 776 386 894 q 153 486 153 657 q 269 197 153 315 z "},"Ó":{"ha":1117,"x_min":56,"x_max":1061,"o":"m 489 1069 l 578 1069 l 711 1250 l 600 1250 l 489 1069 m 915 130 q 842 57 915 130 q 558 -17 769 -17 q 201 130 347 -17 q 56 486 56 276 q 201 842 56 696 q 558 989 347 989 q 915 842 769 989 q 1061 486 1061 696 q 915 130 1061 276 m 269 197 q 328 137 269 197 q 558 78 386 78 q 847 197 731 78 q 964 486 964 315 q 847 776 964 657 q 558 894 731 894 q 269 776 386 894 q 153 486 153 657 q 269 197 153 315 z "},"Ô":{"ha":1117,"x_min":56,"x_max":1061,"o":"m 558 1190 l 461 1069 l 357 1069 l 504 1250 l 613 1250 l 760 1069 l 656 1069 l 558 1190 m 201 842 q 274 916 201 842 q 558 989 347 989 q 915 842 769 989 q 1061 486 1061 696 q 915 130 1061 276 q 558 -17 769 -17 q 201 130 347 -17 q 56 486 56 276 q 201 842 56 696 m 269 197 q 328 137 269 197 q 558 78 386 78 q 847 197 731 78 q 964 486 964 315 q 847 776 964 657 q 558 894 731 894 q 269 776 386 894 q 153 486 153 657 q 269 197 153 315 z "},"Õ":{"ha":1117,"x_min":56,"x_max":1061,"o":"m 364 1083 q 393 1206 364 1165 q 467 1244 422 1246 q 560 1204 511 1242 q 600 1175 585 1185 q 631 1160 615 1165 q 654 1161 646 1154 q 667 1186 663 1168 q 672 1236 672 1204 l 753 1236 q 724 1114 753 1154 q 651 1076 694 1074 q 558 1115 607 1078 q 509 1149 526 1139 q 475 1161 492 1160 q 451 1143 458 1163 q 444 1083 444 1124 l 364 1083 m 915 130 q 842 57 915 130 q 558 -17 769 -17 q 201 130 347 -17 q 56 486 56 276 q 201 842 56 696 q 558 989 347 989 q 915 842 769 989 q 1061 486 1061 696 q 915 130 1061 276 m 269 197 q 328 137 269 197 q 558 78 386 78 q 847 197 731 78 q 964 486 964 315 q 847 776 964 657 q 558 894 731 894 q 269 776 386 894 q 153 486 153 657 q 269 197 153 315 z "},"Ö":{"ha":1117,"x_min":56,"x_max":1061,"o":"m 471 1094 q 462 1085 471 1094 q 426 1076 453 1076 q 382 1094 400 1076 q 364 1139 364 1113 q 382 1183 364 1165 q 426 1201 400 1201 q 471 1183 453 1201 q 489 1139 489 1165 q 471 1094 489 1113 m 735 1094 q 726 1085 735 1094 q 690 1076 717 1076 q 646 1094 664 1076 q 628 1139 628 1113 q 646 1183 628 1165 q 690 1201 664 1201 q 735 1183 717 1201 q 753 1139 753 1165 q 735 1094 753 1113 m 915 130 q 842 57 915 130 q 558 -17 769 -17 q 201 130 347 -17 q 56 486 56 276 q 201 842 56 696 q 558 989 347 989 q 915 842 769 989 q 1061 486 1061 696 q 915 130 1061 276 m 269 197 q 328 137 269 197 q 558 78 386 78 q 847 197 731 78 q 964 486 964 315 q 847 776 964 657 q 558 894 731 894 q 269 776 386 894 q 153 486 153 657 q 269 197 153 315 z "},"×":{"ha":654,"x_min":69,"x_max":585,"o":"m 585 683 l 388 486 l 585 289 l 522 231 l 328 426 l 132 231 l 69 289 l 267 486 l 69 683 l 132 742 l 328 547 l 522 742 l 585 683 z "},"Ø":{"ha":1131,"x_min":69,"x_max":1075,"o":"m 928 844 q 1075 486 1075 697 q 929 130 1075 276 q 572 -17 783 -17 q 274 79 407 -17 l 206 0 l 140 38 l 218 128 q 69 486 69 274 q 215 842 69 696 q 572 989 361 989 q 872 892 740 989 l 940 972 l 1006 935 l 928 844 m 167 486 q 279 200 167 319 l 810 819 q 572 894 704 894 q 283 776 400 894 q 167 486 167 657 m 572 78 q 861 197 744 78 q 978 486 978 315 q 865 771 978 654 l 336 151 q 572 78 440 78 z "},"Ù":{"ha":917,"x_min":97,"x_max":819,"o":"m 542 1069 l 431 1250 l 319 1250 l 453 1069 l 542 1069 m 719 78 q 669 31 719 78 q 458 -17 619 -17 q 197 78 297 -17 q 97 331 97 172 l 97 972 l 194 972 l 194 331 q 264 146 194 214 q 458 78 333 78 q 653 146 583 78 q 722 331 722 214 l 722 972 l 819 972 l 819 331 q 719 78 819 172 z "},"Ú":{"ha":917,"x_min":97,"x_max":819,"o":"m 389 1069 l 478 1069 l 611 1250 l 500 1250 l 389 1069 m 719 78 q 669 31 719 78 q 458 -17 619 -17 q 197 78 297 -17 q 97 331 97 172 l 97 972 l 194 972 l 194 331 q 264 146 194 214 q 458 78 333 78 q 653 146 583 78 q 722 331 722 214 l 722 972 l 819 972 l 819 331 q 719 78 819 172 z "},"Û":{"ha":917,"x_min":97,"x_max":819,"o":"m 458 1190 l 361 1069 l 257 1069 l 404 1250 l 513 1250 l 660 1069 l 556 1069 l 458 1190 m 722 972 l 819 972 l 819 331 q 719 78 819 172 q 458 -17 619 -17 q 197 78 297 -17 q 97 331 97 172 l 97 972 l 194 972 l 194 331 q 264 146 194 214 q 458 78 333 78 q 653 146 583 78 q 722 331 722 214 l 722 972 z "},"Ü":{"ha":917,"x_min":97,"x_max":819,"o":"m 371 1094 q 362 1085 371 1094 q 326 1076 353 1076 q 282 1094 300 1076 q 264 1139 264 1113 q 282 1183 264 1165 q 326 1201 300 1201 q 371 1183 353 1201 q 389 1139 389 1165 q 371 1094 389 1113 m 635 1094 q 626 1085 635 1094 q 590 1076 617 1076 q 546 1094 564 1076 q 528 1139 528 1113 q 546 1183 528 1165 q 590 1201 564 1201 q 635 1183 617 1201 q 653 1139 653 1165 q 635 1094 653 1113 m 719 78 q 669 31 719 78 q 458 -17 619 -17 q 197 78 297 -17 q 97 331 97 172 l 97 972 l 194 972 l 194 331 q 264 146 194 214 q 458 78 333 78 q 653 146 583 78 q 722 331 722 214 l 722 972 l 819 972 l 819 331 q 719 78 819 172 z "},"Ý":{"ha":826,"x_min":14,"x_max":813,"o":"m 561 1250 l 428 1069 l 339 1069 l 450 1250 l 561 1250 m 813 972 l 461 399 l 461 0 l 364 0 l 364 401 l 14 972 l 124 972 l 414 496 l 703 972 l 813 972 z "},"Þ":{"ha":819,"x_min":111,"x_max":764,"o":"m 458 792 q 676 704 589 792 q 764 486 764 617 q 676 268 764 356 q 458 181 589 181 l 208 181 l 208 0 l 111 0 l 111 972 l 208 972 l 208 792 l 458 792 m 458 272 q 608 333 549 272 q 667 486 667 393 q 608 640 667 579 q 458 700 549 700 l 208 700 l 208 272 l 458 272 z "},"ß":{"ha":717,"x_min":97,"x_max":689,"o":"m 401 -4 l 401 79 q 597 196 597 68 q 566 290 597 240 q 497 377 535 340 q 428 460 460 414 q 397 547 397 507 q 428 620 397 582 q 489 697 458 658 q 519 771 519 736 q 478 866 519 832 q 368 900 436 900 q 241 856 293 900 q 189 715 189 811 l 189 0 l 97 0 l 97 715 q 173 916 97 843 q 368 989 249 989 q 546 926 481 989 q 611 771 611 864 q 581 681 611 725 q 519 604 550 638 q 489 547 489 571 q 520 477 489 517 q 589 403 551 438 q 658 312 626 368 q 689 196 689 256 q 613 42 689 97 q 401 -4 538 -14 z "},"à":{"ha":883,"x_min":56,"x_max":786,"o":"m 507 792 l 418 792 l 285 972 l 396 972 l 507 792 m 694 694 l 786 694 l 786 0 l 694 0 l 694 136 q 414 -17 599 -17 q 160 89 265 -17 q 56 347 56 194 q 160 606 56 500 q 414 711 265 711 q 694 558 599 711 l 694 694 m 226 152 q 266 112 226 152 q 421 72 306 72 q 615 152 536 72 q 694 347 694 232 q 615 542 694 463 q 421 622 536 622 q 226 542 306 622 q 147 347 147 463 q 226 152 147 232 z "},"á":{"ha":883,"x_min":56,"x_max":786,"o":"m 576 972 l 443 792 l 354 792 l 465 972 l 576 972 m 694 694 l 786 694 l 786 0 l 694 0 l 694 136 q 414 -17 599 -17 q 160 89 265 -17 q 56 347 56 194 q 160 606 56 500 q 414 711 265 711 q 694 558 599 711 l 694 694 m 226 152 q 266 112 226 152 q 421 72 306 72 q 615 152 536 72 q 694 347 694 232 q 615 542 694 463 q 421 622 536 622 q 226 542 306 622 q 147 347 147 463 q 226 152 147 232 z "},"â":{"ha":883,"x_min":56,"x_max":786,"o":"m 424 913 l 326 792 l 222 792 l 369 972 l 478 972 l 625 792 l 521 792 l 424 913 m 694 694 l 786 694 l 786 0 l 694 0 l 694 136 q 414 -17 599 -17 q 160 89 265 -17 q 56 347 56 194 q 160 606 56 500 q 414 711 265 711 q 694 558 599 711 l 694 694 m 226 152 q 266 112 226 152 q 421 72 306 72 q 615 152 536 72 q 694 347 694 232 q 615 542 694 463 q 421 622 536 622 q 226 542 306 622 q 147 347 147 463 q 226 152 147 232 z "},"ã":{"ha":883,"x_min":56,"x_max":786,"o":"m 424 838 q 374 872 392 861 q 340 883 357 882 q 317 865 324 885 q 310 806 310 846 l 229 806 q 258 928 229 888 q 332 966 288 968 q 425 926 376 964 q 465 897 450 907 q 496 882 481 888 q 519 883 511 876 q 533 908 528 890 q 538 958 538 926 l 618 958 q 589 836 618 876 q 516 798 560 796 q 424 838 472 800 m 694 694 l 786 694 l 786 0 l 694 0 l 694 136 q 414 -17 599 -17 q 160 89 265 -17 q 56 347 56 194 q 160 606 56 500 q 414 711 265 711 q 694 558 599 711 l 694 694 m 226 152 q 266 112 226 152 q 421 72 306 72 q 615 152 536 72 q 694 347 694 232 q 615 542 694 463 q 421 622 536 622 q 226 542 306 622 q 147 347 147 463 q 226 152 147 232 z "},"ä":{"ha":883,"x_min":56,"x_max":786,"o":"m 336 817 q 327 808 336 817 q 292 799 318 799 q 247 817 265 799 q 229 861 229 835 q 247 906 229 888 q 292 924 265 924 q 336 906 318 924 q 354 861 354 888 q 336 817 354 835 m 600 817 q 591 808 600 817 q 556 799 582 799 q 511 817 529 799 q 493 861 493 835 q 511 906 493 888 q 556 924 529 924 q 600 906 582 924 q 618 861 618 888 q 600 817 618 835 m 694 694 l 786 694 l 786 0 l 694 0 l 694 136 q 414 -17 599 -17 q 160 89 265 -17 q 56 347 56 194 q 160 606 56 500 q 414 711 265 711 q 694 558 599 711 l 694 694 m 226 152 q 266 112 226 152 q 421 72 306 72 q 615 152 536 72 q 694 347 694 232 q 615 542 694 463 q 421 622 536 622 q 226 542 306 622 q 147 347 147 463 q 226 152 147 232 z "},"å":{"ha":883,"x_min":56,"x_max":786,"o":"m 530 803 q 509 784 530 803 q 424 764 489 764 q 317 803 358 764 q 276 903 276 843 q 317 1002 276 963 q 424 1042 358 1042 q 530 1002 489 1042 q 571 903 571 963 q 530 803 571 843 m 424 971 q 372 952 390 971 q 353 903 353 933 q 372 853 353 872 q 424 835 390 835 q 477 853 458 835 q 496 903 496 872 q 477 952 496 933 q 424 971 458 971 m 694 694 l 786 694 l 786 0 l 694 0 l 694 136 q 414 -17 599 -17 q 160 89 265 -17 q 56 347 56 194 q 160 606 56 500 q 414 711 265 711 q 694 558 599 711 l 694 694 m 226 152 q 266 112 226 152 q 421 72 306 72 q 615 152 536 72 q 694 347 694 232 q 615 542 694 463 q 421 622 536 622 q 226 542 306 622 q 147 347 147 463 q 226 152 147 232 z "},"æ":{"ha":1447,"x_min":56,"x_max":1399,"o":"m 1060 711 q 1308 603 1217 711 q 1399 344 1399 496 q 1396 301 1399 329 l 789 301 q 875 134 803 196 q 1057 72 947 72 q 1286 190 1219 72 l 1367 143 q 1244 26 1322 69 q 1069 -17 1165 -17 q 786 135 874 -17 l 786 0 l 694 0 l 694 136 q 414 -17 599 -17 q 160 89 265 -17 q 56 347 56 194 q 160 606 56 500 q 414 711 265 711 q 694 558 599 711 l 694 694 l 786 694 l 786 556 q 1060 711 874 711 m 226 152 q 266 112 226 152 q 421 72 306 72 q 615 152 536 72 q 694 347 694 232 q 615 542 694 463 q 421 622 536 622 q 226 542 306 622 q 147 347 147 463 q 226 152 147 232 m 1056 622 q 873 558 944 622 q 789 390 801 494 l 1304 390 q 1222 561 1292 500 q 1056 622 1153 622 z "},"ç":{"ha":767,"x_min":56,"x_max":732,"o":"m 732 164 q 620 41 693 89 q 457 -15 547 -7 l 457 -62 q 551 -103 517 -74 q 586 -175 586 -132 q 301 -300 586 -317 l 301 -225 q 506 -175 506 -242 q 376 -118 506 -122 l 376 -14 q 146 103 236 1 q 56 347 56 204 q 160 606 56 501 q 421 711 264 711 q 606 662 524 711 q 725 529 688 613 l 650 486 q 560 585 622 549 q 421 622 499 622 q 226 542 306 622 q 147 347 147 463 q 226 152 147 232 q 421 72 306 72 q 560 109 499 72 q 656 208 621 146 l 732 164 z "},"è":{"ha":811,"x_min":56,"x_max":763,"o":"m 493 792 l 404 792 l 271 972 l 382 972 l 493 792 m 418 711 q 667 602 572 711 q 763 344 763 493 q 760 301 763 329 l 150 301 q 240 134 164 196 q 426 72 315 72 q 563 105 506 72 q 650 190 621 138 l 731 143 q 606 26 685 69 q 425 -17 526 -17 q 158 86 261 -17 q 56 347 56 189 q 157 607 56 503 q 418 711 258 711 m 418 622 q 237 558 310 622 q 150 390 164 493 l 668 390 q 583 561 654 500 q 418 622 513 622 z "},"é":{"ha":811,"x_min":56,"x_max":763,"o":"m 563 972 l 429 792 l 340 792 l 451 972 l 563 972 m 418 711 q 667 602 572 711 q 763 344 763 493 q 760 301 763 329 l 150 301 q 240 134 164 196 q 426 72 315 72 q 563 105 506 72 q 650 190 621 138 l 731 143 q 606 26 685 69 q 425 -17 526 -17 q 158 86 261 -17 q 56 347 56 189 q 157 607 56 503 q 418 711 258 711 m 418 622 q 237 558 310 622 q 150 390 164 493 l 668 390 q 583 561 654 500 q 418 622 513 622 z "},"ê":{"ha":811,"x_min":56,"x_max":763,"o":"m 410 913 l 313 792 l 208 792 l 356 972 l 464 972 l 611 792 l 507 792 l 410 913 m 418 711 q 667 602 572 711 q 763 344 763 493 q 760 301 763 329 l 150 301 q 240 134 164 196 q 426 72 315 72 q 563 105 506 72 q 650 190 621 138 l 731 143 q 606 26 685 69 q 425 -17 526 -17 q 158 86 261 -17 q 56 347 56 189 q 157 607 56 503 q 418 711 258 711 m 418 622 q 237 558 310 622 q 150 390 164 493 l 668 390 q 583 561 654 500 q 418 622 513 622 z "},"ë":{"ha":811,"x_min":56,"x_max":763,"o":"m 322 817 q 313 808 322 817 q 278 799 304 799 q 233 817 251 799 q 215 861 215 835 q 233 906 215 888 q 278 924 251 924 q 322 906 304 924 q 340 861 340 888 q 322 817 340 835 m 586 817 q 577 808 586 817 q 542 799 568 799 q 497 817 515 799 q 479 861 479 835 q 497 906 479 888 q 542 924 515 924 q 586 906 568 924 q 604 861 604 888 q 586 817 604 835 m 418 711 q 667 602 572 711 q 763 344 763 493 q 760 301 763 329 l 150 301 q 240 134 164 196 q 426 72 315 72 q 563 105 506 72 q 650 190 621 138 l 731 143 q 606 26 685 69 q 425 -17 526 -17 q 158 86 261 -17 q 56 347 56 189 q 157 607 56 503 q 418 711 258 711 m 418 622 q 237 558 310 622 q 150 390 164 493 l 668 390 q 583 561 654 500 q 418 622 513 622 z "},"ì":{"ha":286,"x_min":6,"x_max":189,"o":"m 186 792 l 117 972 l 6 972 l 97 792 l 186 792 m 189 0 l 97 0 l 97 694 l 189 694 l 189 0 z "},"í":{"ha":286,"x_min":97,"x_max":282,"o":"m 101 792 l 190 792 l 282 972 l 171 972 l 101 792 m 97 0 l 97 694 l 189 694 l 189 0 l 97 0 z "},"î":{"ha":286,"x_min":-31,"x_max":317,"o":"m 197 972 l 317 792 l 213 792 l 143 897 l 74 792 l -31 792 l 89 972 l 197 972 m 97 0 l 97 694 l 189 694 l 189 0 l 97 0 z "},"ï":{"ha":286,"x_min":-17,"x_max":303,"o":"m 90 817 q 81 808 90 817 q 46 799 72 799 q 1 817 19 799 q -17 861 -17 835 q 1 906 -17 888 q 46 924 19 924 q 90 906 72 924 q 108 861 108 888 q 90 817 108 835 m 285 817 q 276 808 285 817 q 240 799 267 799 q 196 817 214 799 q 178 861 178 835 q 196 906 178 888 q 240 924 214 924 q 285 906 267 924 q 303 861 303 888 q 285 817 303 835 m 97 0 l 97 694 l 189 694 l 189 0 l 97 0 z "},"ð":{"ha":814,"x_min":56,"x_max":758,"o":"m 694 514 q 758 319 758 428 q 655 76 758 169 q 407 -17 551 -17 q 159 76 263 -17 q 56 319 56 169 q 156 556 56 464 q 393 647 257 647 q 504 625 453 647 l 381 790 l 225 694 l 225 778 l 339 847 l 246 972 l 353 972 l 413 893 l 568 989 l 568 906 l 454 836 l 694 514 m 224 140 q 262 106 224 140 q 407 72 300 72 q 590 140 514 72 q 667 319 667 208 q 625 463 667 407 q 410 561 551 561 q 222 494 296 561 q 147 319 147 428 q 224 140 147 208 z "},"ñ":{"ha":775,"x_min":97,"x_max":694,"o":"m 403 838 q 353 872 371 861 q 319 883 336 882 q 296 865 303 885 q 289 806 289 846 l 208 806 q 238 928 208 888 q 311 966 267 968 q 404 926 356 964 q 444 897 429 907 q 475 882 460 888 q 499 883 490 876 q 512 908 507 890 q 517 958 517 926 l 597 958 q 568 836 597 876 q 495 798 539 796 q 403 838 451 800 m 422 711 q 622 634 549 711 q 694 426 694 557 l 694 0 l 603 0 l 603 426 q 553 571 603 519 q 414 622 504 622 q 251 559 314 622 q 189 364 189 496 l 189 0 l 97 0 l 97 694 l 189 694 l 189 586 q 422 711 267 711 z "},"ò":{"ha":842,"x_min":56,"x_max":786,"o":"m 504 792 l 393 972 l 282 972 l 415 792 l 504 792 m 680 88 q 627 36 680 88 q 421 -17 574 -17 q 162 88 268 -17 q 56 347 56 193 q 162 606 56 501 q 421 711 268 711 q 680 606 574 711 q 786 347 786 501 q 680 88 786 193 m 226 152 q 266 112 226 152 q 421 72 306 72 q 615 152 536 72 q 694 347 694 232 q 615 542 694 463 q 421 622 536 622 q 226 542 306 622 q 147 347 147 463 q 226 152 147 232 z "},"ó":{"ha":842,"x_min":56,"x_max":786,"o":"m 351 792 l 440 792 l 574 972 l 463 972 l 351 792 m 680 88 q 627 36 680 88 q 421 -17 574 -17 q 162 88 268 -17 q 56 347 56 193 q 162 606 56 501 q 421 711 268 711 q 680 606 574 711 q 786 347 786 501 q 680 88 786 193 m 226 152 q 266 112 226 152 q 421 72 306 72 q 615 152 536 72 q 694 347 694 232 q 615 542 694 463 q 421 622 536 622 q 226 542 306 622 q 147 347 147 463 q 226 152 147 232 z "},"ô":{"ha":842,"x_min":56,"x_max":786,"o":"m 421 913 l 324 792 l 219 792 l 367 972 l 475 972 l 622 792 l 518 792 l 421 913 m 162 606 q 215 659 162 606 q 421 711 268 711 q 680 606 574 711 q 786 347 786 501 q 680 88 786 193 q 421 -17 574 -17 q 162 88 268 -17 q 56 347 56 193 q 162 606 56 501 m 226 152 q 266 112 226 152 q 421 72 306 72 q 615 152 536 72 q 694 347 694 232 q 615 542 694 463 q 421 622 536 622 q 226 542 306 622 q 147 347 147 463 q 226 152 147 232 z "},"õ":{"ha":842,"x_min":56,"x_max":786,"o":"m 226 806 q 256 928 226 888 q 329 966 285 968 q 422 926 374 964 q 463 897 447 907 q 493 882 478 888 q 517 883 508 876 q 530 908 525 890 q 535 958 535 926 l 615 958 q 586 836 615 876 q 513 798 557 796 q 421 838 469 800 q 372 872 389 861 q 338 883 354 882 q 314 865 321 885 q 307 806 307 846 l 226 806 m 680 88 q 627 36 680 88 q 421 -17 574 -17 q 162 88 268 -17 q 56 347 56 193 q 162 606 56 501 q 421 711 268 711 q 680 606 574 711 q 786 347 786 501 q 680 88 786 193 m 226 152 q 266 112 226 152 q 421 72 306 72 q 615 152 536 72 q 694 347 694 232 q 615 542 694 463 q 421 622 536 622 q 226 542 306 622 q 147 347 147 463 q 226 152 147 232 z "},"ö":{"ha":842,"x_min":56,"x_max":786,"o":"m 333 817 q 324 808 333 817 q 289 799 315 799 q 244 817 263 799 q 226 861 226 835 q 244 906 226 888 q 289 924 263 924 q 333 906 315 924 q 351 861 351 888 q 333 817 351 835 m 597 817 q 588 808 597 817 q 553 799 579 799 q 508 817 526 799 q 490 861 490 835 q 508 906 490 888 q 553 924 526 924 q 597 906 579 924 q 615 861 615 888 q 597 817 615 835 m 680 88 q 627 36 680 88 q 421 -17 574 -17 q 162 88 268 -17 q 56 347 56 193 q 162 606 56 501 q 421 711 268 711 q 680 606 574 711 q 786 347 786 501 q 680 88 786 193 m 226 152 q 266 112 226 152 q 421 72 306 72 q 615 152 536 72 q 694 347 694 232 q 615 542 694 463 q 421 622 536 622 q 226 542 306 622 q 147 347 147 463 q 226 152 147 232 z "},"÷":{"ha":806,"x_min":83,"x_max":722,"o":"m 457 692 q 446 681 457 692 q 403 669 435 669 q 349 692 371 669 q 326 746 326 714 q 349 800 326 778 q 403 822 371 822 q 457 800 435 822 q 479 746 479 778 q 457 692 479 714 m 83 442 l 83 531 l 722 531 l 722 442 l 83 442 m 457 172 q 446 161 457 172 q 403 150 435 150 q 349 172 371 150 q 326 226 326 194 q 349 281 326 258 q 403 303 371 303 q 457 281 435 303 q 479 226 479 258 q 457 172 479 194 z "},"ø":{"ha":842,"x_min":56,"x_max":786,"o":"m 688 599 q 786 347 786 493 q 680 88 786 193 q 421 -17 574 -17 q 201 54 299 -17 l 147 -7 l 92 25 l 154 96 q 56 347 56 201 q 162 606 56 501 q 421 711 268 711 q 640 640 543 711 l 694 701 l 750 669 l 688 599 m 147 347 q 215 164 147 240 l 579 572 q 421 622 510 622 q 226 542 306 622 q 147 347 147 463 m 421 72 q 615 152 536 72 q 694 347 694 232 q 626 531 694 454 l 263 122 q 421 72 332 72 z "},"ù":{"ha":775,"x_min":81,"x_max":678,"o":"m 460 792 l 371 792 l 238 972 l 349 972 l 460 792 m 586 694 l 678 694 l 678 0 l 586 0 l 586 108 q 353 -17 508 -17 q 153 60 226 -17 q 81 268 81 138 l 81 694 l 172 694 l 172 268 q 222 124 172 175 q 361 72 271 72 q 524 135 461 72 q 586 331 586 199 l 586 694 z "},"ú":{"ha":775,"x_min":81,"x_max":678,"o":"m 529 972 l 396 792 l 307 792 l 418 972 l 529 972 m 586 694 l 678 694 l 678 0 l 586 0 l 586 108 q 353 -17 508 -17 q 153 60 226 -17 q 81 268 81 138 l 81 694 l 172 694 l 172 268 q 222 124 172 175 q 361 72 271 72 q 524 135 461 72 q 586 331 586 199 l 586 694 z "},"û":{"ha":775,"x_min":81,"x_max":678,"o":"m 376 913 l 279 792 l 175 792 l 322 972 l 431 972 l 578 792 l 474 792 l 376 913 m 586 694 l 678 694 l 678 0 l 586 0 l 586 108 q 353 -17 508 -17 q 153 60 226 -17 q 81 268 81 138 l 81 694 l 172 694 l 172 268 q 222 124 172 175 q 361 72 271 72 q 524 135 461 72 q 586 331 586 199 l 586 694 z "},"ü":{"ha":775,"x_min":81,"x_max":678,"o":"m 289 817 q 280 808 289 817 q 244 799 271 799 q 200 817 218 799 q 182 861 182 835 q 200 906 182 888 q 244 924 218 924 q 289 906 271 924 q 307 861 307 888 q 289 817 307 835 m 553 817 q 544 808 553 817 q 508 799 535 799 q 464 817 482 799 q 446 861 446 835 q 464 906 446 888 q 508 924 482 924 q 553 906 535 924 q 571 861 571 888 q 553 817 571 835 m 586 694 l 678 694 l 678 0 l 586 0 l 586 108 q 353 -17 508 -17 q 153 60 226 -17 q 81 268 81 138 l 81 694 l 172 694 l 172 268 q 222 124 172 175 q 361 72 271 72 q 524 135 461 72 q 586 331 586 199 l 586 694 z "},"ý":{"ha":708,"x_min":14,"x_max":694,"o":"m 504 972 l 371 792 l 282 792 l 393 972 l 504 972 m 597 694 l 694 694 l 397 -64 q 283 -226 357 -167 q 117 -278 208 -285 l 117 -192 q 307 -47 242 -206 l 325 -4 l 14 694 l 111 694 l 372 113 l 597 694 z "},"þ":{"ha":883,"x_min":97,"x_max":828,"o":"m 469 711 q 723 606 618 711 q 828 347 828 500 q 723 89 828 194 q 469 -17 618 -17 q 189 136 285 -17 l 189 -278 l 97 -278 l 97 972 l 189 972 l 189 558 q 469 711 285 711 m 268 152 q 308 112 268 152 q 463 72 347 72 q 657 152 578 72 q 736 347 736 232 q 657 542 736 463 q 463 622 578 622 q 268 542 347 622 q 189 347 189 463 q 268 152 189 232 z "},"ÿ":{"ha":708,"x_min":14,"x_max":694,"o":"m 264 817 q 255 808 264 817 q 219 799 246 799 q 175 817 193 799 q 157 861 157 835 q 175 906 157 888 q 219 924 193 924 q 264 906 246 924 q 282 861 282 888 q 264 817 282 835 m 528 817 q 519 808 528 817 q 483 799 510 799 q 439 817 457 799 q 421 861 421 835 q 439 906 421 888 q 483 924 457 924 q 528 906 510 924 q 546 861 546 888 q 528 817 546 835 m 597 694 l 694 694 l 397 -64 q 283 -226 357 -167 q 117 -278 208 -285 l 117 -192 q 307 -47 242 -206 l 325 -4 l 14 694 l 111 694 l 372 113 l 597 694 z "},"Ā":{"ha":875,"x_min":14,"x_max":861,"o":"m 618 1164 l 618 1083 l 257 1083 l 257 1164 l 618 1164 m 758 0 l 668 239 l 207 239 l 117 0 l 14 0 l 388 972 l 488 972 l 861 0 l 758 0 m 242 331 l 633 331 l 438 851 l 242 331 z "},"ā":{"ha":883,"x_min":56,"x_max":786,"o":"m 604 886 l 604 806 l 243 806 l 243 886 l 604 886 m 694 694 l 786 694 l 786 0 l 694 0 l 694 136 q 414 -17 599 -17 q 160 89 265 -17 q 56 347 56 194 q 160 606 56 500 q 414 711 265 711 q 694 558 599 711 l 694 694 m 226 152 q 266 112 226 152 q 421 72 306 72 q 615 152 536 72 q 694 347 694 232 q 615 542 694 463 q 421 622 536 622 q 226 542 306 622 q 147 347 147 463 q 226 152 147 232 z "},"Ă":{"ha":875,"x_min":14,"x_max":861,"o":"m 438 1058 q 296 1106 349 1058 q 243 1239 243 1154 l 332 1239 q 438 1139 332 1139 q 543 1239 543 1139 l 632 1239 q 580 1106 632 1153 q 438 1058 528 1058 m 758 0 l 668 239 l 207 239 l 117 0 l 14 0 l 388 972 l 488 972 l 861 0 l 758 0 m 242 331 l 633 331 l 438 851 l 242 331 z "},"ă":{"ha":883,"x_min":56,"x_max":786,"o":"m 424 781 q 282 828 335 781 q 229 961 229 876 l 318 961 q 424 861 318 861 q 529 961 529 861 l 618 961 q 566 828 618 875 q 424 781 514 781 m 694 694 l 786 694 l 786 0 l 694 0 l 694 136 q 414 -17 599 -17 q 160 89 265 -17 q 56 347 56 194 q 160 606 56 500 q 414 711 265 711 q 694 558 599 711 l 694 694 m 226 152 q 266 112 226 152 q 421 72 306 72 q 615 152 536 72 q 694 347 694 232 q 615 542 694 463 q 421 622 536 622 q 226 542 306 622 q 147 347 147 463 q 226 152 147 232 z "},"Ą":{"ha":875,"x_min":14,"x_max":861,"o":"m 756 -172 q 803 -215 756 -215 q 861 -203 832 -215 l 861 -279 q 779 -294 824 -294 q 695 -265 725 -294 q 665 -189 665 -236 q 765 0 665 -97 l 758 0 l 668 239 l 207 239 l 117 0 l 14 0 l 388 972 l 488 972 l 861 0 q 785 -90 814 -43 q 756 -172 756 -137 m 242 331 l 633 331 l 438 851 l 242 331 z "},"ą":{"ha":883,"x_min":56,"x_max":786,"o":"m 786 0 q 710 -90 739 -43 q 681 -172 681 -137 q 728 -215 681 -215 q 786 -203 757 -215 l 786 -279 q 704 -294 749 -294 q 620 -265 650 -294 q 590 -189 590 -236 q 694 17 590 -100 l 694 136 q 414 -17 599 -17 q 160 89 265 -17 q 56 347 56 194 q 160 606 56 500 q 414 711 265 711 q 694 558 599 711 l 694 694 l 786 694 l 786 0 m 226 152 q 266 112 226 152 q 421 72 306 72 q 615 152 536 72 q 694 347 694 232 q 615 542 694 463 q 421 622 536 622 q 226 542 306 622 q 147 347 147 463 q 226 152 147 232 z "},"Ć":{"ha":1035,"x_min":56,"x_max":986,"o":"m 496 1069 l 585 1069 l 718 1250 l 607 1250 l 496 1069 m 565 -17 q 200 129 344 -17 q 56 486 56 275 q 200 843 56 697 q 565 989 344 989 q 813 924 700 989 q 986 750 925 860 l 900 700 q 764 842 854 789 q 565 894 674 894 q 268 776 383 894 q 153 486 153 658 q 268 196 153 314 q 565 78 383 78 q 764 131 674 78 q 900 272 854 183 l 986 224 q 813 49 926 114 q 565 -17 700 -17 z "},"ć":{"ha":767,"x_min":56,"x_max":732,"o":"m 336 792 l 425 792 l 558 972 l 447 972 l 336 792 m 421 -17 q 160 88 264 -17 q 56 347 56 193 q 160 606 56 501 q 421 711 264 711 q 606 662 524 711 q 725 529 688 613 l 650 486 q 560 585 622 549 q 421 622 499 622 q 226 542 306 622 q 147 347 147 463 q 226 152 147 232 q 421 72 306 72 q 560 109 499 72 q 656 208 621 146 l 732 164 q 606 32 689 81 q 421 -17 522 -17 z "},"Ċ":{"ha":1035,"x_min":56,"x_max":986,"o":"m 619 1092 q 608 1081 619 1092 q 565 1069 597 1069 q 511 1092 533 1069 q 489 1146 489 1114 q 511 1200 489 1178 q 565 1222 533 1222 q 619 1200 597 1222 q 642 1146 642 1178 q 619 1092 642 1114 m 565 -17 q 200 129 344 -17 q 56 486 56 275 q 200 843 56 697 q 565 989 344 989 q 813 924 700 989 q 986 750 925 860 l 900 700 q 764 842 854 789 q 565 894 674 894 q 268 776 383 894 q 153 486 153 658 q 268 196 153 314 q 565 78 383 78 q 764 131 674 78 q 900 272 854 183 l 986 224 q 813 49 926 114 q 565 -17 700 -17 z "},"ċ":{"ha":767,"x_min":56,"x_max":732,"o":"m 460 814 q 449 803 460 814 q 406 792 438 792 q 351 814 374 792 q 329 868 329 836 q 351 922 329 900 q 406 944 374 944 q 460 922 438 944 q 482 868 482 900 q 460 814 482 836 m 421 -17 q 160 88 264 -17 q 56 347 56 193 q 160 606 56 501 q 421 711 264 711 q 606 662 524 711 q 725 529 688 613 l 650 486 q 560 585 622 549 q 421 622 499 622 q 226 542 306 622 q 147 347 147 463 q 226 152 147 232 q 421 72 306 72 q 560 109 499 72 q 656 208 621 146 l 732 164 q 606 32 689 81 q 421 -17 522 -17 z "},"Č":{"ha":1035,"x_min":56,"x_max":986,"o":"m 511 1069 l 364 1250 l 468 1250 l 565 1129 l 663 1250 l 767 1250 l 619 1069 l 511 1069 m 565 78 q 764 131 674 78 q 900 272 854 183 l 986 224 q 813 49 926 114 q 565 -17 700 -17 q 200 129 344 -17 q 56 486 56 275 q 200 843 56 697 q 565 989 344 989 q 813 924 700 989 q 986 750 925 860 l 900 700 q 764 842 854 789 q 565 894 674 894 q 268 776 383 894 q 153 486 153 658 q 268 196 153 314 q 565 78 383 78 z "},"č":{"ha":767,"x_min":56,"x_max":732,"o":"m 351 792 l 204 972 l 308 972 l 406 851 l 503 972 l 607 972 l 460 792 l 351 792 m 656 208 l 732 164 q 606 32 689 81 q 421 -17 522 -17 q 160 88 264 -17 q 56 347 56 193 q 160 606 56 501 q 421 711 264 711 q 606 662 524 711 q 725 529 688 613 l 650 486 q 560 585 622 549 q 421 622 499 622 q 226 542 306 622 q 147 347 147 463 q 226 152 147 232 q 421 72 306 72 q 560 109 499 72 q 656 208 621 146 z "},"Ď":{"ha":1000,"x_min":111,"x_max":944,"o":"m 432 1069 l 285 1250 l 389 1250 l 486 1129 l 583 1250 l 688 1250 l 540 1069 l 432 1069 m 486 972 q 815 831 685 972 q 944 486 944 690 q 815 141 944 282 q 486 0 685 0 l 111 0 l 111 972 l 486 972 m 486 92 q 748 206 646 92 q 850 486 850 319 q 748 767 850 653 q 486 881 646 881 l 208 881 l 208 92 l 486 92 z "},"ď":{"ha":975,"x_min":56,"x_max":989,"o":"m 694 558 l 694 972 l 786 972 l 786 0 l 694 0 l 694 136 q 414 -17 599 -17 q 160 89 265 -17 q 56 347 56 194 q 160 606 56 500 q 414 711 265 711 q 694 558 599 711 m 897 972 l 989 972 l 947 736 l 883 736 l 897 972 m 226 152 q 266 112 226 152 q 421 72 306 72 q 615 152 536 72 q 694 347 694 232 q 615 542 694 463 q 421 622 536 622 q 226 542 306 622 q 147 347 147 463 q 226 152 147 232 z "},"Đ":{"ha":1028,"x_min":42,"x_max":972,"o":"m 514 972 q 842 831 713 972 q 972 486 972 690 q 842 141 972 282 q 514 0 713 0 l 139 0 l 139 442 l 42 442 l 42 531 l 139 531 l 139 972 l 514 972 m 514 92 q 776 206 674 92 q 878 486 878 319 q 776 767 878 653 q 514 881 674 881 l 236 881 l 236 531 l 542 531 l 542 442 l 236 442 l 236 92 l 514 92 z "},"đ":{"ha":897,"x_min":56,"x_max":883,"o":"m 883 875 l 883 800 l 786 800 l 786 0 l 694 0 l 694 136 q 414 -17 599 -17 q 160 89 265 -17 q 56 347 56 194 q 160 606 56 500 q 414 711 265 711 q 694 558 599 711 l 694 800 l 439 800 l 439 875 l 694 875 l 694 972 l 786 972 l 786 875 l 883 875 m 226 152 q 266 112 226 152 q 421 72 306 72 q 615 152 536 72 q 694 347 694 232 q 615 542 694 463 q 421 622 536 622 q 226 542 306 622 q 147 347 147 463 q 226 152 147 232 z "},"Ē":{"ha":736,"x_min":111,"x_max":681,"o":"m 574 1164 l 574 1083 l 213 1083 l 213 1164 l 574 1164 m 208 92 l 681 92 l 681 0 l 111 0 l 111 972 l 674 972 l 674 881 l 208 881 l 208 536 l 639 536 l 639 444 l 208 444 l 208 92 z "},"ē":{"ha":811,"x_min":56,"x_max":763,"o":"m 590 886 l 590 806 l 229 806 l 229 886 l 590 886 m 418 711 q 667 602 572 711 q 763 344 763 493 q 760 301 763 329 l 150 301 q 240 134 164 196 q 426 72 315 72 q 563 105 506 72 q 650 190 621 138 l 731 143 q 606 26 685 69 q 425 -17 526 -17 q 158 86 261 -17 q 56 347 56 189 q 157 607 56 503 q 418 711 258 711 m 418 622 q 237 558 310 622 q 150 390 164 493 l 668 390 q 583 561 654 500 q 418 622 513 622 z "},"Ė":{"ha":736,"x_min":111,"x_max":681,"o":"m 447 1092 q 436 1081 447 1092 q 393 1069 425 1069 q 339 1092 361 1069 q 317 1146 317 1114 q 339 1200 317 1178 q 393 1222 361 1222 q 447 1200 425 1222 q 469 1146 469 1178 q 447 1092 469 1114 m 208 92 l 681 92 l 681 0 l 111 0 l 111 972 l 674 972 l 674 881 l 208 881 l 208 536 l 639 536 l 639 444 l 208 444 l 208 92 z "},"ė":{"ha":811,"x_min":56,"x_max":763,"o":"m 464 814 q 453 803 464 814 q 410 792 442 792 q 356 814 378 792 q 333 868 333 836 q 356 922 333 900 q 410 944 378 944 q 464 922 442 944 q 486 868 486 900 q 464 814 486 836 m 418 711 q 667 602 572 711 q 763 344 763 493 q 760 301 763 329 l 150 301 q 240 134 164 196 q 426 72 315 72 q 563 105 506 72 q 650 190 621 138 l 731 143 q 606 26 685 69 q 425 -17 526 -17 q 158 86 261 -17 q 56 347 56 189 q 157 607 56 503 q 418 711 258 711 m 418 622 q 237 558 310 622 q 150 390 164 493 l 668 390 q 583 561 654 500 q 418 622 513 622 z "},"Ę":{"ha":736,"x_min":111,"x_max":681,"o":"m 681 0 q 604 -90 633 -43 q 575 -172 575 -137 q 622 -215 575 -215 q 681 -203 651 -215 l 681 -279 q 599 -294 643 -294 q 515 -265 544 -294 q 485 -189 485 -236 q 585 0 485 -97 l 111 0 l 111 972 l 674 972 l 674 881 l 208 881 l 208 536 l 639 536 l 639 444 l 208 444 l 208 92 l 681 92 l 681 0 z "},"ę":{"ha":811,"x_min":56,"x_max":763,"o":"m 418 711 q 667 602 572 711 q 763 344 763 493 q 760 301 763 329 l 150 301 q 240 134 164 196 q 426 72 315 72 q 563 105 506 72 q 650 190 621 138 l 731 143 q 675 75 711 111 q 515 -172 515 -97 q 563 -215 515 -215 q 621 -203 592 -215 l 621 -279 q 539 -294 583 -294 q 455 -265 485 -294 q 425 -189 425 -236 q 515 -7 425 -99 q 425 -17 476 -17 q 158 86 261 -17 q 56 347 56 189 q 157 607 56 503 q 418 711 258 711 m 418 622 q 237 558 310 622 q 150 390 164 493 l 668 390 q 583 561 654 500 q 418 622 513 622 z "},"Ě":{"ha":736,"x_min":111,"x_max":681,"o":"m 339 1069 l 192 1250 l 296 1250 l 393 1129 l 490 1250 l 594 1250 l 447 1069 l 339 1069 m 208 92 l 681 92 l 681 0 l 111 0 l 111 972 l 674 972 l 674 881 l 208 881 l 208 536 l 639 536 l 639 444 l 208 444 l 208 92 z "},"ě":{"ha":811,"x_min":56,"x_max":763,"o":"m 356 792 l 208 972 l 313 972 l 410 851 l 507 972 l 611 972 l 464 792 l 356 792 m 418 711 q 667 602 572 711 q 763 344 763 493 q 760 301 763 329 l 150 301 q 240 134 164 196 q 426 72 315 72 q 563 105 506 72 q 650 190 621 138 l 731 143 q 606 26 685 69 q 425 -17 526 -17 q 158 86 261 -17 q 56 347 56 189 q 157 607 56 503 q 418 711 258 711 m 418 622 q 237 558 310 622 q 150 390 164 493 l 668 390 q 583 561 654 500 q 418 622 513 622 z "},"Ğ":{"ha":1096,"x_min":56,"x_max":1040,"o":"m 544 1058 q 403 1106 456 1058 q 350 1239 350 1154 l 439 1239 q 544 1139 439 1139 q 650 1239 650 1139 l 739 1239 q 687 1106 739 1153 q 544 1058 635 1058 m 1040 463 l 1040 413 q 911 108 1040 232 q 565 -17 782 -17 q 200 129 344 -17 q 56 486 56 275 q 200 843 56 697 q 565 989 344 989 q 813 924 700 989 q 986 750 925 858 l 900 700 q 764 842 854 789 q 565 894 674 894 q 268 776 383 894 q 153 486 153 658 q 268 196 153 314 q 565 78 383 78 q 828 160 729 78 q 940 371 926 243 l 554 371 l 554 463 l 1040 463 z "},"ğ":{"ha":883,"x_min":56,"x_max":786,"o":"m 428 781 q 286 828 339 781 q 233 961 233 876 l 322 961 q 428 861 322 861 q 533 961 533 861 l 622 961 q 570 828 622 875 q 428 781 518 781 m 694 694 l 786 694 l 786 28 q 683 -208 786 -122 q 438 -294 581 -294 q 108 -125 193 -294 l 189 -79 q 438 -206 251 -206 q 626 -142 557 -206 q 694 28 694 -79 l 694 136 q 414 -17 599 -17 q 160 89 265 -17 q 56 347 56 194 q 160 606 56 500 q 414 711 265 711 q 694 558 599 711 l 694 694 m 226 152 q 266 112 226 152 q 421 72 306 72 q 615 152 536 72 q 694 347 694 232 q 615 542 694 463 q 421 622 536 622 q 226 542 306 622 q 147 347 147 463 q 226 152 147 232 z "},"Ġ":{"ha":1096,"x_min":56,"x_max":1040,"o":"m 599 1092 q 588 1081 599 1092 q 544 1069 576 1069 q 490 1092 513 1069 q 468 1146 468 1114 q 490 1200 468 1178 q 544 1222 513 1222 q 599 1200 576 1222 q 621 1146 621 1178 q 599 1092 621 1114 m 1040 463 l 1040 413 q 911 108 1040 232 q 565 -17 782 -17 q 200 129 344 -17 q 56 486 56 275 q 200 843 56 697 q 565 989 344 989 q 813 924 700 989 q 986 750 925 858 l 900 700 q 764 842 854 789 q 565 894 674 894 q 268 776 383 894 q 153 486 153 658 q 268 196 153 314 q 565 78 383 78 q 828 160 729 78 q 940 371 926 243 l 554 371 l 554 463 l 1040 463 z "},"ġ":{"ha":883,"x_min":56,"x_max":786,"o":"m 482 814 q 471 803 482 814 q 428 792 460 792 q 374 814 396 792 q 351 868 351 836 q 374 922 351 900 q 428 944 396 944 q 482 922 460 944 q 504 868 504 900 q 482 814 504 836 m 694 694 l 786 694 l 786 28 q 683 -208 786 -122 q 438 -294 581 -294 q 108 -125 193 -294 l 189 -79 q 438 -206 251 -206 q 626 -142 557 -206 q 694 28 694 -79 l 694 136 q 414 -17 599 -17 q 160 89 265 -17 q 56 347 56 194 q 160 606 56 500 q 414 711 265 711 q 694 558 599 711 l 694 694 m 226 152 q 266 112 226 152 q 421 72 306 72 q 615 152 536 72 q 694 347 694 232 q 615 542 694 463 q 421 622 536 622 q 226 542 306 622 q 147 347 147 463 q 226 152 147 232 z "},"Ģ":{"ha":1096,"x_min":56,"x_max":1040,"o":"m 1040 463 l 1040 413 q 911 108 1040 232 q 565 -17 782 -17 q 200 129 344 -17 q 56 486 56 275 q 200 843 56 697 q 565 989 344 989 q 813 924 700 989 q 986 750 925 858 l 900 700 q 764 842 854 789 q 565 894 674 894 q 268 776 383 894 q 153 486 153 658 q 268 196 153 314 q 565 78 383 78 q 828 160 729 78 q 940 371 926 243 l 554 371 l 554 463 l 1040 463 m 535 -333 l 549 -97 l 640 -97 l 599 -333 l 535 -333 z "},"ģ":{"ha":883,"x_min":56,"x_max":786,"o":"m 479 1056 l 465 819 l 374 819 l 415 1056 l 479 1056 m 694 694 l 786 694 l 786 28 q 683 -208 786 -122 q 438 -294 581 -294 q 108 -125 193 -294 l 189 -79 q 438 -206 251 -206 q 626 -142 557 -206 q 694 28 694 -79 l 694 136 q 414 -17 599 -17 q 160 89 265 -17 q 56 347 56 194 q 160 606 56 500 q 414 711 265 711 q 694 558 599 711 l 694 694 m 226 152 q 266 112 226 152 q 421 72 306 72 q 615 152 536 72 q 694 347 694 232 q 615 542 694 463 q 421 622 536 622 q 226 542 306 622 q 147 347 147 463 q 226 152 147 232 z "},"Ħ":{"ha":1014,"x_min":56,"x_max":958,"o":"m 958 789 l 958 711 l 868 711 l 868 0 l 771 0 l 771 454 l 243 454 l 243 0 l 146 0 l 146 711 l 56 711 l 56 789 l 146 789 l 146 972 l 243 972 l 243 789 l 771 789 l 771 972 l 868 972 l 868 789 l 958 789 m 771 546 l 771 711 l 243 711 l 243 546 l 771 546 z "},"ħ":{"ha":789,"x_min":14,"x_max":708,"o":"m 436 711 q 635 634 563 711 q 708 426 708 557 l 708 0 l 617 0 l 617 426 q 567 571 617 519 q 428 622 518 622 q 265 559 328 622 q 203 364 203 496 l 203 0 l 111 0 l 111 800 l 14 800 l 14 875 l 111 875 l 111 972 l 203 972 l 203 875 l 403 875 l 403 800 l 203 800 l 203 586 q 436 711 281 711 z "},"Ī":{"ha":319,"x_min":-21,"x_max":340,"o":"m -21 1083 l -21 1164 l 340 1164 l 340 1083 l -21 1083 m 111 972 l 208 972 l 208 0 l 111 0 l 111 972 z "},"ī":{"ha":286,"x_min":4,"x_max":282,"o":"m 4 806 l 4 886 l 282 886 l 282 806 l 4 806 m 97 0 l 97 694 l 189 694 l 189 0 l 97 0 z "},"Į":{"ha":319,"x_min":56,"x_max":251,"o":"m 193 -215 q 251 -203 222 -215 l 251 -279 q 169 -294 214 -294 q 85 -265 115 -294 q 56 -189 56 -236 q 111 1 56 -104 l 111 972 l 208 972 l 208 0 q 175 -62 185 -43 q 156 -112 165 -81 q 146 -172 146 -144 q 193 -215 146 -215 z "},"į":{"ha":286,"x_min":42,"x_max":238,"o":"m 190 861 q 181 851 190 861 q 143 842 171 842 q 96 861 115 842 q 76 908 76 881 q 96 956 76 936 q 143 975 115 975 q 190 956 171 975 q 210 908 210 936 q 190 861 210 881 m 179 -215 q 238 -203 208 -215 l 238 -279 q 156 -294 200 -294 q 72 -259 103 -294 q 42 -175 42 -224 q 97 7 42 -97 l 97 694 l 189 694 l 189 0 q 132 -158 132 -92 q 145 -199 132 -182 q 179 -215 158 -215 z "},"İ":{"ha":319,"x_min":83,"x_max":236,"o":"m 214 1092 q 203 1081 214 1092 q 160 1069 192 1069 q 106 1092 128 1069 q 83 1146 83 1114 q 106 1200 83 1178 q 160 1222 128 1222 q 214 1200 192 1222 q 236 1146 236 1178 q 214 1092 236 1114 m 111 972 l 208 972 l 208 0 l 111 0 l 111 972 z "},"ı":{"ha":286,"x_min":97,"x_max":189,"o":"m 97 0 l 97 694 l 189 694 l 189 0 l 97 0 z "},"Ķ":{"ha":806,"x_min":111,"x_max":792,"o":"m 311 500 l 792 0 l 664 0 l 208 471 l 208 0 l 111 0 l 111 972 l 208 972 l 208 528 l 650 972 l 778 972 l 311 500 m 368 -333 l 382 -97 l 474 -97 l 432 -333 l 368 -333 z "},"ķ":{"ha":686,"x_min":97,"x_max":658,"o":"m 286 361 l 658 0 l 536 0 l 189 335 l 189 0 l 97 0 l 97 972 l 189 972 l 189 388 l 519 694 l 644 694 l 286 361 m 310 -333 l 324 -97 l 415 -97 l 374 -333 l 310 -333 z "},"Ĺ":{"ha":681,"x_min":111,"x_max":653,"o":"m 336 1250 l 203 1069 l 114 1069 l 225 1250 l 336 1250 m 208 92 l 653 92 l 653 0 l 111 0 l 111 972 l 208 972 l 208 92 z "},"ĺ":{"ha":286,"x_min":97,"x_max":319,"o":"m 97 1069 l 186 1069 l 319 1250 l 208 1250 l 97 1069 m 97 0 l 97 1014 l 189 1014 l 189 0 l 97 0 z "},"Ļ":{"ha":681,"x_min":111,"x_max":653,"o":"m 208 92 l 653 92 l 653 0 l 111 0 l 111 972 l 208 972 l 208 92 m 338 -333 l 351 -97 l 443 -97 l 401 -333 l 338 -333 z "},"ļ":{"ha":286,"x_min":85,"x_max":190,"o":"m 97 0 l 97 1014 l 189 1014 l 189 0 l 97 0 m 149 -333 l 190 -97 l 99 -97 l 85 -333 l 149 -333 z "},"Ľ":{"ha":681,"x_min":111,"x_max":653,"o":"m 208 92 l 653 92 l 653 0 l 111 0 l 111 972 l 208 972 l 208 92 m 461 972 l 419 736 l 356 736 l 369 972 l 461 972 z "},"ľ":{"ha":378,"x_min":97,"x_max":392,"o":"m 97 0 l 97 1014 l 189 1014 l 189 0 l 97 0 m 350 778 l 392 1014 l 300 1014 l 286 778 l 350 778 z "},"Ł":{"ha":708,"x_min":56,"x_max":681,"o":"m 236 92 l 681 92 l 681 0 l 139 0 l 139 339 l 56 290 l 56 378 l 139 426 l 139 972 l 236 972 l 236 485 l 472 624 l 472 536 l 236 397 l 236 92 z "},"ł":{"ha":333,"x_min":28,"x_max":306,"o":"m 306 639 l 306 551 l 213 488 l 213 0 l 121 0 l 121 425 l 28 361 l 28 449 l 121 513 l 121 1014 l 213 1014 l 213 575 l 306 639 z "},"Ń":{"ha":944,"x_min":111,"x_max":833,"o":"m 403 1069 l 492 1069 l 625 1250 l 514 1250 l 403 1069 m 736 972 l 833 972 l 833 0 l 750 0 l 208 792 l 208 0 l 111 0 l 111 972 l 194 972 l 736 181 l 736 972 z "},"ń":{"ha":775,"x_min":97,"x_max":694,"o":"m 556 972 l 422 792 l 333 792 l 444 972 l 556 972 m 422 711 q 622 634 549 711 q 694 426 694 557 l 694 0 l 603 0 l 603 426 q 553 571 603 519 q 414 622 504 622 q 251 559 314 622 q 189 364 189 496 l 189 0 l 97 0 l 97 694 l 189 694 l 189 586 q 422 711 267 711 z "},"Ņ":{"ha":944,"x_min":111,"x_max":833,"o":"m 736 972 l 833 972 l 833 0 l 750 0 l 208 792 l 208 0 l 111 0 l 111 972 l 194 972 l 736 181 l 736 972 m 478 -333 l 519 -97 l 428 -97 l 414 -333 l 478 -333 z "},"ņ":{"ha":775,"x_min":97,"x_max":694,"o":"m 422 711 q 622 634 549 711 q 694 426 694 557 l 694 0 l 603 0 l 603 426 q 553 571 603 519 q 414 622 504 622 q 251 559 314 622 q 189 364 189 496 l 189 0 l 97 0 l 97 694 l 189 694 l 189 586 q 422 711 267 711 m 349 -333 l 363 -97 l 454 -97 l 413 -333 l 349 -333 z "},"Ň":{"ha":944,"x_min":111,"x_max":833,"o":"m 418 1069 l 271 1250 l 375 1250 l 472 1129 l 569 1250 l 674 1250 l 526 1069 l 418 1069 m 736 972 l 833 972 l 833 0 l 750 0 l 208 792 l 208 0 l 111 0 l 111 972 l 194 972 l 736 181 l 736 972 z "},"ň":{"ha":775,"x_min":97,"x_max":694,"o":"m 349 792 l 201 972 l 306 972 l 403 851 l 500 972 l 604 972 l 457 792 l 349 792 m 422 711 q 622 634 549 711 q 694 426 694 557 l 694 0 l 603 0 l 603 426 q 553 571 603 519 q 414 622 504 622 q 251 559 314 622 q 189 364 189 496 l 189 0 l 97 0 l 97 694 l 189 694 l 189 586 q 422 711 267 711 z "},"Ŋ":{"ha":944,"x_min":111,"x_max":833,"o":"m 736 972 l 833 972 l 833 0 q 542 -278 833 -278 l 542 -183 q 687 -146 638 -183 q 736 0 736 -108 l 736 21 l 208 792 l 208 0 l 111 0 l 111 972 l 194 972 l 736 181 l 736 972 z "},"ŋ":{"ha":775,"x_min":97,"x_max":694,"o":"m 422 711 q 622 634 549 711 q 694 426 694 557 l 694 -56 q 629 -243 694 -181 q 444 -294 564 -306 l 444 -206 q 565 -179 526 -214 q 603 -56 603 -144 l 603 426 q 553 571 603 519 q 414 622 504 622 q 251 559 314 622 q 189 364 189 496 l 189 0 l 97 0 l 97 694 l 189 694 l 189 586 q 422 711 267 711 z "},"Ō":{"ha":1117,"x_min":56,"x_max":1061,"o":"m 378 1083 l 378 1164 l 739 1164 l 739 1083 l 378 1083 m 915 130 q 842 57 915 130 q 558 -17 769 -17 q 201 130 347 -17 q 56 486 56 276 q 201 842 56 696 q 558 989 347 989 q 915 842 769 989 q 1061 486 1061 696 q 915 130 1061 276 m 269 197 q 328 137 269 197 q 558 78 386 78 q 847 197 731 78 q 964 486 964 315 q 847 776 964 657 q 558 894 731 894 q 269 776 386 894 q 153 486 153 657 q 269 197 153 315 z "},"ō":{"ha":842,"x_min":56,"x_max":786,"o":"m 240 806 l 240 886 l 601 886 l 601 806 l 240 806 m 680 88 q 627 36 680 88 q 421 -17 574 -17 q 162 88 268 -17 q 56 347 56 193 q 162 606 56 501 q 421 711 268 711 q 680 606 574 711 q 786 347 786 501 q 680 88 786 193 m 226 152 q 266 112 226 152 q 421 72 306 72 q 615 152 536 72 q 694 347 694 232 q 615 542 694 463 q 421 622 536 622 q 226 542 306 622 q 147 347 147 463 q 226 152 147 232 z "},"Ő":{"ha":1117,"x_min":56,"x_max":1061,"o":"m 378 1069 l 472 1069 l 578 1250 l 475 1250 l 378 1069 m 576 1069 l 671 1069 l 790 1250 l 688 1250 l 576 1069 m 915 130 q 842 57 915 130 q 558 -17 769 -17 q 201 130 347 -17 q 56 486 56 276 q 201 842 56 696 q 558 989 347 989 q 915 842 769 989 q 1061 486 1061 696 q 915 130 1061 276 m 269 197 q 328 137 269 197 q 558 78 386 78 q 847 197 731 78 q 964 486 964 315 q 847 776 964 657 q 558 894 731 894 q 269 776 386 894 q 153 486 153 657 q 269 197 153 315 z "},"ő":{"ha":842,"x_min":56,"x_max":786,"o":"m 240 792 l 335 792 l 440 972 l 338 972 l 240 792 m 439 792 l 533 792 l 653 972 l 550 972 l 439 792 m 680 88 q 627 36 680 88 q 421 -17 574 -17 q 162 88 268 -17 q 56 347 56 193 q 162 606 56 501 q 421 711 268 711 q 680 606 574 711 q 786 347 786 501 q 680 88 786 193 m 226 152 q 266 112 226 152 q 421 72 306 72 q 615 152 536 72 q 694 347 694 232 q 615 542 694 463 q 421 622 536 622 q 226 542 306 622 q 147 347 147 463 q 226 152 147 232 z "},"Œ":{"ha":1271,"x_min":56,"x_max":1215,"o":"m 771 92 l 1215 92 l 1215 0 l 674 0 q 544 -17 614 -17 q 195 129 335 -17 q 56 486 56 275 q 195 843 56 697 q 544 989 335 989 q 674 972 614 989 l 1208 972 l 1208 881 l 771 881 l 771 536 l 1188 536 l 1188 444 l 771 444 l 771 92 m 674 99 l 674 874 q 544 894 614 894 q 263 776 374 894 q 153 486 153 658 q 263 196 153 314 q 544 78 374 78 q 674 99 614 78 z "},"œ":{"ha":1450,"x_min":56,"x_max":1401,"o":"m 1060 711 q 1306 602 1211 711 q 1401 344 1401 493 q 1399 301 1401 329 l 789 301 q 878 134 803 196 q 1065 72 954 72 q 1202 105 1144 72 q 1289 190 1260 138 l 1369 143 q 1245 26 1324 69 q 1067 -17 1167 -17 q 865 38 951 -17 q 739 188 779 93 q 613 39 697 94 q 421 -17 529 -17 q 160 88 264 -17 q 56 347 56 192 q 160 607 56 503 q 421 711 264 711 q 613 656 529 711 q 740 506 697 600 q 863 656 779 600 q 1060 711 947 711 m 421 72 q 615 152 536 72 q 694 347 694 232 q 615 542 694 463 q 421 622 536 622 q 224 543 300 622 q 147 347 147 464 q 224 151 147 231 q 421 72 300 72 m 1057 622 q 876 558 949 622 q 789 390 803 493 l 1307 390 q 1222 561 1293 500 q 1057 622 1151 622 z "},"Ŕ":{"ha":847,"x_min":111,"x_max":819,"o":"m 583 1250 l 450 1069 l 361 1069 l 472 1250 l 583 1250 m 708 0 l 481 389 l 208 389 l 208 0 l 111 0 l 111 972 l 500 972 q 706 887 621 972 q 792 681 792 801 q 733 505 792 582 q 582 401 674 428 l 819 0 l 708 0 m 208 881 l 208 481 l 500 481 q 638 540 581 481 q 694 681 694 599 q 638 822 694 764 q 500 881 581 881 l 208 881 z "},"ŕ":{"ha":436,"x_min":97,"x_max":408,"o":"m 406 972 l 272 792 l 183 792 l 294 972 l 406 972 m 189 579 q 408 706 253 706 l 408 617 q 251 561 314 617 q 189 386 189 506 l 189 0 l 97 0 l 97 694 l 189 694 l 189 579 z "},"Ŗ":{"ha":847,"x_min":111,"x_max":819,"o":"m 582 401 l 819 0 l 708 0 l 481 389 l 208 389 l 208 0 l 111 0 l 111 972 l 500 972 q 706 887 621 972 q 792 681 792 801 q 733 505 792 582 q 582 401 674 428 m 208 881 l 208 481 l 500 481 q 638 540 581 481 q 694 681 694 599 q 638 822 694 764 q 500 881 581 881 l 208 881 m 400 -333 l 414 -97 l 506 -97 l 464 -333 l 400 -333 z "},"ŗ":{"ha":436,"x_min":85,"x_max":408,"o":"m 189 579 q 408 706 253 706 l 408 617 q 251 561 314 617 q 189 386 189 506 l 189 0 l 97 0 l 97 694 l 189 694 l 189 579 m 85 -333 l 99 -97 l 190 -97 l 149 -333 l 85 -333 z "},"Ř":{"ha":847,"x_min":111,"x_max":819,"o":"m 376 1069 l 229 1250 l 333 1250 l 431 1129 l 528 1250 l 632 1250 l 485 1069 l 376 1069 m 708 0 l 481 389 l 208 389 l 208 0 l 111 0 l 111 972 l 500 972 q 706 887 621 972 q 792 681 792 801 q 733 505 792 582 q 582 401 674 428 l 819 0 l 708 0 m 208 881 l 208 481 l 500 481 q 638 540 581 481 q 694 681 694 599 q 638 822 694 764 q 500 881 581 881 l 208 881 z "},"ř":{"ha":436,"x_min":51,"x_max":454,"o":"m 199 792 l 51 972 l 156 972 l 253 851 l 350 972 l 454 972 l 307 792 l 199 792 m 189 579 q 408 706 253 706 l 408 617 q 251 561 314 617 q 189 386 189 506 l 189 0 l 97 0 l 97 694 l 189 694 l 189 579 z "},"Ś":{"ha":800,"x_min":56,"x_max":744,"o":"m 322 1069 l 411 1069 l 544 1250 l 433 1250 l 322 1069 m 417 -17 q 188 47 283 -17 q 56 221 93 110 l 139 269 q 236 128 165 179 q 418 78 307 78 q 587 126 526 78 q 647 253 647 174 q 592 368 647 329 q 408 449 536 407 q 208 529 257 499 q 97 722 97 596 q 183 917 97 846 q 396 989 269 989 q 593 930 510 989 q 717 779 676 871 l 635 733 q 396 894 568 894 q 250 850 306 894 q 194 726 194 806 q 244 618 194 654 q 410 544 294 582 q 485 519 463 526 q 552 494 508 511 q 617 463 596 476 q 667 427 638 450 q 710 381 697 404 q 734 326 724 358 q 744 256 744 293 q 654 58 744 132 q 417 -17 564 -17 z "},"ś":{"ha":631,"x_min":56,"x_max":575,"o":"m 471 972 l 338 792 l 249 792 l 360 972 l 471 972 m 169 513 q 211 438 169 465 q 313 394 253 410 q 432 360 372 379 q 533 298 492 342 q 575 183 575 254 q 505 39 575 94 q 324 -17 435 -17 q 153 28 224 -17 q 56 143 83 72 l 133 189 q 203 103 153 135 q 324 72 254 72 q 438 99 392 72 q 483 183 483 126 q 442 258 483 231 q 340 301 400 286 q 221 335 281 317 q 119 398 161 354 q 78 513 78 442 q 145 654 78 597 q 315 711 213 711 q 464 673 400 711 q 558 569 528 635 l 482 525 q 315 622 442 622 q 213 594 256 622 q 169 513 169 565 z "},"Ş":{"ha":800,"x_min":56,"x_max":744,"o":"m 744 256 q 661 63 744 136 q 440 -17 578 -10 l 440 -62 q 535 -103 500 -74 q 569 -175 569 -132 q 285 -300 569 -317 l 285 -225 q 489 -175 489 -242 q 360 -118 489 -122 l 360 -14 q 168 61 247 0 q 56 221 89 122 l 139 269 q 236 128 165 179 q 418 78 307 78 q 587 126 526 78 q 647 253 647 174 q 592 368 647 329 q 408 449 536 407 q 208 529 257 499 q 97 722 97 596 q 183 917 97 846 q 396 989 269 989 q 593 930 510 989 q 717 779 676 871 l 635 733 q 396 894 568 894 q 250 850 306 894 q 194 726 194 806 q 244 618 194 654 q 410 544 294 582 q 485 519 463 526 q 552 494 508 511 q 617 463 596 476 q 667 427 638 450 q 710 381 697 404 q 734 326 724 358 q 744 256 744 293 z "},"ş":{"ha":631,"x_min":56,"x_max":575,"o":"m 575 183 q 515 49 575 103 q 358 -15 456 -6 l 358 -62 q 453 -103 418 -74 q 488 -175 488 -132 q 203 -300 488 -317 l 203 -225 q 407 -175 407 -242 q 278 -118 407 -122 l 278 -14 q 137 39 194 -4 q 56 143 79 82 l 133 189 q 203 103 153 135 q 324 72 254 72 q 438 99 392 72 q 483 183 483 126 q 442 258 483 231 q 340 301 400 286 q 221 335 281 317 q 119 398 161 354 q 78 513 78 442 q 145 654 78 597 q 315 711 213 711 q 464 673 400 711 q 558 569 528 635 l 482 525 q 315 622 442 622 q 213 594 256 622 q 169 513 169 565 q 211 438 169 465 q 313 394 253 410 q 432 360 372 379 q 533 298 492 342 q 575 183 575 254 z "},"Š":{"ha":800,"x_min":56,"x_max":744,"o":"m 338 1069 l 190 1250 l 294 1250 l 392 1129 l 489 1250 l 593 1250 l 446 1069 l 338 1069 m 410 544 q 485 519 463 526 q 552 494 508 511 q 617 463 596 476 q 667 427 638 450 q 710 381 697 404 q 734 326 724 358 q 744 256 744 293 q 654 58 744 132 q 417 -17 564 -17 q 188 47 283 -17 q 56 221 93 110 l 139 269 q 236 128 165 179 q 418 78 307 78 q 587 126 526 78 q 647 253 647 174 q 592 368 647 329 q 408 449 536 407 q 208 529 257 499 q 97 722 97 596 q 183 917 97 846 q 396 989 269 989 q 593 930 510 989 q 717 779 676 871 l 635 733 q 396 894 568 894 q 250 850 306 894 q 194 726 194 806 q 244 618 194 654 q 410 544 294 582 z "},"š":{"ha":631,"x_min":56,"x_max":575,"o":"m 264 792 l 117 972 l 221 972 l 318 851 l 415 972 l 519 972 l 372 792 l 264 792 m 169 513 q 211 438 169 465 q 313 394 253 410 q 432 360 372 379 q 533 298 492 342 q 575 183 575 254 q 505 39 575 94 q 324 -17 435 -17 q 153 28 224 -17 q 56 143 83 72 l 133 189 q 203 103 153 135 q 324 72 254 72 q 438 99 392 72 q 483 183 483 126 q 442 258 483 231 q 340 301 400 286 q 221 335 281 317 q 119 398 161 354 q 78 513 78 442 q 145 654 78 597 q 315 711 213 711 q 464 673 400 711 q 558 569 528 635 l 482 525 q 315 622 442 622 q 213 594 256 622 q 169 513 169 565 z "},"Ţ":{"ha":750,"x_min":28,"x_max":722,"o":"m 722 972 l 722 881 l 424 881 l 424 0 l 326 0 l 326 881 l 28 881 l 28 972 l 722 972 m 317 -333 l 331 -97 l 422 -97 l 381 -333 l 317 -333 z "},"ţ":{"ha":521,"x_min":28,"x_max":465,"o":"m 465 606 l 265 606 l 265 185 q 288 103 265 128 q 354 78 310 79 q 465 81 399 78 l 465 0 q 247 21 319 -22 q 174 185 174 64 l 174 606 l 28 606 l 28 694 l 174 694 l 174 861 l 265 889 l 265 694 l 465 694 l 465 606 m 269 -333 l 283 -97 l 375 -97 l 333 -333 l 269 -333 z "},"Ť":{"ha":750,"x_min":28,"x_max":722,"o":"m 321 1069 l 174 1250 l 278 1250 l 375 1129 l 472 1250 l 576 1250 l 429 1069 l 321 1069 m 722 972 l 722 881 l 424 881 l 424 0 l 326 0 l 326 881 l 28 881 l 28 972 l 722 972 z "},"ť":{"ha":521,"x_min":28,"x_max":465,"o":"m 447 993 l 406 771 l 342 771 l 356 993 l 447 993 m 465 606 l 265 606 l 265 185 q 288 103 265 128 q 354 78 310 79 q 465 81 399 78 l 465 0 q 247 21 319 -22 q 174 185 174 64 l 174 606 l 28 606 l 28 694 l 174 694 l 174 861 l 265 889 l 265 694 l 465 694 l 465 606 z "},"Ŧ":{"ha":750,"x_min":28,"x_max":722,"o":"m 722 881 l 424 881 l 424 531 l 625 531 l 625 442 l 424 442 l 424 0 l 326 0 l 326 442 l 125 442 l 125 531 l 326 531 l 326 881 l 28 881 l 28 972 l 722 972 l 722 881 z "},"ŧ":{"ha":521,"x_min":28,"x_max":465,"o":"m 465 606 l 265 606 l 265 399 l 400 399 l 400 324 l 265 324 l 265 185 q 288 103 265 128 q 354 78 310 79 q 465 81 399 78 l 465 0 q 247 21 319 -22 q 174 185 174 64 l 174 324 l 81 324 l 81 399 l 174 399 l 174 606 l 28 606 l 28 694 l 174 694 l 174 861 l 265 889 l 265 694 l 465 694 l 465 606 z "},"Ū":{"ha":917,"x_min":97,"x_max":819,"o":"m 278 1083 l 278 1164 l 639 1164 l 639 1083 l 278 1083 m 719 78 q 669 31 719 78 q 458 -17 619 -17 q 197 78 297 -17 q 97 331 97 172 l 97 972 l 194 972 l 194 331 q 264 146 194 214 q 458 78 333 78 q 653 146 583 78 q 722 331 722 214 l 722 972 l 819 972 l 819 331 q 719 78 819 172 z "},"ū":{"ha":775,"x_min":81,"x_max":678,"o":"m 557 886 l 557 806 l 196 806 l 196 886 l 557 886 m 586 694 l 678 694 l 678 0 l 586 0 l 586 108 q 353 -17 508 -17 q 153 60 226 -17 q 81 268 81 138 l 81 694 l 172 694 l 172 268 q 222 124 172 175 q 361 72 271 72 q 524 135 461 72 q 586 331 586 199 l 586 694 z "},"Ů":{"ha":917,"x_min":97,"x_max":819,"o":"m 565 1040 q 544 1020 565 1040 q 458 1000 524 1000 q 352 1040 393 1000 q 311 1139 311 1079 q 352 1238 311 1199 q 458 1278 393 1278 q 565 1238 524 1278 q 606 1139 606 1199 q 565 1040 606 1079 m 458 1071 q 512 1090 493 1071 q 531 1139 531 1108 q 512 1188 531 1169 q 458 1207 493 1207 q 406 1188 425 1207 q 388 1139 388 1169 q 406 1090 388 1108 q 458 1071 425 1071 m 719 78 q 669 31 719 78 q 458 -17 619 -17 q 197 78 297 -17 q 97 331 97 172 l 97 972 l 194 972 l 194 331 q 264 146 194 214 q 458 78 333 78 q 653 146 583 78 q 722 331 722 214 l 722 972 l 819 972 l 819 331 q 719 78 819 172 z "},"ů":{"ha":775,"x_min":81,"x_max":678,"o":"m 483 803 q 462 784 483 803 q 376 764 442 764 q 270 803 311 764 q 229 903 229 843 q 270 1002 229 963 q 376 1042 311 1042 q 483 1002 442 1042 q 524 903 524 963 q 483 803 524 843 m 376 971 q 324 952 343 971 q 306 903 306 933 q 324 853 306 872 q 376 835 343 835 q 430 853 411 835 q 449 903 449 872 q 430 952 449 933 q 376 971 411 971 m 586 694 l 678 694 l 678 0 l 586 0 l 586 108 q 353 -17 508 -17 q 153 60 226 -17 q 81 268 81 138 l 81 694 l 172 694 l 172 268 q 222 124 172 175 q 361 72 271 72 q 524 135 461 72 q 586 331 586 199 l 586 694 z "},"Ű":{"ha":917,"x_min":97,"x_max":819,"o":"m 278 1069 l 372 1069 l 478 1250 l 375 1250 l 278 1069 m 476 1069 l 571 1069 l 690 1250 l 588 1250 l 476 1069 m 719 78 q 669 31 719 78 q 458 -17 619 -17 q 197 78 297 -17 q 97 331 97 172 l 97 972 l 194 972 l 194 331 q 264 146 194 214 q 458 78 333 78 q 653 146 583 78 q 722 331 722 214 l 722 972 l 819 972 l 819 331 q 719 78 819 172 z "},"ű":{"ha":775,"x_min":81,"x_max":678,"o":"m 396 972 l 290 792 l 196 792 l 293 972 l 396 972 m 489 792 l 394 792 l 506 972 l 608 972 l 489 792 m 586 694 l 678 694 l 678 0 l 586 0 l 586 108 q 353 -17 508 -17 q 153 60 226 -17 q 81 268 81 138 l 81 694 l 172 694 l 172 268 q 222 124 172 175 q 361 72 271 72 q 524 135 461 72 q 586 331 586 199 l 586 694 z "},"Ų":{"ha":917,"x_min":97,"x_max":819,"o":"m 722 972 l 819 972 l 819 331 q 692 56 819 150 q 565 -78 601 -29 q 528 -172 528 -128 q 575 -215 528 -215 q 633 -203 604 -215 l 633 -279 q 551 -294 596 -294 q 467 -265 497 -294 q 438 -189 438 -236 q 526 -12 438 -104 q 458 -17 493 -17 q 197 78 297 -17 q 97 331 97 172 l 97 972 l 194 972 l 194 331 q 264 146 194 214 q 458 78 333 78 q 653 146 583 78 q 722 331 722 214 l 722 972 z "},"ų":{"ha":775,"x_min":81,"x_max":678,"o":"m 678 0 q 601 -90 631 -43 q 572 -172 572 -137 q 619 -215 572 -215 q 678 -203 649 -215 l 678 -279 q 596 -294 640 -294 q 512 -265 542 -294 q 482 -189 482 -236 q 586 15 482 -106 l 586 108 q 353 -17 508 -17 q 153 60 226 -17 q 81 268 81 138 l 81 694 l 172 694 l 172 268 q 222 124 172 175 q 361 72 271 72 q 524 135 461 72 q 586 331 586 199 l 586 694 l 678 694 l 678 0 z "},"Ŵ":{"ha":1389,"x_min":42,"x_max":1347,"o":"m 694 1190 l 597 1069 l 493 1069 l 640 1250 l 749 1250 l 896 1069 l 792 1069 l 694 1190 m 1244 972 l 1347 972 l 1065 0 l 949 0 l 694 844 l 440 0 l 324 0 l 42 972 l 144 972 l 385 132 l 638 972 l 751 972 l 1004 132 l 1244 972 z "},"ŵ":{"ha":1069,"x_min":42,"x_max":1028,"o":"m 535 913 l 438 792 l 333 792 l 481 972 l 589 972 l 736 792 l 632 792 l 535 913 m 933 694 l 1028 694 l 814 0 l 714 0 l 535 560 l 356 0 l 256 0 l 42 694 l 136 694 l 307 118 l 489 694 l 581 694 l 763 118 l 933 694 z "},"Ŷ":{"ha":826,"x_min":14,"x_max":813,"o":"m 408 1190 l 311 1069 l 207 1069 l 354 1250 l 463 1250 l 610 1069 l 506 1069 l 408 1190 m 813 972 l 461 399 l 461 0 l 364 0 l 364 401 l 14 972 l 124 972 l 414 496 l 703 972 l 813 972 z "},"ŷ":{"ha":708,"x_min":14,"x_max":694,"o":"m 351 913 l 254 792 l 150 792 l 297 972 l 406 972 l 553 792 l 449 792 l 351 913 m 597 694 l 694 694 l 397 -64 q 283 -226 357 -167 q 117 -278 208 -285 l 117 -192 q 307 -47 242 -206 l 325 -4 l 14 694 l 111 694 l 372 113 l 597 694 z "},"Ÿ":{"ha":826,"x_min":14,"x_max":813,"o":"m 321 1094 q 312 1085 321 1094 q 276 1076 303 1076 q 232 1094 250 1076 q 214 1139 214 1113 q 232 1183 214 1165 q 276 1201 250 1201 q 321 1183 303 1201 q 339 1139 339 1165 q 321 1094 339 1113 m 585 1094 q 576 1085 585 1094 q 540 1076 567 1076 q 496 1094 514 1076 q 478 1139 478 1113 q 496 1183 478 1165 q 540 1201 514 1201 q 585 1183 567 1201 q 603 1139 603 1165 q 585 1094 603 1113 m 813 972 l 461 399 l 461 0 l 364 0 l 364 401 l 14 972 l 124 972 l 414 496 l 703 972 l 813 972 z "},"Ź":{"ha":722,"x_min":56,"x_max":681,"o":"m 521 1250 l 388 1069 l 299 1069 l 410 1250 l 521 1250 m 164 92 l 681 92 l 681 0 l 56 0 l 56 92 l 558 881 l 69 881 l 69 972 l 667 972 l 667 881 l 164 92 z "},"ź":{"ha":653,"x_min":69,"x_max":597,"o":"m 489 972 l 356 792 l 267 792 l 378 972 l 489 972 m 197 89 l 597 89 l 597 0 l 69 0 l 69 61 l 456 606 l 83 606 l 83 694 l 583 694 l 583 633 l 197 89 z "},"Ż":{"ha":722,"x_min":56,"x_max":681,"o":"m 422 1092 q 411 1081 422 1092 q 368 1069 400 1069 q 314 1092 336 1069 q 292 1146 292 1114 q 314 1200 292 1178 q 368 1222 336 1222 q 422 1200 400 1222 q 444 1146 444 1178 q 422 1092 444 1114 m 164 92 l 681 92 l 681 0 l 56 0 l 56 92 l 558 881 l 69 881 l 69 972 l 667 972 l 667 881 l 164 92 z "},"ż":{"ha":653,"x_min":69,"x_max":597,"o":"m 390 814 q 379 803 390 814 q 336 792 368 792 q 282 814 304 792 q 260 868 260 836 q 282 922 260 900 q 336 944 304 944 q 390 922 368 944 q 413 868 413 900 q 390 814 413 836 m 197 89 l 597 89 l 597 0 l 69 0 l 69 61 l 456 606 l 83 606 l 83 694 l 583 694 l 583 633 l 197 89 z "},"Ž":{"ha":722,"x_min":56,"x_max":681,"o":"m 314 1069 l 167 1250 l 271 1250 l 368 1129 l 465 1250 l 569 1250 l 422 1069 l 314 1069 m 164 92 l 681 92 l 681 0 l 56 0 l 56 92 l 558 881 l 69 881 l 69 972 l 667 972 l 667 881 l 164 92 z "},"ž":{"ha":653,"x_min":69,"x_max":597,"o":"m 282 792 l 135 972 l 239 972 l 336 851 l 433 972 l 538 972 l 390 792 l 282 792 m 197 89 l 597 89 l 597 0 l 69 0 l 69 61 l 456 606 l 83 606 l 83 694 l 583 694 l 583 633 l 197 89 z "},"ƒ":{"ha":610,"x_min":0,"x_max":610,"o":"m 610 888 q 486 889 535 915 q 426 793 438 863 l 382 532 l 542 532 l 542 443 l 367 443 l 275 -96 q 180 -265 254 -218 q 0 -279 106 -311 l 0 -190 q 124 -192 75 -218 q 183 -96 172 -165 l 275 443 l 124 443 l 124 532 l 290 532 l 335 793 q 430 962 356 915 q 610 976 504 1008 l 610 888 z "},"Ș":{"ha":800,"x_min":56,"x_max":744,"o":"m 417 -17 q 188 47 283 -17 q 56 221 93 110 l 139 269 q 236 128 165 179 q 418 78 307 78 q 587 126 526 78 q 647 253 647 174 q 592 368 647 329 q 408 449 536 407 q 208 529 257 499 q 97 722 97 596 q 183 917 97 846 q 396 989 269 989 q 593 930 510 989 q 717 779 676 871 l 635 733 q 396 894 568 894 q 250 850 306 894 q 194 726 194 806 q 244 618 194 654 q 410 544 294 582 q 485 519 463 526 q 552 494 508 511 q 617 463 596 476 q 667 427 638 450 q 710 381 697 404 q 734 326 724 358 q 744 256 744 293 q 654 58 744 132 q 417 -17 564 -17 m 429 -333 l 471 -97 l 379 -97 l 365 -333 l 429 -333 z "},"ș":{"ha":631,"x_min":56,"x_max":575,"o":"m 169 513 q 211 438 169 465 q 313 394 253 410 q 432 360 372 379 q 533 298 492 342 q 575 183 575 254 q 505 39 575 94 q 324 -17 435 -17 q 153 28 224 -17 q 56 143 83 72 l 133 189 q 203 103 153 135 q 324 72 254 72 q 438 99 392 72 q 483 183 483 126 q 442 258 483 231 q 340 301 400 286 q 221 335 281 317 q 119 398 161 354 q 78 513 78 442 q 145 654 78 597 q 315 711 213 711 q 464 673 400 711 q 558 569 528 635 l 482 525 q 315 622 442 622 q 213 594 256 622 q 169 513 169 565 m 283 -333 l 297 -97 l 389 -97 l 347 -333 l 283 -333 z "},"Ț":{"ha":750,"x_min":28,"x_max":722,"o":"m 722 972 l 722 881 l 424 881 l 424 0 l 326 0 l 326 881 l 28 881 l 28 972 l 722 972 m 317 -333 l 331 -97 l 422 -97 l 381 -333 l 317 -333 z "},"ț":{"ha":521,"x_min":28,"x_max":465,"o":"m 465 606 l 265 606 l 265 185 q 288 103 265 128 q 354 78 310 79 q 465 81 399 78 l 465 0 q 247 21 319 -22 q 174 185 174 64 l 174 606 l 28 606 l 28 694 l 174 694 l 174 861 l 265 889 l 265 694 l 465 694 l 465 606 m 269 -333 l 283 -97 l 375 -97 l 333 -333 l 269 -333 z "},"ˆ":{"ha":458,"x_min":28,"x_max":431,"o":"m 431 792 l 326 792 l 229 913 l 132 792 l 28 792 l 175 972 l 283 972 l 431 792 z "},"ˇ":{"ha":458,"x_min":28,"x_max":431,"o":"m 326 972 l 431 972 l 283 792 l 175 792 l 28 972 l 132 972 l 229 851 l 326 972 z "},"˘":{"ha":444,"x_min":28,"x_max":417,"o":"m 222 781 q 81 828 133 781 q 28 961 28 876 l 117 961 q 222 861 117 861 q 328 961 328 861 l 417 961 q 365 828 417 875 q 222 781 313 781 z "},"˙":{"ha":208,"x_min":28,"x_max":181,"o":"m 158 814 q 147 803 158 814 q 104 792 136 792 q 50 814 72 792 q 28 868 28 836 q 50 922 28 900 q 104 944 72 944 q 158 922 136 944 q 181 868 181 900 q 158 814 181 836 z "},"˚":{"ha":350,"x_min":28,"x_max":322,"o":"m 281 803 q 261 784 281 803 q 175 764 240 764 q 69 803 110 764 q 28 903 28 843 q 69 1002 28 963 q 175 1042 110 1042 q 281 1002 240 1042 q 322 903 322 963 q 281 803 322 843 m 175 835 q 228 853 210 835 q 247 903 247 872 q 228 952 247 933 q 175 971 210 971 q 123 952 142 971 q 104 903 104 933 q 123 853 104 872 q 175 835 142 835 z "},"˛":{"ha":251,"x_min":28,"x_max":224,"o":"m 142 -294 q 58 -265 88 -294 q 28 -189 28 -236 q 128 0 28 -97 l 224 0 q 147 -90 176 -43 q 118 -172 118 -137 q 165 -215 118 -215 q 224 -203 194 -215 l 224 -279 q 142 -294 186 -294 z "},"˜":{"ha":444,"x_min":28,"x_max":417,"o":"m 28 806 q 57 928 28 888 q 131 966 86 968 q 224 926 175 964 q 264 897 249 907 q 294 882 279 888 q 318 883 310 876 q 331 908 326 890 q 336 958 336 926 l 417 958 q 388 836 417 876 q 315 798 358 796 q 222 838 271 800 q 173 872 190 861 q 139 883 156 882 q 115 865 122 885 q 108 806 108 846 l 28 806 z "},"˝":{"ha":468,"x_min":28,"x_max":440,"o":"m 28 792 l 122 792 l 228 972 l 125 972 l 28 792 m 226 792 l 321 792 l 440 972 l 338 972 l 226 792 z "},"̀":{"ha":0,"x_min":-250,"x_max":-28,"o":"m -28 792 l -139 972 l -250 972 l -117 792 l -28 792 z "},"́":{"ha":0,"x_min":-250,"x_max":-28,"o":"m -250 792 l -161 792 l -28 972 l -139 972 l -250 792 z "},"̂":{"ha":0,"x_min":-431,"x_max":-28,"o":"m -28 792 l -132 792 l -229 913 l -326 792 l -431 792 l -283 972 l -175 972 l -28 792 z "},"̃":{"ha":0,"x_min":-417,"x_max":-28,"o":"m -417 806 q -387 928 -417 888 q -314 966 -358 968 q -221 926 -269 964 q -181 897 -196 907 q -150 882 -165 888 q -126 883 -135 876 q -113 908 -118 890 q -108 958 -108 926 l -28 958 q -57 836 -28 876 q -130 798 -86 796 q -222 838 -174 800 q -272 872 -254 861 q -306 883 -289 882 q -329 865 -322 885 q -336 806 -336 846 l -417 806 z "},"̄":{"ha":0,"x_min":-389,"x_max":-28,"o":"m -389 806 l -389 886 l -28 886 l -28 806 l -389 806 z "},"̆":{"ha":0,"x_min":-417,"x_max":-28,"o":"m -222 781 q -364 828 -311 781 q -417 961 -417 876 l -328 961 q -222 861 -328 861 q -117 961 -117 861 l -28 961 q -80 828 -28 875 q -222 781 -132 781 z "},"̇":{"ha":0,"x_min":-181,"x_max":-28,"o":"m -50 814 q -61 803 -50 814 q -104 792 -72 792 q -158 814 -136 792 q -181 868 -181 836 q -158 922 -181 900 q -104 944 -136 944 q -50 922 -72 944 q -28 868 -28 900 q -50 814 -28 836 z "},"̈":{"ha":0,"x_min":-417,"x_max":-28,"o":"m -310 817 q -319 808 -310 817 q -354 799 -328 799 q -399 817 -381 799 q -417 861 -417 835 q -399 906 -417 888 q -354 924 -381 924 q -310 906 -328 924 q -292 861 -292 888 q -310 817 -292 835 m -46 817 q -55 808 -46 817 q -90 799 -64 799 q -135 817 -117 799 q -153 861 -153 835 q -135 906 -153 888 q -90 924 -117 924 q -46 906 -64 924 q -28 861 -28 888 q -46 817 -28 835 z "},"̊":{"ha":0,"x_min":-322,"x_max":-28,"o":"m -69 803 q -89 784 -69 803 q -175 764 -110 764 q -281 803 -240 764 q -322 903 -322 843 q -281 1002 -322 963 q -175 1042 -240 1042 q -69 1002 -110 1042 q -28 903 -28 963 q -69 803 -28 843 m -175 835 q -122 853 -140 835 q -103 903 -103 872 q -122 952 -103 933 q -175 971 -140 971 q -227 952 -208 971 q -246 903 -246 933 q -227 853 -246 872 q -175 835 -208 835 z "},"̋":{"ha":0,"x_min":-440,"x_max":-28,"o":"m -440 792 l -346 792 l -240 972 l -343 972 l -440 792 m -242 792 l -147 792 l -28 972 l -131 972 l -242 792 z "},"̌":{"ha":0,"x_min":-431,"x_max":-28,"o":"m -132 972 l -28 972 l -175 792 l -283 792 l -431 972 l -326 972 l -229 851 l -132 972 z "},"̒":{"ha":0,"x_min":-133,"x_max":-28,"o":"m -92 1333 l -133 1097 l -42 1097 l -28 1333 l -92 1333 z "},"̦":{"ha":0,"x_min":-133,"x_max":-28,"o":"m -69 -333 l -28 -97 l -119 -97 l -133 -333 l -69 -333 z "},"̧":{"ha":0,"x_min":-312,"x_max":-28,"o":"m -157 -62 q -62 -103 -97 -74 q -28 -175 -28 -132 q -312 -300 -28 -317 l -312 -225 q -108 -175 -108 -242 q -237 -118 -108 -122 l -237 0 l -157 0 l -157 -62 z "},"̨":{"ha":0,"x_min":-224,"x_max":-28,"o":"m -110 -294 q -194 -265 -164 -294 q -224 -189 -224 -236 q -124 0 -224 -97 l -28 0 q -104 -90 -75 -43 q -133 -172 -133 -137 q -86 -215 -133 -215 q -28 -203 -57 -215 l -28 -279 q -110 -294 -65 -294 z "},"Δ":{"ha":875,"x_min":14,"x_max":861,"o":"m 488 972 l 861 0 l 14 0 l 388 972 l 488 972 m 151 92 l 724 92 l 438 851 l 151 92 z "},"Ω":{"ha":1117,"x_min":56,"x_max":1061,"o":"m 1061 486 q 1005 258 1061 361 q 851 92 949 154 l 1044 92 l 1044 0 l 665 0 l 665 92 q 881 235 797 126 q 964 486 964 344 q 847 776 964 657 q 558 894 731 894 q 269 776 386 894 q 153 486 153 657 q 235 235 153 344 q 451 92 318 126 l 451 0 l 72 0 l 72 92 l 265 92 q 111 258 167 154 q 56 486 56 361 q 201 842 56 696 q 558 989 347 989 q 915 842 769 989 q 1061 486 1061 696 z "},"π":{"ha":903,"x_min":42,"x_max":861,"o":"m 861 694 l 861 606 l 746 606 l 746 0 l 654 0 l 654 606 l 254 606 l 254 0 l 163 0 l 163 606 l 42 606 l 42 694 l 861 694 z "},"Ё":{"ha":736,"x_min":111,"x_max":681,"o":"m 306 1094 q 297 1085 306 1094 q 261 1076 288 1076 q 217 1094 235 1076 q 199 1139 199 1113 q 217 1183 199 1165 q 261 1201 235 1201 q 306 1183 288 1201 q 324 1139 324 1165 q 306 1094 324 1113 m 569 1094 q 560 1085 569 1094 q 525 1076 551 1076 q 481 1094 499 1076 q 463 1139 463 1113 q 481 1183 463 1165 q 525 1201 499 1201 q 569 1183 551 1201 q 588 1139 588 1165 q 569 1094 588 1113 m 208 92 l 681 92 l 681 0 l 111 0 l 111 972 l 674 972 l 674 881 l 208 881 l 208 536 l 639 536 l 639 444 l 208 444 l 208 92 z "},"Ђ":{"ha":969,"x_min":28,"x_max":879,"o":"m 617 656 q 806 588 733 656 q 879 392 879 519 l 879 228 q 814 40 879 103 q 629 -11 749 -22 l 629 78 q 746 104 710 69 q 782 228 782 139 l 782 392 q 618 567 782 567 q 396 521 503 567 l 396 0 l 299 0 l 299 881 l 28 881 l 28 972 l 708 972 l 708 881 l 396 881 l 396 608 q 617 656 494 656 z "},"Ѓ":{"ha":681,"x_min":111,"x_max":653,"o":"m 536 1249 l 403 1068 l 314 1068 l 425 1249 l 536 1249 m 653 972 l 653 881 l 208 881 l 208 0 l 111 0 l 111 972 l 653 972 z "},"Є":{"ha":1028,"x_min":56,"x_max":979,"o":"m 558 78 q 757 131 667 78 q 893 272 847 183 l 979 224 q 806 49 919 114 q 558 -17 693 -17 q 197 128 338 -17 q 56 486 56 274 q 197 844 56 699 q 558 989 338 989 q 806 924 693 989 q 979 750 918 860 l 893 700 q 757 842 847 789 q 558 894 667 894 q 281 792 390 894 q 156 532 171 689 l 688 532 l 688 440 l 156 440 q 281 181 171 283 q 558 78 390 78 z "},"Ѕ":{"ha":800,"x_min":56,"x_max":744,"o":"m 417 -17 q 188 47 283 -17 q 56 221 93 110 l 139 269 q 236 128 165 179 q 418 78 307 78 q 587 126 526 78 q 647 253 647 174 q 592 368 647 329 q 408 449 536 407 q 208 529 257 499 q 97 722 97 596 q 183 917 97 846 q 396 989 269 989 q 593 930 510 989 q 717 779 676 871 l 635 733 q 396 894 568 894 q 250 850 306 894 q 194 726 194 806 q 244 618 194 654 q 410 544 294 582 q 485 519 463 526 q 552 494 508 511 q 617 463 596 476 q 667 427 638 450 q 710 381 697 404 q 734 326 724 358 q 744 256 744 293 q 654 58 744 132 q 417 -17 564 -17 z "},"І":{"ha":319,"x_min":111,"x_max":208,"o":"m 111 972 l 208 972 l 208 0 l 111 0 l 111 972 z "},"Ї":{"ha":319,"x_min":-35,"x_max":354,"o":"m 72 1094 q 63 1085 72 1094 q 28 1076 54 1076 q -17 1094 1 1076 q -35 1139 -35 1113 q -17 1183 -35 1165 q 28 1201 1 1201 q 72 1183 54 1201 q 90 1139 90 1165 q 72 1094 90 1113 m 336 1094 q 327 1085 336 1094 q 292 1076 318 1076 q 247 1094 265 1076 q 229 1139 229 1113 q 247 1183 229 1165 q 292 1201 265 1201 q 336 1183 318 1201 q 354 1139 354 1165 q 336 1094 354 1113 m 111 972 l 208 972 l 208 0 l 111 0 l 111 972 z "},"Ј":{"ha":768,"x_min":56,"x_max":671,"o":"m 351 -17 q 170 26 250 -17 q 56 150 90 68 l 138 199 q 351 78 183 78 q 513 126 453 78 q 574 275 574 175 l 574 972 l 671 972 l 671 275 q 580 58 671 133 q 351 -17 489 -17 z "},"Љ":{"ha":1382,"x_min":21,"x_max":1326,"o":"m 1035 556 q 1242 476 1157 556 q 1326 278 1326 396 q 1242 79 1326 158 q 1035 0 1157 0 l 715 0 l 715 881 l 321 881 l 321 429 q 245 80 321 174 q 21 -1 169 -14 l 21 85 q 173 149 122 71 q 224 432 224 226 l 224 972 l 813 972 l 813 556 l 1035 556 m 1035 92 q 1173 144 1117 92 q 1229 278 1229 196 q 1173 411 1229 358 q 1035 464 1117 464 l 813 464 l 813 92 l 1035 92 z "},"Њ":{"ha":1361,"x_min":111,"x_max":1306,"o":"m 1014 556 q 1221 476 1136 556 q 1306 278 1306 396 q 1221 79 1306 158 q 1014 0 1136 0 l 694 0 l 694 464 l 208 464 l 208 0 l 111 0 l 111 972 l 208 972 l 208 556 l 694 556 l 694 972 l 792 972 l 792 556 l 1014 556 m 1014 92 q 1152 144 1096 92 q 1208 278 1208 196 q 1152 411 1208 358 q 1014 464 1096 464 l 792 464 l 792 92 l 1014 92 z "},"Ћ":{"ha":976,"x_min":28,"x_max":879,"o":"m 617 656 q 806 588 733 656 q 879 392 879 519 l 879 0 l 782 0 l 782 392 q 618 567 782 567 q 396 521 503 567 l 396 0 l 299 0 l 299 881 l 28 881 l 28 972 l 708 972 l 708 881 l 396 881 l 396 608 q 617 656 494 656 z "},"Ќ":{"ha":806,"x_min":111,"x_max":792,"o":"m 550 1249 l 417 1068 l 328 1068 l 439 1249 l 550 1249 m 792 0 l 664 0 l 208 471 l 208 0 l 111 0 l 111 972 l 208 972 l 208 528 l 650 972 l 778 972 l 311 500 l 792 0 z "},"Ў":{"ha":792,"x_min":42,"x_max":778,"o":"m 585 1163 l 585 1082 l 224 1082 l 224 1163 l 585 1163 m 678 972 l 778 972 l 454 213 q 331 44 406 96 q 144 0 256 -7 l 144 89 q 273 112 222 81 q 357 221 324 143 l 376 267 l 42 972 l 142 972 l 422 375 l 678 972 z "},"Џ":{"ha":917,"x_min":111,"x_max":806,"o":"m 708 972 l 806 972 l 806 0 l 507 0 l 507 -186 l 410 -186 l 410 0 l 111 0 l 111 972 l 208 972 l 208 92 l 708 92 l 708 972 z "},"А":{"ha":875,"x_min":14,"x_max":861,"o":"m 758 0 l 668 239 l 207 239 l 117 0 l 14 0 l 388 972 l 488 972 l 861 0 l 758 0 m 242 331 l 633 331 l 438 851 l 242 331 z "},"Б":{"ha":813,"x_min":111,"x_max":764,"o":"m 472 583 q 678 497 593 583 q 764 292 764 411 q 678 85 764 171 q 472 0 593 0 l 111 0 l 111 972 l 681 972 l 681 881 l 208 881 l 208 583 l 472 583 m 472 92 q 610 150 553 92 q 667 292 667 208 q 610 433 667 374 q 472 492 553 492 l 208 492 l 208 92 l 472 92 z "},"В":{"ha":861,"x_min":111,"x_max":806,"o":"m 650 504 q 763 412 721 474 q 806 271 806 350 q 726 79 806 158 q 535 0 647 0 l 111 0 l 111 972 l 503 972 q 688 895 611 972 q 764 711 764 818 q 650 504 764 575 m 503 881 l 208 881 l 208 542 l 503 542 q 619 591 571 542 q 667 711 667 640 q 619 831 667 781 q 503 881 571 881 m 535 92 q 658 144 607 92 q 708 271 708 196 q 658 397 708 344 q 535 450 607 450 l 208 450 l 208 92 l 535 92 z "},"Г":{"ha":681,"x_min":111,"x_max":653,"o":"m 653 972 l 653 881 l 208 881 l 208 0 l 111 0 l 111 972 l 653 972 z "},"Д":{"ha":958,"x_min":21,"x_max":910,"o":"m 806 92 l 910 92 l 910 -186 l 813 -186 l 813 0 l 118 0 l 118 -186 l 21 -186 l 21 92 l 100 92 q 196 439 196 204 l 196 972 l 806 972 l 806 92 m 215 92 l 708 92 l 708 881 l 293 881 l 293 436 q 215 92 293 206 z "},"Е":{"ha":736,"x_min":111,"x_max":681,"o":"m 208 92 l 681 92 l 681 0 l 111 0 l 111 972 l 674 972 l 674 881 l 208 881 l 208 536 l 639 536 l 639 444 l 208 444 l 208 92 z "},"Ж":{"ha":1181,"x_min":28,"x_max":1153,"o":"m 1153 0 l 1039 0 l 639 475 l 639 0 l 542 0 l 542 475 l 142 0 l 28 0 l 446 500 l 42 972 l 156 972 l 542 524 l 542 972 l 639 972 l 639 524 l 1025 972 l 1139 972 l 735 500 l 1153 0 z "},"З":{"ha":785,"x_min":56,"x_max":729,"o":"m 560 503 q 685 410 640 472 q 729 263 729 347 q 638 62 729 140 q 393 -17 547 -17 q 171 46 254 -17 q 56 203 88 108 l 139 250 q 217 126 157 176 q 393 75 278 75 q 569 127 507 75 q 632 263 632 179 q 574 398 632 346 q 415 450 517 450 l 304 450 l 304 542 l 381 542 q 538 592 479 542 q 596 721 596 642 q 540 848 596 799 q 386 897 483 897 q 150 744 207 897 l 69 792 q 184 935 106 881 q 386 989 263 989 q 608 912 524 989 q 693 719 693 835 q 560 503 693 574 z "},"И":{"ha":944,"x_min":111,"x_max":833,"o":"m 736 0 l 736 792 l 194 0 l 111 0 l 111 972 l 208 972 l 208 181 l 750 972 l 833 972 l 833 0 l 736 0 z "},"Й":{"ha":944,"x_min":111,"x_max":833,"o":"m 292 1083 l 292 1164 l 653 1164 l 653 1083 l 292 1083 m 736 0 l 736 792 l 194 0 l 111 0 l 111 972 l 208 972 l 208 181 l 750 972 l 833 972 l 833 0 l 736 0 z "},"К":{"ha":806,"x_min":111,"x_max":792,"o":"m 792 0 l 664 0 l 208 471 l 208 0 l 111 0 l 111 972 l 208 972 l 208 528 l 650 972 l 778 972 l 311 500 l 792 0 z "},"Л":{"ha":965,"x_min":21,"x_max":854,"o":"m 21 0 l 21 86 q 173 149 122 72 q 224 432 224 226 l 224 972 l 854 972 l 854 0 l 757 0 l 757 881 l 321 881 l 321 429 q 300 208 321 297 q 238 73 279 119 q 145 10 197 26 q 21 0 93 -6 z "},"М":{"ha":1111,"x_min":111,"x_max":1000,"o":"m 1000 972 l 1000 0 l 903 0 l 903 825 l 563 256 l 549 256 l 208 825 l 208 0 l 111 0 l 111 972 l 232 972 l 556 431 l 879 972 l 1000 972 z "},"Н":{"ha":944,"x_min":111,"x_max":833,"o":"m 736 972 l 833 972 l 833 0 l 736 0 l 736 454 l 208 454 l 208 0 l 111 0 l 111 972 l 208 972 l 208 546 l 736 546 l 736 972 z "},"О":{"ha":1117,"x_min":56,"x_max":1061,"o":"m 915 130 q 842 57 915 130 q 558 -17 769 -17 q 201 130 347 -17 q 56 486 56 276 q 201 842 56 696 q 558 989 347 989 q 915 842 769 989 q 1061 486 1061 696 q 915 130 1061 276 m 269 197 q 328 137 269 197 q 558 78 386 78 q 847 197 731 78 q 964 486 964 315 q 847 776 964 657 q 558 894 731 894 q 269 776 386 894 q 153 486 153 657 q 269 197 153 315 z "},"П":{"ha":917,"x_min":111,"x_max":806,"o":"m 806 972 l 806 0 l 708 0 l 708 881 l 208 881 l 208 0 l 111 0 l 111 972 l 806 972 z "},"Р":{"ha":819,"x_min":111,"x_max":764,"o":"m 458 972 q 676 885 589 972 q 764 667 764 797 q 676 449 764 536 q 458 361 589 361 l 208 361 l 208 0 l 111 0 l 111 972 l 458 972 m 458 453 q 608 513 549 453 q 667 667 667 574 q 608 820 667 760 q 458 881 549 881 l 208 881 l 208 453 l 458 453 z "},"С":{"ha":1035,"x_min":56,"x_max":986,"o":"m 565 -17 q 200 129 344 -17 q 56 486 56 275 q 200 843 56 697 q 565 989 344 989 q 813 924 700 989 q 986 750 925 860 l 900 700 q 764 842 854 789 q 565 894 674 894 q 268 776 383 894 q 153 486 153 658 q 268 196 153 314 q 565 78 383 78 q 764 131 674 78 q 900 272 854 183 l 986 224 q 813 49 926 114 q 565 -17 700 -17 z "},"Т":{"ha":750,"x_min":28,"x_max":722,"o":"m 722 972 l 722 881 l 424 881 l 424 0 l 326 0 l 326 881 l 28 881 l 28 972 l 722 972 z "},"У":{"ha":792,"x_min":42,"x_max":778,"o":"m 678 972 l 778 972 l 454 213 q 331 44 406 96 q 144 0 256 -7 l 144 89 q 273 112 222 81 q 357 221 324 143 l 376 267 l 42 972 l 142 972 l 422 375 l 678 972 z "},"Ф":{"ha":1117,"x_min":42,"x_max":1075,"o":"m 947 756 q 1011 707 947 756 q 1075 486 1075 658 q 947 217 1075 314 q 607 110 818 119 l 607 0 l 510 0 l 510 110 q 170 217 299 119 q 42 486 42 314 q 170 756 42 658 q 510 863 299 853 l 510 972 l 607 972 l 607 863 q 947 756 818 853 m 239 692 q 189 656 239 692 q 139 486 139 619 q 239 280 139 353 q 510 199 339 207 l 510 774 q 239 692 339 765 m 607 199 q 878 280 778 207 q 978 486 978 353 q 878 692 978 619 q 607 774 778 765 l 607 199 z "},"Х":{"ha":806,"x_min":28,"x_max":778,"o":"m 778 0 l 667 0 l 403 415 l 139 0 l 28 0 l 347 501 l 49 972 l 158 972 l 403 589 l 647 972 l 757 972 l 458 501 l 778 0 z "},"Ц":{"ha":958,"x_min":111,"x_max":910,"o":"m 806 92 l 910 92 l 910 -186 l 813 -186 l 813 0 l 111 0 l 111 972 l 208 972 l 208 92 l 708 92 l 708 972 l 806 972 l 806 92 z "},"Ч":{"ha":868,"x_min":90,"x_max":757,"o":"m 660 972 l 757 972 l 757 0 l 660 0 l 660 410 q 396 347 533 347 q 174 425 257 347 q 90 625 90 503 l 90 972 l 188 972 l 188 625 q 242 490 188 540 q 396 439 297 439 q 660 501 533 439 l 660 972 z "},"Ш":{"ha":1319,"x_min":111,"x_max":1208,"o":"m 1111 972 l 1208 972 l 1208 0 l 111 0 l 111 972 l 208 972 l 208 92 l 611 92 l 611 972 l 708 972 l 708 92 l 1111 92 l 1111 972 z "},"Щ":{"ha":1361,"x_min":111,"x_max":1313,"o":"m 1208 92 l 1313 92 l 1313 -186 l 1215 -186 l 1215 0 l 111 0 l 111 972 l 208 972 l 208 92 l 611 92 l 611 972 l 708 972 l 708 92 l 1111 92 l 1111 972 l 1208 972 l 1208 92 z "},"Ъ":{"ha":972,"x_min":0,"x_max":917,"o":"m 264 0 l 264 881 l 0 881 l 0 972 l 361 972 l 361 611 l 611 611 q 829 524 742 611 q 917 306 917 436 q 829 88 917 175 q 611 0 742 0 l 264 0 m 361 92 l 611 92 q 760 152 701 92 q 819 306 819 213 q 760 459 819 399 q 611 519 701 519 l 361 519 l 361 92 z "},"Ы":{"ha":1076,"x_min":111,"x_max":965,"o":"m 111 0 l 111 972 l 208 972 l 208 611 l 458 611 q 676 524 589 611 q 764 306 764 436 q 676 88 764 175 q 458 0 589 0 l 111 0 m 868 0 l 868 972 l 965 972 l 965 0 l 868 0 m 208 92 l 458 92 q 608 152 549 92 q 667 306 667 213 q 608 459 667 399 q 458 519 549 519 l 208 519 l 208 92 z "},"Ь":{"ha":819,"x_min":111,"x_max":764,"o":"m 458 611 q 676 524 589 611 q 764 306 764 436 q 676 88 764 175 q 458 0 589 0 l 111 0 l 111 972 l 208 972 l 208 611 l 458 611 m 458 92 q 608 152 549 92 q 667 306 667 213 q 608 459 667 399 q 458 519 549 519 l 208 519 l 208 92 l 458 92 z "},"Э":{"ha":1028,"x_min":49,"x_max":972,"o":"m 469 989 q 831 844 690 989 q 972 486 972 699 q 831 128 972 274 q 469 -17 690 -17 q 222 49 335 -17 q 49 224 108 114 l 135 272 q 271 131 181 183 q 469 78 361 78 q 747 181 638 78 q 872 440 857 283 l 340 440 l 340 532 l 872 532 q 747 792 857 689 q 469 894 638 894 q 271 842 361 894 q 135 700 181 789 l 49 750 q 222 924 110 860 q 469 989 335 989 z "},"Ю":{"ha":1444,"x_min":111,"x_max":1389,"o":"m 886 989 q 1243 842 1097 989 q 1389 486 1389 696 q 1243 130 1389 276 q 886 -17 1097 -17 q 542 119 683 -17 q 390 454 401 256 l 208 454 l 208 0 l 111 0 l 111 972 l 208 972 l 208 546 l 392 546 q 553 863 414 736 q 886 989 692 989 m 597 197 q 656 137 597 197 q 886 78 714 78 q 1175 197 1058 78 q 1292 486 1292 315 q 1175 776 1292 657 q 886 894 1058 894 q 597 776 714 894 q 481 486 481 657 q 597 197 481 315 z "},"Я":{"ha":861,"x_min":42,"x_max":750,"o":"m 750 972 l 750 0 l 653 0 l 653 389 l 419 389 l 153 0 l 42 0 l 313 393 q 139 492 208 411 q 69 681 69 574 q 155 887 69 801 q 361 972 240 972 l 750 972 m 361 481 l 653 481 l 653 881 l 361 881 q 224 822 281 881 q 167 681 167 764 q 224 540 167 599 q 361 481 281 481 z "},"а":{"ha":883,"x_min":56,"x_max":786,"o":"m 694 694 l 786 694 l 786 0 l 694 0 l 694 136 q 414 -17 599 -17 q 160 89 265 -17 q 56 347 56 194 q 160 606 56 500 q 414 711 265 711 q 694 558 599 711 l 694 694 m 226 152 q 266 112 226 152 q 421 72 306 72 q 615 152 536 72 q 694 347 694 232 q 615 542 694 463 q 421 622 536 622 q 226 542 306 622 q 147 347 147 463 q 226 152 147 232 z "},"б":{"ha":788,"x_min":56,"x_max":746,"o":"m 406 -17 q 156 83 256 -17 q 56 340 56 182 q 108 613 56 518 q 322 786 161 708 q 403 822 353 801 q 480 856 454 843 q 536 888 506 868 q 582 933 567 908 q 601 993 597 958 l 674 951 q 651 889 668 918 q 617 842 635 860 q 563 802 600 824 q 506 772 526 781 q 437 742 486 763 q 371 714 388 721 q 228 627 274 672 q 163 510 182 582 q 283 602 210 572 q 425 632 356 632 q 655 541 564 632 q 746 308 746 450 q 649 76 746 168 q 406 -17 553 -17 m 406 75 q 584 141 514 75 q 654 308 654 207 q 588 477 654 411 q 413 543 522 543 q 233 481 314 543 q 153 317 153 419 q 226 143 153 211 q 406 75 299 75 z "},"в":{"ha":694,"x_min":97,"x_max":653,"o":"m 539 357 q 653 194 653 315 q 597 55 653 110 q 435 0 540 0 l 97 0 l 97 694 l 407 694 q 564 642 508 694 q 619 508 619 590 q 539 357 619 404 m 407 606 l 189 606 l 189 394 l 407 394 q 528 503 528 394 q 497 578 528 551 q 407 606 465 606 m 435 89 q 528 118 496 89 q 561 200 561 147 q 528 277 561 249 q 435 306 496 306 l 189 306 l 189 89 l 435 89 z "},"г":{"ha":556,"x_min":97,"x_max":542,"o":"m 542 694 l 542 606 l 189 606 l 189 0 l 97 0 l 97 694 l 542 694 z "},"д":{"ha":819,"x_min":28,"x_max":778,"o":"m 681 89 l 778 89 l 778 -186 l 686 -186 l 686 0 l 119 0 l 119 -186 l 28 -186 l 28 89 l 113 89 q 183 351 183 182 l 183 694 l 681 694 l 681 89 m 224 89 l 589 89 l 589 606 l 275 606 l 275 351 q 224 89 275 192 z "},"е":{"ha":811,"x_min":56,"x_max":763,"o":"m 418 711 q 667 602 572 711 q 763 344 763 493 q 760 301 763 329 l 150 301 q 240 134 164 196 q 426 72 315 72 q 563 105 506 72 q 650 190 621 138 l 731 143 q 606 26 685 69 q 425 -17 526 -17 q 158 86 261 -17 q 56 347 56 189 q 157 607 56 503 q 418 711 258 711 m 418 622 q 237 558 310 622 q 150 390 164 493 l 668 390 q 583 561 654 500 q 418 622 513 622 z "},"ж":{"ha":936,"x_min":28,"x_max":908,"o":"m 908 0 l 797 0 l 514 335 l 514 0 l 422 0 l 422 335 l 139 0 l 28 0 l 339 361 l 42 694 l 153 694 l 422 386 l 422 694 l 514 694 l 514 386 l 783 694 l 894 694 l 597 361 l 908 0 z "},"з":{"ha":618,"x_min":42,"x_max":576,"o":"m 456 357 q 576 190 576 311 q 509 44 576 104 q 317 -17 442 -17 q 42 150 107 -17 l 119 196 q 317 72 163 72 q 441 107 397 72 q 485 196 485 142 q 449 275 485 244 q 351 306 413 306 l 250 306 l 250 394 l 324 394 q 417 424 383 394 q 451 507 451 454 q 411 590 451 557 q 303 622 371 622 q 129 518 172 622 l 53 563 q 303 711 122 711 q 478 653 413 711 q 543 513 543 596 q 456 357 543 406 z "},"и":{"ha":778,"x_min":97,"x_max":681,"o":"m 603 694 l 681 694 l 681 0 l 589 0 l 589 535 l 175 0 l 97 0 l 97 694 l 189 694 l 189 160 l 603 694 z "},"й":{"ha":778,"x_min":97,"x_max":681,"o":"m 208 806 l 208 886 l 569 886 l 569 806 l 208 806 m 603 694 l 681 694 l 681 0 l 589 0 l 589 535 l 175 0 l 97 0 l 97 694 l 189 694 l 189 160 l 603 694 z "},"к":{"ha":686,"x_min":97,"x_max":658,"o":"m 658 0 l 536 0 l 189 335 l 189 0 l 97 0 l 97 694 l 189 694 l 189 388 l 519 694 l 644 694 l 286 361 l 658 0 z "},"л":{"ha":764,"x_min":14,"x_max":667,"o":"m 667 694 l 667 0 l 575 0 l 575 606 l 261 606 l 261 296 q 195 57 261 122 q 14 0 129 -8 l 14 86 q 131 124 93 78 q 169 296 169 169 l 169 694 l 667 694 z "},"м":{"ha":875,"x_min":97,"x_max":778,"o":"m 778 694 l 778 0 l 686 0 l 686 554 l 443 160 l 432 160 l 189 554 l 189 0 l 97 0 l 97 694 l 203 694 l 438 314 l 672 694 l 778 694 z "},"н":{"ha":778,"x_min":97,"x_max":681,"o":"m 589 694 l 681 694 l 681 0 l 589 0 l 589 303 l 189 303 l 189 0 l 97 0 l 97 694 l 189 694 l 189 392 l 589 392 l 589 694 z "},"о":{"ha":842,"x_min":56,"x_max":786,"o":"m 680 88 q 627 36 680 88 q 421 -17 574 -17 q 162 88 268 -17 q 56 347 56 193 q 162 606 56 501 q 421 711 268 711 q 680 606 574 711 q 786 347 786 501 q 680 88 786 193 m 226 152 q 266 112 226 152 q 421 72 306 72 q 615 152 536 72 q 694 347 694 232 q 615 542 694 463 q 421 622 536 622 q 226 542 306 622 q 147 347 147 463 q 226 152 147 232 z "},"п":{"ha":778,"x_min":97,"x_max":681,"o":"m 681 694 l 681 0 l 589 0 l 589 606 l 189 606 l 189 0 l 97 0 l 97 694 l 681 694 z "},"р":{"ha":883,"x_min":97,"x_max":828,"o":"m 469 711 q 723 606 618 711 q 828 347 828 500 q 723 89 828 194 q 469 -17 618 -17 q 189 136 285 -17 l 189 -278 l 97 -278 l 97 694 l 189 694 l 189 558 q 469 711 285 711 m 268 152 q 308 112 268 152 q 463 72 347 72 q 657 152 578 72 q 736 347 736 232 q 657 542 736 463 q 463 622 578 622 q 268 542 347 622 q 189 347 189 463 q 268 152 189 232 z "},"с":{"ha":767,"x_min":56,"x_max":732,"o":"m 421 -17 q 160 88 264 -17 q 56 347 56 193 q 160 606 56 501 q 421 711 264 711 q 606 662 524 711 q 725 529 688 613 l 650 486 q 560 585 622 549 q 421 622 499 622 q 226 542 306 622 q 147 347 147 463 q 226 152 147 232 q 421 72 306 72 q 560 109 499 72 q 656 208 621 146 l 732 164 q 606 32 689 81 q 421 -17 522 -17 z "},"т":{"ha":611,"x_min":14,"x_max":597,"o":"m 597 694 l 597 606 l 351 606 l 351 0 l 260 0 l 260 606 l 14 606 l 14 694 l 597 694 z "},"у":{"ha":708,"x_min":14,"x_max":694,"o":"m 597 694 l 694 694 l 397 -64 q 283 -226 357 -167 q 117 -278 208 -285 l 117 -192 q 307 -47 242 -206 l 325 -4 l 14 694 l 111 694 l 372 113 l 597 694 z "},"ф":{"ha":931,"x_min":56,"x_max":875,"o":"m 775 594 q 825 544 775 594 q 875 347 875 493 q 775 100 875 201 q 511 -15 675 -1 l 511 -278 l 419 -278 l 419 -15 q 156 100 256 -1 q 56 347 56 201 q 156 594 56 493 q 419 710 256 696 l 419 972 l 511 972 l 511 710 q 775 594 675 696 m 221 531 q 184 493 221 531 q 147 347 147 456 q 221 163 147 239 q 419 75 294 88 l 419 619 q 221 531 294 607 m 511 75 q 710 163 636 88 q 783 347 783 239 q 710 531 783 456 q 511 619 636 607 l 511 75 z "},"х":{"ha":708,"x_min":28,"x_max":681,"o":"m 681 0 l 571 0 l 354 286 l 138 0 l 28 0 l 300 360 l 46 694 l 156 694 l 354 432 l 553 694 l 663 694 l 410 360 l 681 0 z "},"ц":{"ha":819,"x_min":97,"x_max":778,"o":"m 667 89 l 778 89 l 778 -186 l 686 -186 l 686 0 l 97 0 l 97 694 l 189 694 l 189 89 l 575 89 l 575 694 l 667 694 l 667 89 z "},"ч":{"ha":736,"x_min":69,"x_max":639,"o":"m 547 694 l 639 694 l 639 0 l 547 0 l 547 264 q 349 222 467 222 q 141 285 213 222 q 69 472 69 349 l 69 694 l 161 694 l 161 472 q 207 347 161 385 q 346 308 253 308 q 547 349 454 308 l 547 694 z "},"ш":{"ha":1125,"x_min":97,"x_max":1028,"o":"m 936 694 l 1028 694 l 1028 0 l 97 0 l 97 694 l 189 694 l 189 89 l 517 89 l 517 694 l 608 694 l 608 89 l 936 89 l 936 694 z "},"щ":{"ha":1167,"x_min":97,"x_max":1125,"o":"m 1028 89 l 1125 89 l 1125 -186 l 1033 -186 l 1033 0 l 97 0 l 97 694 l 189 694 l 189 89 l 517 89 l 517 694 l 608 694 l 608 89 l 936 89 l 936 694 l 1028 694 l 1028 89 z "},"ъ":{"ha":750,"x_min":0,"x_max":708,"o":"m 476 431 q 641 370 574 431 q 708 215 708 310 q 641 60 708 121 q 476 0 574 0 l 194 0 l 194 606 l 0 606 l 0 694 l 286 694 l 286 431 l 476 431 m 476 89 q 576 124 535 89 q 617 215 617 158 q 576 307 617 272 q 476 342 535 342 l 286 342 l 286 89 l 476 89 z "},"ы":{"ha":897,"x_min":97,"x_max":800,"o":"m 379 431 q 544 370 476 431 q 611 215 611 310 q 544 60 611 121 q 379 0 476 0 l 97 0 l 97 694 l 189 694 l 189 431 l 379 431 m 708 694 l 800 694 l 800 0 l 708 0 l 708 694 m 379 89 q 478 124 438 89 q 519 215 519 158 q 478 307 519 272 q 379 342 438 342 l 189 342 l 189 89 l 379 89 z "},"ь":{"ha":653,"x_min":97,"x_max":611,"o":"m 379 431 q 544 370 476 431 q 611 215 611 310 q 544 60 611 121 q 379 0 476 0 l 97 0 l 97 694 l 189 694 l 189 431 l 379 431 m 379 89 q 478 124 438 89 q 519 215 519 158 q 478 307 519 272 q 379 342 438 342 l 189 342 l 189 89 l 379 89 z "},"э":{"ha":749,"x_min":28,"x_max":693,"o":"m 344 711 q 597 608 501 711 q 693 347 693 504 q 597 87 693 190 q 342 -17 500 -17 q 147 33 229 -17 q 28 167 64 82 l 107 213 q 192 110 131 149 q 342 72 253 72 q 515 137 446 72 q 599 303 585 201 l 253 303 l 253 392 l 599 392 q 517 558 586 493 q 344 622 449 622 q 204 585 265 622 q 114 483 143 547 l 33 529 q 158 663 75 614 q 344 711 240 711 z "},"ю":{"ha":1111,"x_min":97,"x_max":1056,"o":"m 690 711 q 949 606 843 711 q 1056 347 1056 501 q 949 88 1056 193 q 690 -17 843 -17 q 449 74 550 -17 q 333 303 349 165 l 189 303 l 189 0 l 97 0 l 97 694 l 189 694 l 189 392 l 333 392 q 449 620 349 529 q 690 711 550 711 m 496 152 q 535 112 496 152 q 690 72 575 72 q 885 152 806 72 q 964 347 964 232 q 885 542 964 463 q 690 622 806 622 q 496 542 575 622 q 417 347 417 463 q 496 152 417 232 z "},"я":{"ha":694,"x_min":56,"x_max":597,"o":"m 597 694 l 597 0 l 506 0 l 506 267 l 386 267 l 172 0 l 56 0 l 275 269 q 138 339 192 282 q 83 479 83 396 q 151 634 83 574 q 315 694 218 694 l 597 694 m 315 353 l 506 353 l 506 606 l 315 606 q 216 571 257 606 q 175 479 175 536 q 216 388 175 422 q 315 353 257 353 z "},"ё":{"ha":811,"x_min":56,"x_max":763,"o":"m 322 817 q 313 808 322 817 q 278 799 304 799 q 233 817 251 799 q 215 861 215 835 q 233 906 215 888 q 278 924 251 924 q 322 906 304 924 q 340 861 340 888 q 322 817 340 835 m 586 817 q 577 808 586 817 q 542 799 568 799 q 497 817 515 799 q 479 861 479 835 q 497 906 479 888 q 542 924 515 924 q 586 906 568 924 q 604 861 604 888 q 586 817 604 835 m 418 711 q 667 602 572 711 q 763 344 763 493 q 760 301 763 329 l 150 301 q 240 134 164 196 q 426 72 315 72 q 563 105 506 72 q 650 190 621 138 l 731 143 q 606 26 685 69 q 425 -17 526 -17 q 158 86 261 -17 q 56 347 56 189 q 157 607 56 503 q 418 711 258 711 m 418 622 q 237 558 310 622 q 150 390 164 493 l 668 390 q 583 561 654 500 q 418 622 513 622 z "},"ђ":{"ha":789,"x_min":14,"x_max":708,"o":"m 436 711 q 635 634 563 711 q 708 426 708 557 l 708 -56 q 643 -243 708 -181 q 458 -294 578 -306 l 458 -206 q 578 -179 540 -214 q 617 -56 617 -144 l 617 426 q 567 571 617 519 q 428 622 518 622 q 265 559 328 622 q 203 364 203 496 l 203 0 l 111 0 l 111 800 l 14 800 l 14 875 l 111 875 l 111 972 l 203 972 l 203 875 l 403 875 l 403 800 l 203 800 l 203 586 q 436 711 281 711 z "},"ѓ":{"ha":556,"x_min":97,"x_max":542,"o":"m 439 972 l 306 792 l 217 792 l 328 972 l 439 972 m 542 694 l 542 606 l 189 606 l 189 0 l 97 0 l 97 694 l 542 694 z "},"є":{"ha":749,"x_min":56,"x_max":721,"o":"m 642 213 l 721 167 q 602 33 685 82 q 407 -17 519 -17 q 152 87 249 -17 q 56 347 56 190 q 151 608 56 504 q 404 711 247 711 q 591 663 508 711 q 715 529 674 614 l 635 483 q 544 585 606 547 q 404 622 483 622 q 231 558 300 622 q 150 392 163 493 l 496 392 l 496 303 l 150 303 q 233 137 164 201 q 407 72 303 72 q 557 110 496 72 q 642 213 618 149 z "},"ѕ":{"ha":631,"x_min":56,"x_max":575,"o":"m 169 513 q 211 438 169 465 q 313 394 253 410 q 432 360 372 379 q 533 298 492 342 q 575 183 575 254 q 505 39 575 94 q 324 -17 435 -17 q 153 28 224 -17 q 56 143 83 72 l 133 189 q 203 103 153 135 q 324 72 254 72 q 438 99 392 72 q 483 183 483 126 q 442 258 483 231 q 340 301 400 286 q 221 335 281 317 q 119 398 161 354 q 78 513 78 442 q 145 654 78 597 q 315 711 213 711 q 464 673 400 711 q 558 569 528 635 l 482 525 q 315 622 442 622 q 213 594 256 622 q 169 513 169 565 z "},"і":{"ha":286,"x_min":76,"x_max":210,"o":"m 190 861 q 181 851 190 861 q 143 842 171 842 q 96 861 115 842 q 76 908 76 881 q 96 956 76 936 q 143 975 115 975 q 190 956 171 975 q 210 908 210 936 q 190 861 210 881 m 97 0 l 97 694 l 189 694 l 189 0 l 97 0 z "},"ї":{"ha":286,"x_min":-51,"x_max":338,"o":"m 56 817 q 47 808 56 817 q 11 799 38 799 q -33 817 -15 799 q -51 861 -51 835 q -33 906 -51 888 q 11 924 -15 924 q 56 906 38 924 q 74 861 74 888 q 56 817 74 835 m 319 817 q 310 808 319 817 q 275 799 301 799 q 231 817 249 799 q 213 861 213 835 q 231 906 213 888 q 275 924 249 924 q 319 906 301 924 q 338 861 338 888 q 319 817 338 835 m 97 0 l 97 694 l 189 694 l 189 0 l 97 0 z "},"ј":{"ha":319,"x_min":-28,"x_max":243,"o":"m 129 956 q 139 965 129 956 q 176 975 149 975 q 224 956 204 975 q 243 908 243 936 q 224 861 243 881 q 176 842 204 842 q 129 861 149 842 q 110 908 110 881 q 129 956 110 936 m 131 -56 l 131 694 l 222 694 l 222 -56 q 157 -243 222 -181 q -28 -294 92 -306 l -28 -206 q 92 -179 54 -214 q 131 -56 131 -144 z "},"љ":{"ha":1096,"x_min":14,"x_max":1054,"o":"m 836 403 q 992 349 929 403 q 1054 201 1054 294 q 992 54 1054 108 q 836 0 929 0 l 561 0 l 561 606 l 261 606 l 261 296 q 195 57 261 122 q 14 0 129 -8 l 14 86 q 131 124 93 78 q 169 296 169 169 l 169 694 l 653 694 l 653 403 l 836 403 m 836 89 q 927 117 892 89 q 963 201 963 146 q 927 285 963 257 q 836 314 892 314 l 653 314 l 653 89 l 836 89 z "},"њ":{"ha":1096,"x_min":97,"x_max":1054,"o":"m 836 403 q 992 349 929 403 q 1054 201 1054 294 q 992 54 1054 108 q 836 0 929 0 l 561 0 l 561 314 l 189 314 l 189 0 l 97 0 l 97 694 l 189 694 l 189 403 l 561 403 l 561 694 l 653 694 l 653 403 l 836 403 m 836 89 q 927 117 892 89 q 963 201 963 146 q 927 285 963 257 q 836 314 892 314 l 653 314 l 653 89 l 836 89 z "},"ћ":{"ha":789,"x_min":14,"x_max":708,"o":"m 436 711 q 635 634 563 711 q 708 426 708 557 l 708 0 l 617 0 l 617 426 q 567 571 617 519 q 428 622 518 622 q 265 559 328 622 q 203 364 203 496 l 203 0 l 111 0 l 111 800 l 14 800 l 14 875 l 111 875 l 111 972 l 203 972 l 203 875 l 403 875 l 403 800 l 203 800 l 203 586 q 436 711 281 711 z "},"ќ":{"ha":686,"x_min":97,"x_max":658,"o":"m 494 972 l 361 792 l 272 792 l 383 972 l 494 972 m 658 0 l 536 0 l 189 335 l 189 0 l 97 0 l 97 694 l 189 694 l 189 388 l 519 694 l 644 694 l 286 361 l 658 0 z "},"ў":{"ha":708,"x_min":14,"x_max":694,"o":"m 532 886 l 532 806 l 171 806 l 171 886 l 532 886 m 597 694 l 694 694 l 397 -64 q 283 -226 357 -167 q 117 -278 208 -285 l 117 -192 q 307 -47 242 -206 l 325 -4 l 14 694 l 111 694 l 372 113 l 597 694 z "},"џ":{"ha":778,"x_min":97,"x_max":681,"o":"m 589 694 l 681 694 l 681 0 l 435 0 l 435 -186 l 343 -186 l 343 0 l 97 0 l 97 694 l 189 694 l 189 89 l 589 89 l 589 694 z "},"Ґ":{"ha":681,"x_min":111,"x_max":653,"o":"m 556 1139 l 653 1139 l 653 881 l 208 881 l 208 0 l 111 0 l 111 972 l 556 972 l 556 1139 z "},"ґ":{"ha":556,"x_min":97,"x_max":542,"o":"m 450 839 l 542 839 l 542 606 l 189 606 l 189 0 l 97 0 l 97 694 l 450 694 l 450 839 z "},"Ẁ":{"ha":1389,"x_min":42,"x_max":1347,"o":"m 778 1069 l 667 1250 l 556 1250 l 689 1069 l 778 1069 m 324 0 l 42 972 l 144 972 l 385 132 l 638 972 l 751 972 l 1004 132 l 1244 972 l 1347 972 l 1065 0 l 949 0 l 694 844 l 440 0 l 324 0 z "},"ẁ":{"ha":1069,"x_min":42,"x_max":1028,"o":"m 618 792 l 529 792 l 396 972 l 507 972 l 618 792 m 933 694 l 1028 694 l 814 0 l 714 0 l 535 560 l 356 0 l 256 0 l 42 694 l 136 694 l 307 118 l 489 694 l 581 694 l 763 118 l 933 694 z "},"Ẃ":{"ha":1389,"x_min":42,"x_max":1347,"o":"m 625 1069 l 714 1069 l 847 1250 l 736 1250 l 625 1069 m 324 0 l 42 972 l 144 972 l 385 132 l 638 972 l 751 972 l 1004 132 l 1244 972 l 1347 972 l 1065 0 l 949 0 l 694 844 l 440 0 l 324 0 z "},"ẃ":{"ha":1069,"x_min":42,"x_max":1028,"o":"m 688 972 l 554 792 l 465 792 l 576 972 l 688 972 m 933 694 l 1028 694 l 814 0 l 714 0 l 535 560 l 356 0 l 256 0 l 42 694 l 136 694 l 307 118 l 489 694 l 581 694 l 763 118 l 933 694 z "},"Ẅ":{"ha":1389,"x_min":42,"x_max":1347,"o":"m 607 1094 q 598 1085 607 1094 q 563 1076 589 1076 q 518 1094 536 1076 q 500 1139 500 1113 q 518 1183 500 1165 q 563 1201 536 1201 q 607 1183 589 1201 q 625 1139 625 1165 q 607 1094 625 1113 m 871 1094 q 862 1085 871 1094 q 826 1076 853 1076 q 782 1094 800 1076 q 764 1139 764 1113 q 782 1183 764 1165 q 826 1201 800 1201 q 871 1183 853 1201 q 889 1139 889 1165 q 871 1094 889 1113 m 324 0 l 42 972 l 144 972 l 385 132 l 638 972 l 751 972 l 1004 132 l 1244 972 l 1347 972 l 1065 0 l 949 0 l 694 844 l 440 0 l 324 0 z "},"ẅ":{"ha":1069,"x_min":42,"x_max":1028,"o":"m 447 817 q 438 808 447 817 q 403 799 429 799 q 358 817 376 799 q 340 861 340 835 q 358 906 340 888 q 403 924 376 924 q 447 906 429 924 q 465 861 465 888 q 447 817 465 835 m 711 817 q 702 808 711 817 q 667 799 693 799 q 622 817 640 799 q 604 861 604 835 q 622 906 604 888 q 667 924 640 924 q 711 906 693 924 q 729 861 729 888 q 711 817 729 835 m 933 694 l 1028 694 l 814 0 l 714 0 l 535 560 l 356 0 l 256 0 l 42 694 l 136 694 l 307 118 l 489 694 l 581 694 l 763 118 l 933 694 z "},"Ỳ":{"ha":826,"x_min":14,"x_max":813,"o":"m 492 1069 l 403 1069 l 269 1250 l 381 1250 l 492 1069 m 813 972 l 461 399 l 461 0 l 364 0 l 364 401 l 14 972 l 124 972 l 414 496 l 703 972 l 813 972 z "},"ỳ":{"ha":708,"x_min":14,"x_max":694,"o":"m 435 792 l 346 792 l 213 972 l 324 972 l 435 792 m 597 694 l 694 694 l 397 -64 q 283 -226 357 -167 q 117 -278 208 -285 l 117 -192 q 307 -47 242 -206 l 325 -4 l 14 694 l 111 694 l 372 113 l 597 694 z "},"–":{"ha":917,"x_min":111,"x_max":806,"o":"m 111 385 l 111 474 l 806 474 l 806 385 l 111 385 z "},"—":{"ha":1056,"x_min":111,"x_max":944,"o":"m 111 385 l 111 474 l 944 474 l 944 385 l 111 385 z "},"‘":{"ha":333,"x_min":83,"x_max":250,"o":"m 83 660 l 167 972 l 250 972 l 194 660 l 83 660 z "},"’":{"ha":333,"x_min":83,"x_max":250,"o":"m 250 972 l 167 660 l 83 660 l 139 972 l 250 972 z "},"‚":{"ha":333,"x_min":83,"x_max":250,"o":"m 250 118 l 167 -194 l 83 -194 l 139 118 l 250 118 z "},"“":{"ha":528,"x_min":83,"x_max":444,"o":"m 83 660 l 167 972 l 250 972 l 194 660 l 83 660 m 278 660 l 361 972 l 444 972 l 389 660 l 278 660 z "},"”":{"ha":528,"x_min":83,"x_max":444,"o":"m 250 972 l 167 660 l 83 660 l 139 972 l 250 972 m 444 972 l 361 660 l 278 660 l 333 972 l 444 972 z "},"„":{"ha":528,"x_min":83,"x_max":444,"o":"m 250 118 l 167 -194 l 83 -194 l 139 118 l 250 118 m 444 118 l 361 -194 l 278 -194 l 333 118 l 444 118 z "},"†":{"ha":667,"x_min":83,"x_max":583,"o":"m 583 743 l 583 654 l 379 654 l 379 0 l 288 0 l 288 654 l 83 654 l 83 743 l 288 743 l 288 972 l 379 972 l 379 743 l 583 743 z "},"‡":{"ha":667,"x_min":83,"x_max":583,"o":"m 583 654 l 379 654 l 379 318 l 583 318 l 583 229 l 379 229 l 379 0 l 288 0 l 288 229 l 83 229 l 83 318 l 288 318 l 288 654 l 83 654 l 83 743 l 288 743 l 288 972 l 379 972 l 379 743 l 583 743 l 583 654 z "},"•":{"ha":417,"x_min":69,"x_max":347,"o":"m 210 347 q 110 388 151 347 q 69 488 69 429 q 110 585 69 544 q 210 625 151 625 q 307 585 267 625 q 347 488 347 544 q 307 388 347 429 q 210 347 267 347 z "},"…":{"ha":847,"x_min":83,"x_max":764,"o":"m 214 8 q 203 -3 214 8 q 160 -14 192 -14 q 106 8 128 -14 q 83 63 83 31 q 106 117 83 94 q 160 139 128 139 q 214 117 192 139 q 236 63 236 94 q 214 8 236 31 m 478 8 q 467 -3 478 8 q 424 -14 456 -14 q 369 8 392 -14 q 347 63 347 31 q 369 117 347 94 q 424 139 392 139 q 478 117 456 139 q 500 63 500 94 q 478 8 500 31 m 742 8 q 731 -3 742 8 q 688 -14 719 -14 q 633 8 656 -14 q 611 63 611 31 q 633 117 611 94 q 688 139 656 139 q 742 117 719 139 q 764 63 764 94 q 742 8 764 31 z "},"‰":{"ha":1478,"x_min":83,"x_max":1394,"o":"m 296 572 q 144 633 206 572 q 83 781 83 693 q 144 928 83 868 q 296 989 206 989 q 447 928 386 989 q 508 781 508 868 q 449 633 508 693 q 296 572 389 572 m 207 692 q 224 674 207 692 q 296 656 242 656 q 385 692 350 656 q 419 781 419 728 q 385 869 419 833 q 296 906 350 906 q 207 869 242 906 q 172 781 172 833 q 207 692 172 728 m 132 132 l 783 864 l 843 831 l 190 99 l 132 132 m 840 44 q 810 14 840 44 q 689 -17 779 -17 q 538 44 599 -17 q 476 192 476 104 q 538 340 476 279 q 689 400 599 400 q 840 340 779 400 q 901 192 901 279 q 840 44 901 104 m 1333 44 q 1303 14 1333 44 q 1182 -17 1272 -17 q 1031 44 1092 -17 q 969 192 969 104 q 1031 340 969 279 q 1182 400 1092 400 q 1333 340 1272 400 q 1394 192 1394 279 q 1333 44 1394 104 m 600 103 q 617 85 600 103 q 689 67 635 67 q 778 103 743 67 q 813 192 813 139 q 778 281 813 244 q 689 317 743 317 q 600 281 635 317 q 565 192 565 244 q 600 103 565 139 m 1093 103 q 1110 85 1093 103 q 1182 67 1128 67 q 1271 103 1236 67 q 1306 192 1306 139 q 1271 281 1306 244 q 1182 317 1236 317 q 1093 281 1128 317 q 1058 192 1058 244 q 1093 103 1058 139 z "},"‹":{"ha":461,"x_min":97,"x_max":364,"o":"m 364 679 l 211 429 l 364 179 l 250 179 l 97 429 l 250 679 l 364 679 z "},"›":{"ha":461,"x_min":97,"x_max":364,"o":"m 211 679 l 364 429 l 211 179 l 97 179 l 250 429 l 97 679 l 211 679 z "},"⁄":{"ha":306,"x_min":-167,"x_max":472,"o":"m -83 0 l -167 0 l 389 972 l 472 972 l -83 0 z "},"€":{"ha":825,"x_min":28,"x_max":790,"o":"m 500 78 q 628 114 574 78 q 710 218 683 150 l 790 172 q 678 33 754 82 q 500 -17 603 -17 q 253 87 349 -17 q 132 369 157 190 l 28 369 l 28 450 l 125 450 l 125 486 q 126 533 125 518 l 28 533 l 28 614 l 135 614 q 256 888 160 788 q 500 989 351 989 q 678 940 603 989 q 790 801 754 890 l 710 756 q 500 894 651 894 q 324 822 394 894 q 232 614 254 749 l 583 614 l 583 533 l 224 533 q 222 486 222 518 q 224 450 222 461 l 583 450 l 583 369 l 231 369 q 322 153 251 229 q 500 78 392 78 z "},"₽":{"ha":819,"x_min":28,"x_max":792,"o":"m 500 389 l 250 389 l 250 258 l 611 258 l 611 178 l 250 178 l 250 0 l 153 0 l 153 178 l 28 178 l 28 258 l 153 258 l 153 389 l 28 389 l 28 481 l 153 481 l 153 972 l 500 972 q 706 887 621 972 q 792 681 792 801 q 706 475 792 561 q 500 389 621 389 m 250 881 l 250 481 l 500 481 q 638 540 581 481 q 694 681 694 599 q 638 822 694 764 q 500 881 581 881 l 250 881 z "},"№":{"ha":1411,"x_min":111,"x_max":1356,"o":"m 1143 572 q 992 633 1053 572 q 931 781 931 693 q 992 928 931 868 q 1143 989 1053 989 q 1294 928 1233 989 q 1356 781 1356 868 q 1296 633 1356 693 q 1143 572 1236 572 m 736 972 l 833 972 l 833 0 l 750 0 l 208 792 l 208 0 l 111 0 l 111 972 l 194 972 l 736 181 l 736 972 m 1054 692 q 1072 674 1054 692 q 1143 656 1089 656 q 1232 692 1197 656 q 1267 781 1267 728 q 1232 869 1267 833 q 1143 906 1197 906 q 1054 869 1089 906 q 1019 781 1019 833 q 1054 692 1019 728 m 947 386 l 947 475 l 1339 475 l 1339 386 l 947 386 z "},"™":{"ha":646,"x_min":56,"x_max":590,"o":"m 271 972 l 271 921 l 192 921 l 192 694 l 136 694 l 136 921 l 56 921 l 56 972 l 271 972 m 535 972 l 590 972 l 590 694 l 535 694 l 535 879 l 450 744 l 444 744 l 360 879 l 360 694 l 304 694 l 304 972 l 360 972 l 447 833 l 535 972 z "},"℮":{"ha":1139,"x_min":56,"x_max":1083,"o":"m 199 842 q 271 914 199 842 q 569 986 343 986 q 940 842 796 986 q 1083 486 1083 697 q 1063 465 1083 465 l 285 465 q 264 444 264 465 l 264 178 q 274 151 264 163 q 597 28 390 28 q 918 163 799 28 q 943 175 928 175 l 994 175 q 1013 167 1008 175 q 1007 149 1017 158 q 597 -14 856 -14 q 204 130 353 -14 q 56 486 56 274 q 199 842 56 697 m 875 794 q 865 821 875 810 q 569 944 749 944 q 274 821 390 944 q 264 794 264 810 l 264 528 q 285 507 264 507 l 854 507 q 875 528 875 507 l 875 794 z "},"⅛":{"ha":1114,"x_min":14,"x_max":1081,"o":"m 249 417 l 163 417 l 163 878 l 36 840 l 14 914 l 175 972 l 249 972 l 249 417 m 732 972 l 815 972 l 260 0 l 176 0 l 732 972 m 989 293 q 1081 147 1081 244 q 1026 28 1081 72 q 882 -17 971 -17 q 738 28 793 -17 q 682 147 682 72 q 774 292 682 246 q 700 414 700 336 q 752 530 700 488 q 882 572 804 572 q 1010 530 958 572 q 1063 414 1063 488 q 989 293 1063 336 m 952 471 q 940 481 952 471 q 882 492 928 492 q 811 471 836 492 q 786 414 786 450 q 811 354 786 376 q 882 332 836 332 q 951 354 926 332 q 976 414 976 376 q 952 471 976 450 m 882 67 q 965 92 935 67 q 994 158 994 117 q 964 224 994 200 q 882 249 933 249 q 797 225 826 249 q 768 158 768 201 q 798 92 768 117 q 882 67 828 67 z "},"⅜":{"ha":1260,"x_min":35,"x_max":1226,"o":"m 435 579 q 379 449 435 499 q 232 400 324 400 q 35 517 90 400 l 107 558 q 232 483 142 483 q 318 509 288 483 q 349 579 349 535 q 317 649 349 622 q 232 675 286 675 l 226 675 l 183 740 l 308 889 l 53 889 l 53 972 l 411 972 l 411 889 l 288 742 q 396 685 357 728 q 435 579 435 643 m 878 972 l 961 972 l 406 0 l 322 0 l 878 972 m 1135 293 q 1226 147 1226 244 q 1172 28 1226 72 q 1028 -17 1117 -17 q 883 28 939 -17 q 828 147 828 72 q 919 292 828 246 q 846 414 846 336 q 898 530 846 488 q 1028 572 950 572 q 1156 530 1104 572 q 1208 414 1208 488 q 1135 293 1208 336 m 1098 471 q 1086 481 1098 471 q 1028 492 1074 492 q 957 471 982 492 q 932 414 932 450 q 957 354 932 376 q 1028 332 982 332 q 1097 354 1072 332 q 1122 414 1122 376 q 1098 471 1122 450 m 1028 67 q 1110 92 1081 67 q 1140 158 1140 117 q 1110 224 1140 200 q 1028 249 1079 249 q 943 225 972 249 q 914 158 914 201 q 944 92 914 117 q 1028 67 974 67 z "},"⅝":{"ha":1244,"x_min":28,"x_max":1211,"o":"m 421 579 q 368 449 421 497 q 222 400 315 400 q 28 518 81 400 l 101 558 q 222 483 136 483 q 305 510 275 483 q 335 579 335 536 q 305 653 335 626 q 222 681 275 681 l 53 681 l 74 972 l 399 972 l 399 892 l 147 892 l 139 764 l 225 764 q 367 713 313 764 q 421 579 421 663 m 863 972 l 946 972 l 390 0 l 307 0 l 863 972 m 1119 293 q 1211 147 1211 244 q 1156 28 1211 72 q 1013 -17 1101 -17 q 868 28 924 -17 q 813 147 813 72 q 904 292 813 246 q 831 414 831 336 q 883 530 831 488 q 1013 572 935 572 q 1141 530 1089 572 q 1193 414 1193 488 q 1119 293 1193 336 m 1083 471 q 1070 481 1083 471 q 1013 492 1058 492 q 942 471 967 492 q 917 414 917 450 q 942 354 917 376 q 1013 332 967 332 q 1082 354 1057 332 q 1107 414 1107 376 q 1083 471 1107 450 m 1013 67 q 1095 92 1065 67 q 1125 158 1125 117 q 1094 224 1125 200 q 1013 249 1064 249 q 928 225 957 249 q 899 158 899 201 q 928 92 899 117 q 1013 67 958 67 z "},"⅞":{"ha":1182,"x_min":14,"x_max":1149,"o":"m 383 972 l 383 903 l 178 417 l 86 417 l 289 889 l 14 889 l 14 972 l 383 972 m 800 972 l 883 972 l 328 0 l 244 0 l 800 972 m 1057 293 q 1149 147 1149 244 q 1094 28 1149 72 q 950 -17 1039 -17 q 806 28 861 -17 q 750 147 750 72 q 842 292 750 246 q 768 414 768 336 q 820 530 768 488 q 950 572 872 572 q 1078 530 1026 572 q 1131 414 1131 488 q 1057 293 1131 336 m 1020 471 q 1008 481 1020 471 q 950 492 996 492 q 879 471 904 492 q 854 414 854 450 q 879 354 854 376 q 950 332 904 332 q 1019 354 994 332 q 1044 414 1044 376 q 1020 471 1044 450 m 950 67 q 1033 92 1003 67 q 1063 158 1063 117 q 1032 224 1063 200 q 950 249 1001 249 q 865 225 894 249 q 836 158 836 201 q 866 92 836 117 q 950 67 896 67 z "},"←":{"ha":1139,"x_min":83,"x_max":1056,"o":"m 1056 531 l 1056 442 l 253 442 l 625 69 l 500 69 l 83 486 l 500 903 l 625 903 l 253 531 l 1056 531 z "},"↑":{"ha":1000,"x_min":83,"x_max":917,"o":"m 917 556 l 917 431 l 546 801 l 546 0 l 454 0 l 454 801 l 83 431 l 83 556 l 500 972 l 917 556 z "},"→":{"ha":1139,"x_min":83,"x_max":1056,"o":"m 639 903 l 1056 486 l 639 69 l 514 69 l 886 442 l 83 442 l 83 531 l 886 531 l 514 903 l 639 903 z "},"↓":{"ha":1000,"x_min":83,"x_max":917,"o":"m 546 171 l 917 542 l 917 417 l 500 0 l 83 417 l 83 542 l 454 171 l 454 972 l 546 972 l 546 171 z "},"↔":{"ha":1444,"x_min":83,"x_max":1361,"o":"m 1015 833 l 1361 486 l 1015 139 l 890 139 l 1192 442 l 253 442 l 554 139 l 429 139 l 83 486 l 429 833 l 554 833 l 253 531 l 1192 531 l 890 833 l 1015 833 z "},"↕":{"ha":861,"x_min":83,"x_max":778,"o":"m 778 654 l 476 954 l 476 18 l 778 318 l 778 193 l 431 -153 l 83 193 l 83 318 l 385 18 l 385 954 l 83 654 l 83 779 l 431 1125 l 778 779 l 778 654 z "},"↖":{"ha":886,"x_min":83,"x_max":803,"o":"m 803 161 l 738 96 l 171 663 l 171 139 l 83 226 l 83 815 l 672 815 l 760 728 l 236 728 l 803 161 z "},"↗":{"ha":886,"x_min":83,"x_max":803,"o":"m 214 815 l 803 815 l 803 226 l 715 139 l 715 663 l 149 96 l 83 161 l 650 728 l 126 728 l 214 815 z "},"↘":{"ha":886,"x_min":83,"x_max":803,"o":"m 715 800 l 803 713 l 803 124 l 214 124 l 126 211 l 650 211 l 83 778 l 149 843 l 715 276 l 715 800 z "},"↙":{"ha":886,"x_min":83,"x_max":803,"o":"m 803 778 l 236 211 l 760 211 l 672 124 l 83 124 l 83 713 l 171 800 l 171 276 l 738 843 l 803 778 z "},"∂":{"ha":800,"x_min":69,"x_max":717,"o":"m 322 989 q 603 850 490 989 q 717 486 717 711 q 615 117 717 250 q 357 -17 514 -17 q 147 67 224 -17 q 69 278 69 150 q 154 509 69 421 q 388 597 239 597 q 624 524 517 597 q 536 790 615 682 q 322 899 457 899 q 140 850 222 899 l 140 939 q 322 989 218 989 m 357 72 q 542 167 469 72 q 624 431 614 263 q 388 508 524 508 q 222 449 283 508 q 161 278 161 389 q 211 130 161 188 q 357 72 261 72 z "},"∅":{"ha":1117,"x_min":56,"x_max":1061,"o":"m 907 849 q 1061 486 1061 701 q 914 131 1061 278 q 558 -17 767 -17 q 267 76 397 -17 l 181 -28 l 83 -28 l 210 124 q 56 486 56 271 q 203 842 56 694 q 558 989 350 989 q 850 896 719 989 l 936 1000 l 1033 1000 l 907 849 m 139 486 q 261 186 139 311 l 799 833 q 558 908 690 908 q 261 785 383 908 q 139 486 139 663 m 558 64 q 856 187 733 64 q 978 486 978 310 q 856 786 978 661 l 318 139 q 558 64 426 64 z "},"∏":{"ha":889,"x_min":111,"x_max":778,"o":"m 111 -278 l 111 972 l 778 972 l 778 -278 l 686 -278 l 686 883 l 203 883 l 203 -278 l 111 -278 z "},"∑":{"ha":750,"x_min":69,"x_max":708,"o":"m 69 -278 l 69 -187 l 403 361 l 90 881 l 90 972 l 688 972 l 688 883 l 194 883 l 510 361 l 175 -189 l 708 -189 l 708 -278 l 69 -278 z "},"−":{"ha":750,"x_min":83,"x_max":667,"o":"m 83 442 l 83 531 l 667 531 l 667 442 l 83 442 z "},"√":{"ha":894,"x_min":83,"x_max":867,"o":"m 396 0 l 206 328 l 83 328 l 83 417 l 258 417 l 435 111 l 769 1111 l 867 1111 l 493 0 l 396 0 z "},"∞":{"ha":1111,"x_min":76,"x_max":1035,"o":"m 811 708 q 971 644 907 708 q 1035 486 1035 581 q 971 328 1035 392 q 811 264 907 264 q 556 417 676 264 q 300 264 435 264 q 140 328 204 264 q 76 486 76 392 q 140 644 76 581 q 300 708 204 708 q 556 556 435 708 q 811 708 676 708 m 301 347 q 503 486 403 347 q 301 625 403 625 q 204 586 242 625 q 167 486 167 547 q 204 386 167 425 q 301 347 242 347 m 811 347 q 908 386 871 347 q 946 486 946 425 q 908 586 946 547 q 811 625 871 625 q 610 486 710 625 q 811 347 710 347 z "},"∫":{"ha":610,"x_min":0,"x_max":610,"o":"m 0 -281 l 0 -192 q 119 -194 75 -219 q 175 -97 164 -168 l 326 792 q 420 961 347 915 q 610 975 493 1007 l 610 886 q 418 792 443 942 l 267 -97 q 175 -266 246 -219 q 0 -281 104 -312 z "},"≈":{"ha":825,"x_min":83,"x_max":742,"o":"m 392 558 q 237 604 285 619 q 167 508 189 589 l 83 547 q 208 690 119 664 q 433 636 296 717 q 549 588 503 593 q 619 608 596 583 q 658 686 643 632 l 742 647 q 619 503 706 529 q 392 558 533 476 m 167 286 l 83 325 q 208 468 119 442 q 433 414 296 494 q 549 366 503 371 q 619 385 596 361 q 658 464 643 410 l 742 425 q 619 281 706 307 q 392 336 533 254 q 237 382 285 397 q 167 286 189 367 z "},"≠":{"ha":750,"x_min":83,"x_max":667,"o":"m 667 581 l 451 581 l 368 392 l 667 392 l 667 303 l 328 303 l 236 97 l 167 97 l 258 303 l 83 303 l 83 392 l 299 392 l 382 581 l 83 581 l 83 669 l 422 669 l 514 875 l 583 875 l 492 669 l 667 669 l 667 581 z "},"≤":{"ha":722,"x_min":83,"x_max":639,"o":"m 639 833 l 639 731 l 199 571 l 639 411 l 639 308 l 83 525 l 83 617 l 639 833 m 83 139 l 83 228 l 639 228 l 639 139 l 83 139 z "},"≥":{"ha":722,"x_min":83,"x_max":639,"o":"m 83 833 l 639 617 l 639 525 l 83 308 l 83 411 l 524 571 l 83 731 l 83 833 m 83 139 l 83 228 l 639 228 l 639 139 l 83 139 z "},"◊":{"ha":750,"x_min":69,"x_max":681,"o":"m 328 0 l 69 486 l 328 972 l 422 972 l 681 486 l 422 0 l 328 0 m 375 99 l 582 486 l 375 874 l 168 486 l 375 99 z "},"ﬁ":{"ha":717,"x_min":35,"x_max":619,"o":"m 619 694 l 619 0 l 528 0 l 528 606 l 244 606 l 244 0 l 153 0 l 153 606 l 35 606 l 35 694 l 153 694 l 153 722 q 444 989 153 989 q 578 972 503 989 l 578 889 q 444 900 513 900 q 292 860 340 900 q 244 722 244 819 l 244 694 l 619 694 z "},"ﬂ":{"ha":717,"x_min":35,"x_max":619,"o":"m 444 989 q 619 972 525 989 l 619 0 l 528 0 l 528 901 q 444 906 483 906 q 293 863 342 906 q 244 722 244 821 l 244 694 l 403 694 l 403 606 l 244 606 l 244 0 l 153 0 l 153 606 l 35 606 l 35 694 l 153 694 l 153 722 q 444 989 153 989 z "}}}
